<svg xmlns="http://www.w3.org/2000/svg" xmlns:xlink="http://www.w3.org/1999/xlink" viewBox="0 0 94.99 94.99"><defs><style>.cls-1,.cls-34,.cls-4,.cls-5,.cls-6{fill:none;}.cls-2{clip-path:url(#clip-path);}.cls-3,.cls-37{fill:#fff;}.cls-3{fill-rule:evenodd;}.cls-34,.cls-4{stroke:#231f20;}.cls-5{stroke:#ed1c24;stroke-dasharray:8 8;}.cls-5,.cls-6{stroke-width:0.5px;}.cls-6{stroke:#006db7;}.cls-7{font-size:5.6px;}.cls-10,.cls-11,.cls-12,.cls-13,.cls-14,.cls-15,.cls-16,.cls-17,.cls-18,.cls-19,.cls-20,.cls-21,.cls-22,.cls-23,.cls-24,.cls-25,.cls-26,.cls-27,.cls-28,.cls-29,.cls-30,.cls-31,.cls-32,.cls-33,.cls-7,.cls-8,.cls-9{fill:#231f20;font-family:Arial-BoldMT, Arial;font-weight:700;}.cls-8{font-size:5.6px;}.cls-9{font-size:5.6px;}.cls-10{font-size:5.6px;}.cls-11{font-size:5.6px;}.cls-12{font-size:5.6px;}.cls-13{font-size:5.6px;}.cls-14{font-size:5.6px;}.cls-15{font-size:5.6px;}.cls-16{font-size:5.6px;}.cls-17{font-size:5.6px;}.cls-18{font-size:5.6px;}.cls-19{font-size:5.6px;}.cls-20{font-size:5.6px;}.cls-21{font-size:5.6px;}.cls-22{font-size:5.6px;}.cls-23{font-size:5.6px;}.cls-24{font-size:5.6px;}.cls-25{font-size:5.6px;}.cls-26{font-size:5.6px;}.cls-27{font-size:5.6px;}.cls-28{font-size:5.6px;}.cls-29{font-size:5.6px;}.cls-30{font-size:5.6px;}.cls-31{font-size:5.6px;}.cls-32{font-size:5.6px;}.cls-33{font-size:5.6px;}.cls-34{stroke-width:0.96px;}.cls-35{fill:#92187b;}.cls-36{fill:#17192e;}</style><clipPath id="clip-path"><rect class="cls-1" width="94.99" height="94.99"/></clipPath></defs><title>LawfulEvileFace_1</title><g id="ButtonTemplate"><g class="cls-2"><g class="cls-2"><path class="cls-3" d="M0,47.53A47.5,47.5,0,1,0,47.53,0,47.55,47.55,0,0,0,0,47.53m5,0A42.5,42.5,0,1,1,47.53,90,42.58,42.58,0,0,1,5,47.53"/><path class="cls-4" d="M47.53,94.76A47.27,47.27,0,1,0,.22,47.53,47.35,47.35,0,0,0,47.53,94.76Z"/><path class="cls-5" d="M47.53,79A31.5,31.5,0,1,0,16,47.53,31.5,31.5,0,0,0,47.53,79Z"/><path class="cls-6" d="M47.54,88.49a41,41,0,1,0-41-40.95A41,41,0,0,0,47.54,88.49Z"/></g><text class="cls-7" transform="translate(20.55 76.26) rotate(40.25)">C</text><text class="cls-8" transform="matrix(0.82, 0.57, -0.57, 0.82, 23.86, 79.03)">u</text><text class="cls-9" transform="translate(26.86 81.07) rotate(29.44)">s</text><text class="cls-10" transform="translate(29.73 82.66) rotate(25.57)">t</text><text class="cls-11" transform="translate(31.59 83.57) rotate(21.41)">o</text><text class="cls-12" transform="translate(35.03 84.95) rotate(14.84)">m</text><text class="cls-13" transform="matrix(0.99, 0.13, -0.13, 0.99, 40.18, 86.26)">B</text><text class="cls-14" transform="translate(44.46 86.81) rotate(1.91)">u</text><text class="cls-15" transform="translate(48.05 86.9) rotate(-2.14)">t</text><text class="cls-16" transform="translate(50.03 86.82) rotate(-5.01)">t</text><text class="cls-17" transform="translate(52.1 86.66) rotate(-9.18)">o</text><text class="cls-18" transform="translate(55.7 86.07) rotate(-14.53)">n</text><text class="cls-19" transform="translate(59.24 85.13) rotate(-19.68)">s</text><text class="cls-20" transform="translate(62.31 84) rotate(-23.34)">.</text><text class="cls-21" transform="translate(63.89 83.34) rotate(-26.96)">c</text><text class="cls-22" transform="matrix(0.85, -0.53, 0.53, 0.85, 66.88, 81.82)">o</text><text class="cls-23" transform="translate(70.03 79.87) rotate(-38.54)">m</text><text class="cls-24" transform="translate(64.95 12.11) rotate(-157.02)">M</text><text class="cls-25" transform="matrix(-0.96, -0.29, 0.29, -0.96, 60.39, 10.24)">a</text><text class="cls-26" transform="translate(57.21 9.27) rotate(-168.21)">d</text><text class="cls-27" transform="translate(53.62 8.54) rotate(-173.36)">e</text><text class="cls-15" transform="matrix(-1, -0.05, 0.05, -1, 50.36, 8.19)"> </text><text class="cls-28" transform="translate(48.72 8.11) rotate(-179.07)">i</text><text class="cls-29" transform="translate(46.96 8.06) rotate(176.77)">n</text><text class="cls-30" transform="translate(43.38 8.3) rotate(172.9)"> </text><text class="cls-31" transform="matrix(-0.98, 0.2, -0.2, -0.98, 41.64, 8.48)">U</text><text class="cls-32" transform="matrix(-0.95, 0.3, -0.3, -0.95, 37.41, 9.36)">S</text><text class="cls-33" transform="matrix(-0.92, 0.4, -0.4, -0.92, 33.6, 10.58)">A</text><g class="cls-2"><path class="cls-34" d="M47.53,92.85A45.36,45.36,0,1,0,2.14,47.53,45.44,45.44,0,0,0,47.53,92.85Z"/></g></g></g><g id="Main"><circle class="cls-35" cx="47.49" cy="47.49" r="41.21"/><circle class="cls-36" cx="47.49" cy="47.49" r="31.25"/><polygon class="cls-37" points="52.67 66.03 52.67 52.4 65.08 52.4 65.08 74 52.67 66.03"/><path d="M64.63,52.85V73.17L53.12,65.79V52.85H64.63m.91-.91H52.21V66.28l.42.27,11.51,7.39,1.4.9V51.94Z"/><polygon class="cls-37" points="28.74 52.4 41.16 52.4 41.16 66.31 28.74 73.99 28.74 52.4"/><path d="M40.7,52.85V66.06L29.19,73.17V52.85H40.7m.91-.91H28.28V74.81l1.39-.87,11.51-7.11.43-.26V51.94Z"/><polygon class="cls-37" points="41.31 52.66 52.51 52.66 52.51 65.67 41.31 65.88 41.31 52.66"/><path d="M52.36,52.81V65.52l-10.9.2V52.81h10.9m.3-.31H41.16V66l11.5-.21V52.5Z"/><path class="cls-37" d="M51,43.23s2.32,1.47,6.88-2.35,6.84-8.32,9.22-6.67c4.91,3.39,3.43,11.17,1,12.54s-12.14,2-15.47-.38C49.68,44.26,51,43.23,51,43.23Z"/><path d="M60.5,48.1c-3.08,0-6.23-.45-7.88-1.6q-2-1.41-2-2.55a1.06,1.06,0,0,1,.37-.84L51,43l.08.06s2.31,1.34,6.7-2.34A43.61,43.61,0,0,0,61.68,37c2.23-2.38,3.85-4.09,5.54-2.92a8.24,8.24,0,0,1,3.32,7.39c-.1,2.48-1.05,4.7-2.28,5.41S63.8,48.1,60.5,48.1Zm-9.43-4.69a.76.76,0,0,0-.18.54c0,.45.35,1.21,1.9,2.3,3.27,2.28,13,1.68,15.31.36,1.14-.64,2-2.81,2.14-5.15a8,8,0,0,0-3.19-7.13c-1.48-1-2.94.53-5.15,2.88A45.53,45.53,0,0,1,58,41C53.91,44.43,51.59,43.66,51.07,43.41Z"/><path class="cls-37" d="M42.78,43.23s-2.32,1.47-6.88-2.35-6.84-8.32-9.21-6.67c-4.91,3.39-3.44,11.17-1.05,12.54s12.14,2,15.48-.38C44.15,44.26,42.78,43.23,42.78,43.23Z"/><path d="M33.32,48.1c-3.29,0-6.51-.51-7.75-1.22S23.39,44,23.28,41.47a8.29,8.29,0,0,1,3.32-7.39c1.69-1.17,3.31.54,5.54,2.92A43.61,43.61,0,0,0,36,40.76c4.42,3.7,6.68,2.35,6.7,2.34l.09-.06.08.07a1,1,0,0,1,.37.84q0,1.14-2,2.55C39.55,47.65,36.4,48.1,33.32,48.1ZM27.73,34a1.67,1.67,0,0,0-1,.32,8,8,0,0,0-3.18,7.13c.1,2.34,1,4.51,2.13,5.15,2.29,1.32,12,1.92,15.31-.36,1.56-1.09,1.9-1.85,1.9-2.3a.76.76,0,0,0-.18-.54c-.52.25-2.84,1-7-2.42a45.53,45.53,0,0,1-3.88-3.78C30.19,35.36,28.91,34,27.73,34Z"/><path class="cls-37" d="M61.47,32.4a9,9,0,0,1,1.86-1.72,5.65,5.65,0,0,1,2.43-1,3.39,3.39,0,0,1,2.73.6,3.1,3.1,0,0,1,.87,1.14,2.81,2.81,0,0,1,.19.67,2.16,2.16,0,0,1,0,.35c0,.06,0,.12,0,.18a.29.29,0,0,1,0,.09v0a.16.16,0,0,1,0,.09l-.07-.11,0,0,0,0,0-.06-.09-.13L69,32.31a5.08,5.08,0,0,0-.39-.41,4.44,4.44,0,0,0-.86-.62,6.47,6.47,0,0,0-.92-.43c-.16-.06-.33-.1-.5-.15a3.07,3.07,0,0,0-.53-.05,2.55,2.55,0,0,0-.55,0,3.73,3.73,0,0,0-.56.12c-.19,0-.37.11-.56.17a3.65,3.65,0,0,0-.54.23,10.1,10.1,0,0,0-2.07,1.27Z"/><path class="cls-37" d="M46.07,47.93a.88.88,0,1,1-1.76,0c0-.48.4-1.4.88-1.4S46.07,47.45,46.07,47.93Z"/><path class="cls-37" d="M48.69,47.93a.88.88,0,1,1-1.75,0c0-.48.39-1.4.87-1.4S48.69,47.45,48.69,47.93Z"/></g></svg>