<svg xmlns="http://www.w3.org/2000/svg" viewBox="0 0 250.12 250.33"><defs><style>.cls-1{fill:#92187b;}.cls-2{fill:#17192e;}.cls-3{fill:#fff;}.cls-4{fill:#540e4a;}.cls-5{fill:#df1b1b;}.cls-6{fill:#e6c242;}</style></defs><title>LawfulEvilFullText_NoBack_3</title><g id="Main"><circle class="cls-1" cx="125.06" cy="125.16" r="115.53"/><circle class="cls-2" cx="125.06" cy="125.16" r="89.42"/><polygon class="cls-3" points="139.67 178.33 139.67 139 175.6 139 175.6 201.38 139.67 178.33"/><path d="M174.1,140.5v58.14l-32.93-21.13v-37H174.1m3-3H138.17v41.65l1.38.89,32.93,21.12,4.62,3V137.5Z"/><polygon class="cls-3" points="71.18 139 107.11 139 107.11 179.13 71.18 201.33 71.18 139"/><path d="M105.61,140.5v37.79L72.68,198.64V140.5h32.93m3-3H69.68V204l4.58-2.83,32.93-20.35,1.42-.88V137.5Z"/><polygon class="cls-3" points="107.43 140 139.35 140 139.35 177.12 107.43 177.71 107.43 140"/><path d="M138.85,140.5v36.13l-30.92.57V140.5h30.92m1-1H106.93v38.72l32.92-.6V139.5Z"/><path class="cls-4" d="M43.92,63.06V87.55a89.5,89.5,0,0,1,16.8-24.49Z"/><path class="cls-4" d="M206.2,63.06H189.4a89.5,89.5,0,0,1,16.8,24.49Z"/><path class="cls-3" d="M135.22,113s6.63,4.2,19.68-6.73,19.57-23.79,26.38-19.09c14,9.72,9.83,32,3,35.89S149.53,128.62,140,122C131.31,115.9,135.22,113,135.22,113Z"/><path d="M162.29,127c-8.83,0-17.86-1.29-22.6-4.6-3.84-2.68-5.81-5.15-5.85-7.34a3.12,3.12,0,0,1,1.07-2.47l.28-.21.29.18c.1.06,6.57,3.81,19.1-6.68a126.66,126.66,0,0,0,11-10.77c6.42-6.81,11-11.73,15.95-8.35,6.44,4.46,9.91,12.19,9.52,21.21-.3,7.11-3,13.49-6.57,15.53S171.73,127,162.29,127Zm-27-13.4a2.21,2.21,0,0,0-.47,1.47c0,1.27,1,3.43,5.42,6.51,9.35,6.52,37.19,4.8,43.75,1,3.23-1.85,5.79-8,6.07-14.7.38-8.67-2.94-16.09-9.09-20.34-4.19-2.9-8.35,1.52-14.65,8.21a125.91,125.91,0,0,1-11.12,10.84C143.57,116.36,136.9,114.3,135.31,113.56Z"/><path class="cls-3" d="M111.57,113s-6.64,4.2-19.69-6.73S72.31,82.43,65.51,87.13c-14.05,9.72-9.84,32-3,35.89s34.73,5.6,44.29-1.07C115.48,115.9,111.57,113,111.57,113Z"/><path d="M84.49,127c-9.44,0-18.65-1.47-22.22-3.5S56,115,55.7,107.93c-.39-9,3.08-16.75,9.52-21.21,4.9-3.39,9.53,1.54,16,8.35a126.66,126.66,0,0,0,11,10.77c12.56,10.51,19,6.72,19.1,6.68l.29-.17.28.2a3.12,3.12,0,0,1,1.07,2.47c0,2.19-2,4.66-5.85,7.34C102.35,125.67,93.32,127,84.49,127Zm-16-40.32a4.69,4.69,0,0,0-2.71.91c-6.15,4.25-9.47,11.67-9.09,20.34.28,6.67,2.84,12.85,6.07,14.7,6.56,3.75,34.41,5.47,43.75-1,4.44-3.1,5.4-5.26,5.42-6.53a2.22,2.22,0,0,0-.47-1.45c-1.59.74-8.26,2.8-19.91-7A127.33,127.33,0,0,1,80.44,95.76C75.49,90.5,71.86,86.64,68.5,86.64Z"/><path class="cls-4" d="M43.92,162.78v25.88H62.1A89.66,89.66,0,0,1,43.92,162.78Z"/><path class="cls-4" d="M188,188.66H206.2V162.78A89.66,89.66,0,0,1,188,188.66Z"/><path class="cls-3" d="M165.05,81.94a25.55,25.55,0,0,1,5.25-5,16.31,16.31,0,0,1,7-3c2.63-.43,5.76-.17,8,1.74a8.51,8.51,0,0,1,2.47,3.37,7.54,7.54,0,0,1,.52,2,7,7,0,0,1,0,1,4.88,4.88,0,0,1-.06.52c0,.09,0,.17-.07.27l0,.14a.4.4,0,0,1-.17.26l-.22-.33c-.11.08-.08.06-.11,0l-.06-.08-.13-.16a2.88,2.88,0,0,0-.27-.34c-.19-.22-.37-.44-.57-.64-.38-.41-.78-.78-1.17-1.13A14.12,14.12,0,0,0,183,79c-.83-.44-1.65-.83-2.55-1.2-.45-.19-.91-.3-1.38-.46a10.43,10.43,0,0,0-1.5-.16,9.12,9.12,0,0,0-1.55.11,9.65,9.65,0,0,0-1.57.3c-.54.11-1.06.31-1.59.46s-1.06.38-1.56.64a28.78,28.78,0,0,0-6,3.55Z"/><path class="cls-5" d="M60.45,52,61,53h.2l0-.4-.38-.39L61,52h.2l.33,1.18,0,.77-.17-.19-.2,0,0,.59h.38l-.21.19v.2h.19l-.2.17v.2l.53,1.2-.2.18,0,.19.15,1.18,0,.19-.2.19.34,1-.22.57c-.12,2.59,0,3.89.4,3.91l.57.22.2-.18v.19l2-.3.77.35V63.8l.18.2h.2l.59-.16-.2.18v.19l.2,0c0-.26.23-.39.68-.38l.18.2v.2l-.2.07.19.2,0,.58-.22.76.39.8-.22.57.16.59V68l-.2,0v-.38a1.5,1.5,0,0,1-1.11.56L65.91,68v-.19l-1.76.31L64,67.89,63,68l-.77,0v-.38H62L62,68l.19.2-1-.23-.6.16,0-.39-.21.19h-.19l-.18-.2h-.2v.39L58.71,68l-.19-.2-.2.18-1.55-.08-.24-3.12.2-.19-.13-1.37.11-2.12-.19-.22.2-.17v-.2l-.1-1.95.21-.19h-.2l.2-.19-.32-1.38.22-.57-.15-1h.2l-.33-1.38c.06-1.3.55-1.92,1.45-1.87Zm-2.37.65v.2l.39-.38v-.18Zm.76,1.58-.11.11v.1l.32-.1V54.2ZM62,64.88l0,.57.41-.36v-.2Zm.05-10,.21.53-.11.1h.11l.1-.1v-.11l-.1-.42Zm2,12.09.16.59h.2l0-.58Zm.33-2.71.16.59h.19l0-.59Zm.23,3.13.37.41h.19l0-.39Zm.11-2.14,0,1,.41-.37-.18-.59Zm1.56-.32-.42.76.81-.54-.19-.21Z"/><path class="cls-5" d="M71.33,56c.09-.3.18-.63.27-1l.16-.65.16-.17h.16L71.92,54v-.16a3.09,3.09,0,0,0,.65-1.63l-.16-.16.16-.17h4.25q.42,0,3.1,9.3l.15.81v.33h.33c.29,1.74.62,2.61,1,2.61L82,68.35l-.16-.16H79.43l-.17.16-.16-.16H78l-.33-.33v-.32a1.58,1.58,0,0,0-1.79-1.79l-.16.16h-.16l-.5-.16v.16l-.16-.16h-1.3l-1.63.16.16.16v.17a5.37,5.37,0,0,1-.81,2.11l-.16-.16H69.63l-.16.16-.16-.16H67.69v-1l.32-.48h-.15l1-2.77v-.17l-.17-.16q.23,0,1.14-2.94l.49-1-.16-.16.65-1.79-.16-.17c.15,0,.37-.45.64-1.34l-2.28,0c-.41.08-.61.08-.61,0l-.1.1H67.06l-.81,0V56.1h-.1v.19l-2-.15.86-.23,2.65.11Zm3.36,2.42-1.14,3.25,1.63.17h.33l.49-.65c-.24,0-.46-.43-.66-1.31l.17-.16c-.18,0-.35-.32-.5-1l.17-.17Z"/><path class="cls-5" d="M92.83,58.81l-.77,2.27a55.67,55.67,0,0,1-2.29,7.2H89.6l-.82-.16v.16l-.16-.16h-.16l-.17.16h-.16l-.82-.16-.16.16H87L86.16,68l-.16.16h-.16q-.25,0-1.32-3.6h.17a29.18,29.18,0,0,1-1.48-4.75h-.32l.16-.66-.65-2h.16l-1-4.42v-.17l.32-.33h3.94c0,.77.1,1.15.32,1.15l-.16.16v.17l1.64,6.55-.17.16.49.17.5-.49v-.17l-.17-.16V59.6l.49-1.47.17.16h.32v-.16L88.78,58l.33-.66H89l.49-1-.17-.16.5-.17-.33-.33,1.31-3.76h.65l1-.17.82.17.16-.17,1,.33.17-.16H95l-.09.28,1.23,3.53-.32.33.49.16-.17.17.49,1h-.16l.33.65-.49.17v.16h.32l.17-.16.49,1.47v.16l-.16.17v.16l.49.49.49-.16L98,60.31c.36-1.42.64-2.13.82-2.13l-.16-.49.49-1.15h-.16l.65-2.78v-.17l-.16-.16c.22,0,.33-.38.33-1.15h3.93l.32.33v.16l-1,4.42h.17a66.35,66.35,0,0,1-2.3,7.37h.17c-.71,2.41-1.15,3.61-1.31,3.61h-.17L99.43,68,96,68.33h-.16a54.46,54.46,0,0,1-2.3-7.2Z"/><path class="cls-5" d="M111,51.91l1.33.31.34-.33v.33l.33-.33h1.33l.67.67v.33l-.33.34v.33H115l-.33.34v1.66l.33.34v.32h-1.66L113,55.9l-.33.32h-3.34l-.29.68c0,.85.1,1.28.29,1.28l.57-.33v.33l.09-.33h1.68l.33.33.33-.33h2v1l-.33.34v.33l.33.34H114l-.33-.34h-.33v.34l1,.33-.33.34.33.32v.34l-.66.67H113l-.33-.34-.34.34h-3.1c-.21,0-.31,1.65-.31,5h-.34l.34.33v.67l-.67.31-1.92.13h-1c0-.21-.33-.36-1-.43l-.34-1,.34-.34h0L104,62.9l.34-.34H104l.34-.32V51.89h1.33l.33.33.34-.33h.33l.34.33.33-.33H109l.33.33Z"/><path class="cls-5" d="M115.17,51.67h.53l.18.18h.17v-.18l.19.18h2.29l.18.17h.19l.17-.17.18.17.17-.17.18.17v.53l-.18.89h.18l-.18.17v.18l.18.19v.17l-.18.53.18.54h-.53v.17l.88.18H124l.35-.35v-.37h-.17l.17-1.24V52H129v1.24l-.19.72c.07.94.3,1.41.72,1.41l.89-.36v.19l-.54,1.59.35.7-.18.89-.17-.18h-.35v.18c.35,0,.52.12.52.35l-.17.18.35.71L130,60.88v1.06l.18.18-.53,2.13.18.17c-.17,0-.41.53-.7,1.59H129l-.19-.17V66l.19.18c-.3,0-.48.24-.54.71l-.17-.17h-.35l.17.17v.18a9.41,9.41,0,0,1-2.65,1.23v-.17l-1.07.34h-2.65l-.18-.17h-.17v.17c-2.4-.61-4-1.61-4.79-3l-.54-.72V63.36l-.17-.89h.17l-.17-.17V60.17L115.7,60l.35-.7-.35-1.59.35-.54c0-.59-.23-.89-.7-.89v-.35h-1.06v-.35c.35,0,.59-.3.71-.89l-.18-.18v-.17l.18-.54-.18-1V52Zm.88,6.55.19.18h.35v-.53h-.17Zm.89,1.24v.18l.71.17h.18v-.17l-.54-.18Zm4.61-3.36H121l-.17.17h-.18l.18.89v.89l-.35.52h.17l.18-.17v.53l-.18.18.35,1.77-.17.18q.43,3,1.41,3h1.24c.59,0,1.13-.53,1.59-1.59V59.11l.37-.36.17.18v-.36h-.17l-.18.18h-.19v-.18l.19-.87-.19-.72h.19l-.19-.17v-.35l.19-.19V56.1l-.19-.18Zm3.36-2.49.17.18V54l-.17.17.17.18h.37l-.18-.18.18-.17v-.37Zm.36.89v.35h.53l-.35-.35Zm.18,1.77H126v-.35h-.17Zm.87,2.66-.17-.18h-.35v.18l.89.18v-.54Zm.19-3.9v.36l.88-.17V55Zm.18,2.48v.19l.17.17h.35V57.7Zm.52-3.18v.35h.54v-.35l-.19.17h-.17Zm.18,1.41v.36h.54v-.36Zm.54-.89-.18.18v.36l.88-.17V55Z"/><path class="cls-5" d="M132,52l.3.09,1.59-.09.1.09.1-.09h.09l.31.09.09-.09v.09l.11-.09h.09l.4.09.4-.09v.09l.09-.09h.2l.3.29v.1l-.1.1.1.1v.69l-.1.11.1.09v.11l-.1.09.1.11v.59l-.1.1.1.1v.09l-.1.11v.09h.1l-.1.11v.78l.1.6-.1.3h.1l-.1.1v1.1l.1.09-.1.11v1.48l.1.09-.1.11v4.07h1.39l.5.09v-.09l.1.09h.1l.29-.09v.09l.1-.09h.1l.1.09.1-.09h.4l.69.09v-.09l.11.09h.09l.1-.09h.1l.3.09v-.09l.1.09h1.48l-.09.11v3.67l.09.1-.09.39h-5.66l-.1-.09-.1.09-.49-.09h-.31l-.09.09-.11-.09H131.7V59.78l.1-.11v-.09l-.1-.1.1-.1-.1-.1h.1l-.1-.3.1-.3h-.1l.1-.09V56.9l-.1-.1.1-.1v-.2l-.1-.1.1-.09V52.53l.1-.1-.1-.1v-.2h.2Z"/><path class="cls-5" d="M153.15,69.45a14.81,14.81,0,0,1-3.23-.11l-.2.18v-.19l-.2.18-3.07-.08v-.19l2.3-.13.19.2h.19c.8,0,1.3-.19,1.48-.65h-.11c0-.26-.42-.46-1.27-.61l.21-.56a16.52,16.52,0,0,1-.15-4.25l0-1.34-.19-.19.2-.19-.15-1.35.07-2.5-.19-.2.2-.18,0-1.35,0-1.16-.19-.19.2-.19V54l-.19-.2v-.18h.19l-.19-.19,0-.84c0-.39.75-.56,2.2-.52v-.2l3.06.17H155l.77.21.19-.19h.19l.58.09V52l.18.2,1.92,0,.2-.18.19.2h.08l.19-.19.77.21V56.5l-.77.18-.19-.2h-.2l-.2.19-.56-.2-1,.16v-.2l-.2.19h-.58l-1.83-.2c-.25,0-.32.37-.18,1.22l.18.19.39,0,.2-.19.19.2,3.72.1q.38,0,.51,2.13h-.19l.19.2v.2l-.2.19v.18h.19l-.2.19v.2l.19.2-.23.95-3.33-.1-1.35.16v-.19l-.58.17,0,1.16,1.53,0,.19.2.19-.18h.07l.19.2h.19l1.16-.17.2,0,.18.19.2-.18.95.21,1,0v.38l-.2.18.19.2,0,1L160,66.8l.19.2v.2l-.2.18v.19l.17.59-.2.17-1.15,0-.19-.2-1,.35-.19-.2-2.3-.05-1.35.14.12.71,4.85.12.78-.16.77.21,1.72,0,.2-.19h.19v.2l.2-.19h.2l.18.2.2-.19,1.15,0v.39l-2.88-.09-.77.18-.77-.21-1,0-.2.19-.19-.2h-.18l-.78.18-.18-.2-1.36.15-1.92,0-.2.19h-.18l-.19-.2h-.18a.5.5,0,0,0-.22.44Z"/><path class="cls-5" d="M172.25,51.74l.82.17.16-.17,1,.33.16-.16h.49l-.65,2.29-.17.16h.17l-2.3,6.72a54,54,0,0,1-2.29,7.2h-.16l-.82-.16v.16l-.17-.16h-.16l-.16.16H168l-.82-.16-.16.16h-.16L166,68l-.17.16h-.16c-.16,0-.6-1.2-1.31-3.6h.16a29.57,29.57,0,0,1-1.47-4.75h-.33l.17-.66-.66-2h.16l-1-4.42v-.17l.33-.33h3.93c0,.77.11,1.15.33,1.15l-.17.16v.17l.66,2.78h-.16l.49,1.15-.17.49c.19,0,.46.71.82,2.13l-.16.16.49.17.49-.49v-.17l-.16-.16V59.6l.49-1.47.16.16h.33v-.16l-.49-.16.33-.66h-.17l.49-1-.16-.16.49-.17-.33-.33,1.31-3.76h.66Z"/><path class="cls-5" d="M176.49,51.45h2.18l2,.16-.33.68h.33v.17l-.17.16v.18l.17.16v.18l-.17.5c0,.79.22,1.18.67,1.18s.51.11.51.33V58h-.34l.17.17v.17l-.17.67h.17l-.34,1.18.17.16v.18l-.17.16v.18l.17.16L181,65.76l-.16.16H181l-.16.18v.16l.16.16c-.1,1.24-.27,1.85-.5,1.85h-2.86V68h-1.35l-.16-.85.16-.16V65.42l.18-.67-.18-.17.18-.67.16-7.08.16-.66-.16-.18v-.16l.16-.68-.16-.17H177l-.18-.16v-.34l.34.34.18-.18h.33V55c.78-.11,1.18-.27,1.18-.5v-.17l-.51-.17-1,.34h-.18v-.17h.34v-.17h-.16l-.84.34v-.17l-.18-.17-.5-.16.34-1V51.79Zm-.68,5.72H176v1h-.16Zm0,11.28h3.71v.33h-.18l-.67-.17-.51.17-.16-.17-.85.17h-1.34Zm.5-16.16v.33h.5v-.33ZM180,68.45h1.34v.33H180Zm5.65-9h.69v.12h-.69Z"/><path class="cls-5" d="M183.65,52l.3.09,1.59-.09.09.09.11-.09h.09l.31.09.09-.09v.09l.11-.09h.09l.4.09.4-.09v.09l.09-.09h.2l.3.29v.1l-.1.1.1.1v.69l-.1.11.1.09v.11l-.1.09.1.11v.59l-.1.1.1.1v.09l-.1.11v.09h.1l-.1.11v.78l.1.6-.1.3h.1l-.1.1v1.1l.1.09-.1.11v1.48l.1.09-.1.11v4.07h1.39l.5.09v-.09l.1.09h.1l.29-.09v.09l.1-.09h.1l.1.09.1-.09h.4l.69.09v-.09l.1.09h.1l.1-.09h.1l.3.09v-.09l.09.09h1.49l-.09.11v3.67l.09.1-.09.39h-5.67l-.09-.09-.1.09-.5-.09h-.3l-.09.09-.11-.09h-3.57V59.78l.1-.11v-.09l-.1-.1.1-.1-.1-.1h.1l-.1-.3.1-.3h-.1l.1-.09V56.9l-.1-.1.1-.1v-.2l-.1-.1.1-.09V52.53l.1-.1-.1-.1v-.2h.2Z"/><path class="cls-6" d="M80.83,206.52h-.17v.08l.07.07h.08l-.43,1.52.07.07-.15.15h.08l-.15.31h.07l-.36,1.13.08.08c-.1,0-.29.55-.58,1.66l-.07-.07-.07.07h-.79l-.28.08L78,211.6l-.07.08h-.07c-.24,0-.36-.1-.36-.23l-.29-.53h.07l-.64-1.66.07-.08v-.08c-.11,0-.3-.55-.57-1.66v-.15H76c0-.15,0-.23-.14-.23l.07-.07v-.08l-.14-.15.07-.08v-.15l-.29-.75.22-.16h.28l.08.08h.07v-.23c-.16,0-.35-.23-.58-.68l.07-.08v-.15h-.14l.07-.07v-.08a.94.94,0,0,1-.14-.6c-.1,0-.17-.17-.21-.46h-.15l.08-.23.07.08.35-.08H76l.07.08h.08v-.08l.07.08h.07l.64-.08c.33,0,.52.31.58.91l.29.76h-.15v.15h.15V205l-.08.08v.07c.19.07.29.15.29.22l-.07.23.14.16c0,.09-.07.14-.21.14l-.07.08v.07l.21.46h-.07l.14.38L78,207l.07.07.36.76.29-.76h-.08l.22-.75H79l.93.15v-.15l-.71-.31.35-1.59-.06-.08c.1,0,.22-.35.35-1.05l.43-.16h.36l.36.08.43-.08h.36v.08l-.07.23h0l.1-.31.64,2-.16.17.24.09-.08.08.24.51h-.08l.16.34-.24.09v.09h.16l.08-.09.25.77v.08l-.09.09v.08l.24.26.25-.09-.08-.08c.17-.74.31-1.11.4-1.11l-.08-.26.24-.59h-.08l.32-1.45V204l-.08-.08c.11,0,.16-.2.16-.6h1.94l.16.17v.09l-.49,2.3H86l-.32,1,.08.34h-.17a15.63,15.63,0,0,1-.72,2.47h.08a6.68,6.68,0,0,1-.65,1.88H84.2l-.08-.09-.4.17h-.08l-.08-.08-.4.08h-.08l-.09-.08h-.08l-.08.08v-.08l-.4.08h-.08a28.73,28.73,0,0,1-1.13-3.75Zm-4.47-1.13v.23c.48.09.72.22.72.38h.14l.07-.08.07.08h.22v-.08l-.22-.3-.07.08h-.07c0-.12-.12-.19-.36-.23l-.35.08v-.16Zm4.3,1.14v-.15h-.5v.15l.29.08Z"/><path class="cls-6" d="M91.92,206.52h-.17v.08l.08.07h.07l-.43,1.52.07.07-.15.15h.08l-.15.31h.07L91,209.86l.07.08c-.1,0-.29.55-.57,1.66l-.08-.07-.07.07h-.78l-.29.08-.22-.08-.07.08H89c-.24,0-.36-.1-.36-.23l-.28-.53h.06l-.64-1.66.07-.08v-.08c-.1,0-.3-.55-.57-1.66v-.15h-.15c0-.15,0-.23-.14-.23L87,207v-.08l-.15-.15.07-.08v-.15l-.28-.75.21-.16h.29l.07.08h.07v-.23c-.16,0-.35-.23-.58-.68l.08-.08v-.15h-.14l.06-.07v-.08a.94.94,0,0,1-.14-.6c-.09,0-.16-.17-.21-.46h-.15l.08-.23.07.08.35-.08h.36l.08.08h.07v-.08l.07.08h.07l.64-.08c.33,0,.52.31.58.91l.29.76h-.15v.15h.15V205l-.08.08v.07c.2.07.29.15.29.22l-.07.23.14.16c0,.09-.07.14-.21.14l-.07.08v.07l.21.46H89l.14.38-.07.08.07.07.36.76.29-.76h-.07l.21-.75h.14l.94.15v-.15l-.72-.31.36-1.59-.07-.08c.11,0,.22-.35.35-1.05l.43-.16h.36l.36.08.43-.08h.36v.08l-.07.23h0l.09-.31.64,2-.16.17.24.09-.08.08.25.51h-.09l.17.34-.25.09v.09h.17l.08-.09.24.77v.08l-.09.09v.08l.25.26.24-.09-.08-.08c.18-.74.31-1.11.4-1.11l-.08-.26.24-.59H95l.32-1.45V204l-.07-.08q.15,0,.15-.6h1.94l.16.17v.09l-.48,2.3h.08l-.32,1,.08.34h-.17a15.63,15.63,0,0,1-.72,2.47H96a6.31,6.31,0,0,1-.65,1.88h-.08l-.07-.09-.41.17h-.08l-.08-.08-.4.08h-.08l-.09-.08H94l-.07.08v-.08l-.41.08h-.08a30.55,30.55,0,0,1-1.13-3.75Zm-4.47-1.13v.23c.48.09.72.22.72.38h.15l.06-.08.08.08h.21v-.08l-.21-.3-.08.08h-.06c0-.12-.12-.19-.36-.23l-.36.08v-.16Zm4.3,1.14v-.15h-.5v.15l.29.08Z"/><path class="cls-6" d="M103,206.52h-.17v.08l.07.07H103l-.43,1.52.07.07-.14.15h.07l-.15.31h.08l-.36,1.13.07.08c-.1,0-.29.55-.57,1.66l-.07-.07-.08.07h-.78l-.29.08-.22-.08-.07.08h-.07c-.24,0-.36-.1-.36-.23l-.28-.53h.06l-.64-1.66.07-.08v-.08c-.1,0-.29-.55-.57-1.66v-.15h-.15c0-.15,0-.23-.14-.23l.08-.07v-.08l-.15-.15.07-.08v-.15l-.28-.75.21-.16h.29l.07.08h.07v-.23c-.15,0-.35-.23-.57-.68l.07-.08v-.15h-.14l.07-.07v-.08a.88.88,0,0,1-.14-.6c-.1,0-.17-.17-.22-.46h-.14l.07-.23.07.08.36-.08h.35l.08.08h.07v-.08l.07.08h.07l.65-.08c.32,0,.51.31.57.91l.29.76h-.15v.15H100V205l-.07.08v.07c.19.07.28.15.28.22l-.07.23.15.16c0,.09-.08.14-.22.14L100,206v.07l.21.46h-.07l.15.38-.08.08.08.07.35.76.29-.76h-.07l.22-.75h.14l.93.15v-.15l-.72-.31.36-1.59-.07-.08c.11,0,.22-.35.35-1.05l.44-.16h.36l.35.08.44-.08H104v.08l-.07.23h0l.09-.31.65,2-.17.17.24.09-.07.08.24.51h-.09l.17.34-.25.09v.09h.17l.08-.09.24.77v.08l-.08.09v.08l.24.26.24-.09-.08-.08c.18-.74.31-1.11.4-1.11l-.07-.26.23-.59h-.08l.33-1.45V204l-.08-.08c.1,0,.16-.2.16-.6h1.93l.16.17v.09l-.48,2.3h.08l-.32,1,.08.34h-.16a15.23,15.23,0,0,1-.73,2.47h.08a6.92,6.92,0,0,1-.64,1.88h-.08l-.08-.09-.4.17h-.09l-.08-.08-.4.08h-.08l-.08-.08h-.08l-.08.08v-.08l-.4.08h-.09a29.45,29.45,0,0,1-1.12-3.75Zm-4.48-1.13v.23c.48.09.72.22.72.38h.15l.06-.08.08.08h.21v-.08l-.21-.3-.08.08h-.06c0-.12-.12-.19-.36-.23l-.36.08v-.16Zm4.31,1.14v-.15h-.5v.15l.28.08Z"/><path class="cls-6" d="M109.89,208.75c.92.07,1.39.46,1.39,1.18v.15a1.23,1.23,0,0,1-.87,1.18c-.84,0-1.36-.24-1.57-.74H109l-.18-.14v-.75A1.55,1.55,0,0,1,109.89,208.75Z"/><path class="cls-6" d="M114,212.23a8.12,8.12,0,0,1-1.68-.07l-.1.1v-.1l-.11.1-1.6,0v-.09l1.2-.07.09.1h.1c.42,0,.68-.1.77-.34h-.06c0-.13-.21-.24-.65-.31l.11-.3A8,8,0,0,1,112,209v-.69l-.09-.1.1-.1-.08-.71,0-1.29-.1-.1.1-.1v-1.3l-.1-.11.1-.1v-.2l-.1-.1V204h.1l-.1-.09v-.44c0-.2.39-.29,1.15-.27v-.1l1.6.08H115l.4.11.1-.1h.11l.29,0v-.1l.1.1,1,0,.1-.1.1.11h0l.1-.1.4.11v2.2l-.4.09-.1-.1h-.1l-.1.1-.3-.1-.5.08v-.1l-.1.1h-.3l-1-.11c-.14,0-.17.2-.1.64l.1.1h.2l.1-.1.1.1,1.93.06q.21,0,.27,1.11h-.1l.1.1v.11l-.11.09v.1h.1l-.1.1v.1l.09.11-.11.49-1.74,0-.7.08v-.1l-.3.09v.61h.79l.1.11.11-.1h0l.1.1h.1l.6-.09h.1l.1.1.1-.09.5.11h.5v.2l-.11.1.1.1,0,.5-.11.59.09.11v.1l-.1.1v.1l.09.3-.1.09h-.61l-.09-.1-.51.18-.09-.11-1.2,0-.7.07.06.37,2.52.07.4-.09.41.11.89,0,.1-.09h.11v.1l.1-.1H119l.09.11.1-.1.6,0v.2l-1.5,0-.4.09-.4-.11-.5,0-.1.1-.1-.11h-.1l-.4.09-.1-.1-.7.08-1,0-.1.09h-.1l-.1-.11h-.09a.27.27,0,0,0-.12.22Z"/><path class="cls-6" d="M117.42,202.86h.09l.88.09v-.09l.09.09h.34l.1-.09.6.18.09-.09h.09l.26.09v.35l.44,1.66h-.17v.09c.2,0,.32.23.35.7l-.27.09v.17a.47.47,0,0,1,.53.53l.26.26c.47-.06.71-.44.71-1.14.1,0,.21-.23.34-.7a6.74,6.74,0,0,1,.79-2H123l1.75.08V203l.35.08v.09c-.32,1.34-.59,2-.79,2h-.08l.08.27-.17.7h-.09V206l-.35.35h.09l.08-.09.09.09v-.17h.09v.26l-.09.62,1.05.08c0,.12-.14.18-.44.18l-1,3.23.09.1-.53,1-.43-.08-.09.08-.09-.08h-.17l-.09.08-.09-.08h-1.22c-.16,0-.49-.81-1-2.45a8.85,8.85,0,0,1-.7-1.84l-.61-.09-.09.09c-.35-.08-.52-.19-.52-.35.22,0,.36-.21.44-.62h-.09l-.09.09-.88-3h.09l-.09-.09Zm1.32,3.59-.09.26.09.09h.18v-.09h-.18l.08-.08v-.18Zm.08-.26v.08l.1.09h.16v-.09Zm.18-.26V206l.18.18h.17v-.09c0-.12-.09-.17-.27-.17Zm1-.53v.18l.09-.09h.09l.09.09h.17v-.09Zm.09,1.14v.17h.09l.09-.08.08.08h.35l-.08-.08v-.09l.08-.09v-.09Zm1.84,0-.08-.09v.09l.34.17c0-.17.15-.26.44-.26l.09.09v-.27h-.09Zm0,.79v.44h.18l.08-.44Zm1-1.75c0,.23-.06.35-.17.35h-.09v-.18c-.47.16-.7.36-.7.61a1.08,1.08,0,0,0,.61-.43l.26.08-.08.09v.09h.08l.26-.53v-.08Zm-.61-.18.17.18h.09l-.18-.18Zm.44-.26v.17l.08.09h.09l-.09-.26Zm.26.87h.08l.18-.17h-.09Zm.79-1c0,.18-.18.26-.53.26v.09h.18l.52-.17V205Zm-.53,1,.26.35h.09l-.09-.09v-.17h.18v-.17Z"/><path class="cls-6" d="M128,203.13v0l0,0c.14,0,.21,0,.21.07s0,.22,0,.22l0,.12,0,0v0l.05.15,0,.12v.41h0v0l0,.07v0l0,.13.05.26,0,0v.24l0,0,0,0v.1l0,0,0,0v0l0,.07,0,0h0l0,0v.05l0,0,.05.26,0,0v0l0,.15,0,0v0l0,0v0l0,.07h0l0,.07,0,0h0l0,0v0l0,0v0h0v0l.07.1v.17l0,.1-.05.14h.05l0,.1,0,.07,0,.22v.1l0,0-.05.12.05.12,0,0v0l0,.07-.09,0,0,0v0l-.05.05h0a.18.18,0,0,0-.09-.12l-.09,0-.08,0v.05h0v-.05h0v0a.11.11,0,0,0,.12.1v-.08H128l.14.08.08,0v0h0l.06.12h-.05v0l0,0v0h0l0,0v0l-.09.1,0-.05h0l0,.05v.07h0v0h0l.11-.05a.32.32,0,0,0,.05.2l0,0h0l0,.12,0,0v0l0,.1,0,0v0l.05.12-.06,0v0l0,.07,0,.07h.05l0,0v0l0,0s0,.07-.09.07v0h0l.05,0v0l-.05.07.05.12,0,0h0a.21.21,0,0,1-.16.21v0l0,0h0l0-.07,0,0h0l0,0,0,.15h0l0,0v0l0,0,0,.12v.05l0,0h0v0h0v0h0v0h0l0,.17v.1l0,0,0,0v0l0,.1,0,.09,0,0v0l0,0,0,.12v0l0,0v0h0l0,.07,0,.07,0,.17,0,0v0l0,.07,0,0v0l0,.1-.05,0h-.09l-.2,0-.1,0-.09,0-.16,0-.07,0-.12,0-.42,0,0,0,0,0v0l-.08,0,0,0-.11,0-.07,0-.12,0h-.14l0,0h0l0,0v0l0,0H126c-.17,0-.25,0-.25-.07l0-.05,0,0v0c0-.11,0-.17,0-.17l0,0v0l0,0v0l0,0h0l0-.07,0,0h0v-.05h0l0,0h0V211h0v0l-.06-.12,0-.07,0-.1,0-.07,0,0v0l0-.15h0l0,0v0h0l0,0c-.08,0-.11,0-.11-.07l0,0v0l0-.07h0l0,0v-.1l0-.07,0-.12v-.39l0-.1.05-.19-.05-.27,0,0h0l0,0v0l0,0,0,0v-.37l0-.09,0-.1v0l0-.07,0-.12v-.58l0-.1-.05-.17,0,0v-.85l0,0,.07-.34-.07-.32.05-.12h0l0,0v0l0,0v0l0,0v0h0l0-.07h0l0-.07,0-.1h0l0,0v-.2l0-.17,0,0h0l0,0v0l0,0-.05-.15,0,0v-.49l0-.14,0-.13v0l.06-.19h0v0h0l0,0,0,0,0-.08h0l0,0v0l0,0h-.07l0-.07h0l0,0h0s0-.08.15-.1l0,0h0l.09,0,0,0v0h0l.09,0,0,0,.12,0h.28l0,0h0v0h0l0,0,0,0h0l.1,0,.09,0,.07,0,.11,0h.08l.13,0,0,0h0l0,0Zm-2.16,5,.08.08h0v-.08Zm.16-2.72v0l.12.05,0-.05v-.08h0Zm.28,3.18v.08l.2.05v-.09l-.08-.09Zm.08-2.89v.09h0l.08-.09Zm.06-2.5v0l0,.07h.05v0l-.05-.05Zm0,.12,0,.05,0,0h0v0h0l0-.1Zm.21,1.3v0l0,.05v0l-.08.09,0,.12,0,.17c0,.19.07.29.13.29h0v-.08l0,0h0v-.08c.11,0,.16,0,.16-.09v0l-.11,0,0-.12-.09-.17,0-.05,0,0,.12,0v-.09l0,0,0,0Zm0,.83v.17l.08.08h.12A.22.22,0,0,0,126.65,205.48Zm.3-2.13h0l0,0,0,0v0h0Zm.07,4.51,0,0V208h.11l0-.17h0l0,0Zm0-1.37.07.08c.11,0,.17-.08.17-.12s-.09,0-.09-.13Zm.07-1.3v.17l.08-.08Zm.2,0,0,.05v0l0,0h.08v0Zm0,1.8,0,.13,0,0h0V207Zm.18-3.78v.05h.07l0-.05Zm.06,1v0l.08.08v0Zm.12,3.89v.12l.08.09,0-.17,0,0Zm.12-1.42-.08.13,0,.12.13-.05v-.12Zm-.08.83v.13l.17,0-.09-.09Zm.08-2.09v.05l.09.08H128v-.13Zm0,3.05v.09h.09l.07-.09-.07-.08Zm.16,1,0,.13.27.12v-.2Zm.12-5,0,.17h.08l0-.17Zm.07,4v0l.09.09,0-.05v0l0,0Zm0,1.67v.09l.09.08h0v-.08Zm.13-4.88v0l.09.21h.07l-.07-.25Zm.31,1.75h.17l-.08-.09Z"/><path class="cls-6" d="M131.18,203.13l.27.52h.1v-.2l-.19-.21.1-.1h.11l.17.61,0,.4-.09-.1h-.11v.31h.2l-.11.1v.1h.1l-.1.09v.11l.28.62-.11.09v.1l.07.62v.09l-.1.1.18.52-.12.3c-.07,1.34,0,2,.21,2l.29.11.11-.09v.1l1-.16.41.18v-.09l.09.1H134l.3-.09-.1.09v.11h.1c0-.13.13-.2.36-.19l.1.1v.1l-.1,0,.09.1,0,.31-.11.39.2.42-.12.3.09.3v.1h-.1v-.2a.8.8,0,0,1-.58.29l-.09-.11v-.1l-.92.16-.09-.11-.51.08-.41,0v-.2H132v.21l.1.1-.5-.12-.31.08v-.2l-.11.1h-.1l-.09-.1h-.11v.2l-.61,0-.1-.1-.1.1-.81,0-.12-1.62.1-.1-.07-.71.06-1.11-.1-.11.1-.09v-.1l-.05-1,.1-.09h-.1l.1-.1-.16-.72.12-.3-.08-.51h.1l-.17-.72c0-.67.28-1,.75-1Zm-1.24.34v.1l.21-.19v-.1Zm.4.82-.06.06v.05l.16-.05v-.06Zm1.63,5.56,0,.29.22-.18v-.11Zm0-5.23.11.27,0,.06h0l.05-.06v0l-.05-.22Zm1,6.29.09.31h.1v-.3Zm.17-1.41.09.3h.09l0-.3Zm.12,1.62.2.22h.1v-.2Zm.06-1.11,0,.51.22-.19-.09-.31Zm.81-.16-.22.39.42-.28-.09-.11Z"/><path class="cls-6" d="M136.32,208.75c.93.07,1.39.46,1.39,1.18v.15a1.23,1.23,0,0,1-.87,1.18c-.84,0-1.36-.24-1.56-.74h.17l-.17-.14v-.75A1.51,1.51,0,0,1,136.32,208.75Z"/><path class="cls-6" d="M138.17,207.38v-.16l.17-.17h-.17l.22-1.66a3.51,3.51,0,0,1,3-2.33h.16l.16.16.17-.16,1.24,0,.17-.16.16.16-.16.18v.32h.16v-.32h.34l0,1.27v.17l-.16.16.16.17-.12.43-.94-.26h-.16l-.17.17v-.17a1.89,1.89,0,0,0-1.82,1.33v.83l.22,1.16-.16.18h.33v-.18l.51.61.34,0,.43,0,.66-.16.5.22v-.16l-.16-.17.49-.16h.17v.16l-.17.17.12,1.49v.34c0,.19-.54.42-1.61.66Q138.29,211.42,138.17,207.38Zm.71-1.66-.17-.17.17-.16v-.17l-.33.33v.17Z"/><path class="cls-6" d="M146.45,202.87l.08.09h2l.08.26h-.08l1,3.26v.44l1,.17.27-.08v.08l.09.27-.27.08a13,13,0,0,0,1.14,3.17l.36,1.14-.1.09h-.43l-.09-.09h-.09l-.09.09v-.09l-.09.09h-1.14c-.38,0-.7-.38-1-1.14l-.34-.09h-2.12l-.44,1.06-.09.08v.09l-.09-.09-.08.09H144v-.53a7.64,7.64,0,0,1,.71-1.93h-.09a4.17,4.17,0,0,0,.53-1.76l-.36-.09-.43.09-.36-.09v-.44h.18l.08.09h.1l1.49-3.61-.09-.08c.1,0,.22-.18.35-.53Zm.44,3.52-.18.62h.09l.44-.09-.09-.53Zm.35,2,.08.09h.36l.35-.09.44.18c-.15-.7-.29-1.06-.44-1.06h-.35C147.59,207.53,147.44,207.83,147.24,208.41Z"/><path class="cls-6" d="M152.12,202.9l.87,0,1.22.15.52-.1.17.17h.1v-.17h.09l.35.07.25-.09V203l.09.26H156l.16-.17V203c.47.13.7.24.71.32v.44h.26v.17h-.69v.18h.44l.43-.1v-.17l-.08-.09v-.09h.09q.53.28.54.51l.86,0v.18l-2.35,0-.7,0-.09-.09-.08.09-1.31-.14-.09.09H154a16.3,16.3,0,0,0-2.78-.1v-.09h.53l.08-.27-.1-.51Zm.22,1.65.09.08h.43a6.89,6.89,0,0,1,2.35.11l.43-.1,1,0,.09.08.08-.09,1,0,.09.08h.08l.08-.27c.27,0,.51.49.74,1.46v.53a2.85,2.85,0,0,1-1.32,2.47l1.36,2.48v.09l-2.26.06q-.53,0-.9-1c-.27-.81-.59-1.2-1-1.19-.12,0-.2.18-.25.53h.08l-.14.88.08.08V211l-.09.09v.09l.08.08h-.08l.09.08v.17l-2.44.07,0-.79.08-.43-.09-.08.08-.09h-.18l.16-.61H152l.16-.44-.09-.09V209l.09-.09v-.09l-.09-.08.14-1.4-.09-.08.07-.61,0-1.39A.87.87,0,0,1,152.34,204.55Zm-.46-.86v.08h.35v-.08Zm.16-.27h.27v-.18h-.08Zm2.35,3.24.09.09h-.09l.09.08V207l-.08.09v.09l.6.06h.53l.09.09h.08c0-.12.17-.21.52-.28l.24-.7q0-.87-1.41-.84l-.43,0C154.5,205.53,154.42,205.91,154.39,206.66Zm.66,5.12h.35v.08h-.35Zm.52,0h.7v.08l-.7,0Zm.4-8-.08.26.09.08h.09l.25-.09-.27-.26Zm1-.38.18.17v.08l-.18-.17Zm1.18,8.31.69,0v.18l-.7-.07Z"/><path class="cls-6" d="M165.84,209.24q0,.87-.27.18l.19-.38v-.18l-.43.21.1.09c.15,1-.62,1.79-2.32,2.27v-.09H163l-.09.1-2.38.05-.59-.18-.2.19h-.39l.15-.09-.09.09h.22l-.1-.09v.09l-.3-.09h-.1l.09-.28v-.09l-.09-.09.07-.84-.11-.65.24-.39h-.17l.1.09c0-.08.11-.14.33-.19v-.28l.09-.38-.11-.37-.06-2.7.1-.1-.11-.09v-.19l.09-.56v-.09l-.1-.09.08-.38v-.28h.1l.1-.09v-.1l.3.09.59-.1h.1l.2.18.2-.2.49.09h.1l.09-.1.21.16h1v-.19h.3l.1.09v-.09l1,.43v.09h-.3v.1h.3l.09-.1c1.17.76,1.7,2.31,1.6,4.63C166,208.38,165.85,208.66,165.84,209.24Zm-4.86.19.5.08c.79,0,1.18-.15,1.18-.39l-1.68.12h-.1v.28Zm2-.51.23-.19h.2l.1.09.1-.09h0v.09l0,.09h0l.39-.18h-.39v-2.39c0-.4-.27-.69-.78-.88l0,.09h-.1l-.39-.09c-.31.09-.47.21-.49.38v.09l.1.1v2.54c0,.12.35.18,1,.16v.09l-.09.1Zm-.78-4.45-.1-.28H162v.28Zm1.11-.67v-.09l-.1-.09-.19.19Z"/><path class="cls-6" d="M169.43,203.05a4.57,4.57,0,0,1,2.91.79V206h-.11a6.54,6.54,0,0,0-2.35-.8c-.52.11-.79.23-.79.35s.68.52,2,.8a3.16,3.16,0,0,1,2,2.81l-.11.27h.11c0,.83-.74,1.56-2.24,2.2v.09h.23l-.11.08.11.09V212h-2.58l-.11-.09-.11.09-.56-.09h-.34v-.18h.34l.89-.17v-.17c-1.19-.28-1.79-.61-1.79-1l.11-.09v-.53l-.11-.35.11-.36-.11-.08L167,209v-.09l-.11-.35H167a6.56,6.56,0,0,0,2.47.79h.45a.94.94,0,0,0,.67-.26c0-.26-.82-.61-2.47-1.06a2.62,2.62,0,0,1-1.45-2.29v-.79A2.91,2.91,0,0,1,169.43,203.05Zm1,8.45.22.18.22-.26Z"/><path class="cls-3" d="M121,126.42a2.52,2.52,0,1,1-5,0c0-1.39,1.12-4,2.51-4S121,125,121,126.42Z"/><path class="cls-3" d="M128.49,126.42a2.52,2.52,0,1,1-5,0c0-1.39,1.13-4,2.52-4S128.49,125,128.49,126.42Z"/></g></svg>