<svg xmlns="http://www.w3.org/2000/svg" viewBox="0 0 250.12 250.33"><defs><style>.cls-1{fill:#92187b;}.cls-2{fill:#17192e;}.cls-3{fill:#fff;}</style></defs><title>LawfulEvilFace_NoBack_3</title><g id="Main"><circle class="cls-1" cx="125.06" cy="125.16" r="115.81"/><circle class="cls-2" cx="125.06" cy="125.16" r="102.66"/><polygon class="cls-3" points="142.06 186.08 142.06 141.27 182.85 141.27 182.85 212.26 142.06 186.08"/><path d="M181.35,142.77v66.74l-37.79-24.25V142.77h37.79m3-3H140.56V186.9l1.38.88L179.73,212l4.62,3V139.77Z"/><polygon class="cls-3" points="63.43 141.27 104.23 141.27 104.23 186.99 63.43 212.2 63.43 141.27"/><path d="M102.73,142.77v43.38l-37.8,23.36V142.77h37.8m3-3H61.93v75.12l4.58-2.83,37.8-23.36,1.42-.88v-48Z"/><polygon class="cls-3" points="104.74 142.12 141.54 142.12 141.54 184.89 104.74 185.57 104.74 142.12"/><path d="M141,142.62V184.4l-35.8.66V142.62H141m1-1h-37.8v44.46l37.8-.7V141.62Z"/><path class="cls-3" d="M136.72,111.14s7.61,4.83,22.59-7.72S181.78,76.1,189.6,81.51c16.12,11.15,11.29,36.7,3.42,41.19s-39.87,6.43-50.84-1.23C132.23,114.53,136.72,111.14,136.72,111.14Z"/><path d="M167.8,127.15c-10.12,0-20.47-1.47-25.9-5.27-4.39-3.06-6.64-5.87-6.69-8.36a3.5,3.5,0,0,1,1.21-2.78l.27-.21.29.19c.11.06,7.58,4.4,22-7.69a144.81,144.81,0,0,0,12.68-12.36c7.34-7.8,12.64-13.43,18.21-9.58,7.37,5.1,11.35,14,10.9,24.29-.35,8.13-3.44,15.43-7.51,17.76S178.62,127.15,167.8,127.15Zm-31-15.4a2.62,2.62,0,0,0-.6,1.78c0,1.47,1.16,4,6.26,7.53,10.75,7.5,42.76,5.52,50.3,1.21,3.73-2.13,6.68-9.25,7-16.93.43-10-3.38-18.52-10.47-23.42-4.87-3.37-9.66,1.73-16.91,9.44a146.71,146.71,0,0,1-12.76,12.44C146.15,115.09,138.51,112.56,136.81,111.75Z"/><path class="cls-3" d="M109.57,111.14S102,116,87,103.42,64.5,76.1,56.69,81.51c-16.13,11.15-11.29,36.7-3.42,41.19s39.87,6.43,50.83-1.23C114.06,114.53,109.57,111.14,109.57,111.14Z"/><path d="M78.48,127.15c-10.81,0-21.38-1.68-25.46-4s-7.16-9.63-7.51-17.76C45.06,95,49,86.19,56.41,81.09c5.57-3.85,10.87,1.78,18.21,9.58A146,146,0,0,0,87.29,103c14.53,12.18,21.94,7.74,22,7.69l.29-.19.28.21a3.5,3.5,0,0,1,1.21,2.78c0,2.49-2.3,5.3-6.69,8.36C99,125.68,88.61,127.15,78.48,127.15ZM60.13,80.86A5.42,5.42,0,0,0,57,81.92c-7.08,4.9-10.89,13.43-10.47,23.42.33,7.68,3.28,14.8,7,16.93,7.55,4.31,39.56,6.29,50.31-1.21,5.12-3.57,6.23-6.08,6.26-7.56a2.6,2.6,0,0,0-.6-1.75c-1.7.82-9.34,3.35-22.83-8A146.71,146.71,0,0,1,73.89,91.36C68.19,85.3,64,80.86,60.13,80.86Z"/><path class="cls-3" d="M171,75.56a29.73,29.73,0,0,1,6.08-5.65,18.65,18.65,0,0,1,8-3.29c3-.47,6.46-.11,9,2a9.74,9.74,0,0,1,2.84,3.74,7.63,7.63,0,0,1,.72,3.35c0,.2,0,.39,0,.59s0,.2-.07.3l-.05.16a.4.4,0,0,1-.17.27l-.22-.33c-.11.08-.08.06-.11,0l-.06-.09-.13-.2a3.81,3.81,0,0,0-.29-.41c-.2-.26-.39-.52-.61-.76a16.76,16.76,0,0,0-1.3-1.35,15.06,15.06,0,0,0-2.81-2,25.54,25.54,0,0,0-3-1.42c-.53-.21-1.08-.32-1.64-.5a12.51,12.51,0,0,0-1.75-.16,11.12,11.12,0,0,0-1.81.14,14.88,14.88,0,0,0-1.83.38c-.62.13-1.21.37-1.83.56s-1.21.46-1.79.76a32.39,32.39,0,0,0-6.79,4.19Z"/><path class="cls-3" d="M120.39,126.6a2.89,2.89,0,0,1-5.78,0c0-1.59,1.29-4.59,2.89-4.59S120.39,125,120.39,126.6Z"/><path class="cls-3" d="M129,126.6a2.89,2.89,0,0,1-5.78,0c0-1.59,1.3-4.59,2.89-4.59S129,125,129,126.6Z"/></g></svg>