<svg xmlns="http://www.w3.org/2000/svg" viewBox="0 0 16.1 16.1"><defs><style>.cls-1{fill:#17192e;}.cls-2{fill:#fff;}</style></defs><title>LawfulEvilFavIcon_16x16</title><g id="Main"><circle class="cls-1" cx="8.05" cy="8.05" r="8"/><polygon class="cls-2" points="9.12 12.93 9.12 9.05 12.8 9.05 12.8 15.3 9.12 12.93"/><path d="M12.44,9.42v5.2L9.49,12.73V9.42h2.95m.73-.73H8.75v4.45l.34.21L12,15.24l1.13.73V8.69Z"/><polygon class="cls-2" points="3 9.05 6.68 9.05 6.68 13.01 3 15.28 3 9.05"/><path d="M6.31,9.42V12.8L3.36,14.62V9.42H6.31m.74-.73H2.63v7.25l1.12-.69,3-1.82.35-.22V8.69Z"/><polygon class="cls-2" points="6.55 9.46 9.25 9.46 9.25 12.62 6.55 12.67 6.55 9.46"/><path d="M9.13,9.58V12.5l-2.46.05v-3H9.13m.24-.25H6.43V12.8l2.94-.06V9.33Z"/><path class="cls-2" d="M9,7s.59.37,1.76-.6,1.75-2.13,2.36-1.71a2.21,2.21,0,0,1,.27,3.21,5.73,5.73,0,0,1-4-.1C8.61,7.22,9,7,9,7Z"/><path d="M11.38,8.28a4,4,0,0,1-2.07-.42c-.36-.25-.55-.49-.55-.72a.33.33,0,0,1,.12-.28L9,6.81l.07,0s.56.3,1.62-.59a11.25,11.25,0,0,0,1-1c.58-.61,1-1.1,1.53-.75a2.17,2.17,0,0,1,.88,2A1.83,1.83,0,0,1,13.41,8,5.32,5.32,0,0,1,11.38,8.28ZM9,7.11s0,0,0,0,.06.23.45.51a5.65,5.65,0,0,0,3.84.09,1.64,1.64,0,0,0,.5-1.25A2,2,0,0,0,13,4.75c-.31-.21-.63.1-1.21.72a11.72,11.72,0,0,1-1,1C9.85,7.24,9.24,7.18,9,7.11Z"/><path class="cls-2" d="M6.84,7s-.59.37-1.76-.6S3.33,4.23,2.72,4.65a2.21,2.21,0,0,0-.26,3.21,5.71,5.71,0,0,0,4-.1C7.19,7.22,6.84,7,6.84,7Z"/><path d="M4.42,8.28a5.32,5.32,0,0,1-2-.31,1.86,1.86,0,0,1-.62-1.46,2.17,2.17,0,0,1,.88-2c.5-.34,1,.14,1.53.75a11.25,11.25,0,0,0,1,1c1.07.9,1.61.6,1.62.59l.07,0,.07.05A.33.33,0,0,1,7,7.14c0,.23-.19.47-.55.72A4,4,0,0,1,4.42,8.28ZM3,4.68a.32.32,0,0,0-.2.07A2,2,0,0,0,2,6.5a1.61,1.61,0,0,0,.51,1.25,5.63,5.63,0,0,0,3.83-.09c.39-.28.45-.45.45-.51v0c-.24.07-.85.13-1.8-.66a11.72,11.72,0,0,1-1-1C3.54,5,3.24,4.68,3,4.68Z"/><path class="cls-2" d="M11.61,4.16A2,2,0,0,1,12,3.6a1.44,1.44,0,0,1,.69-.38.92.92,0,0,1,.91.15.75.75,0,0,1,.22.43.7.7,0,0,1,0,.25.56.56,0,0,1,0,.12l0,.06,0,0,0,0,0,0-.06-.08s0,0,0,0h0l-.05,0-.09,0-.16,0-.22,0a.19.19,0,0,1-.13-.06A.3.3,0,0,0,12.77,4a.87.87,0,0,0-.23,0,1,1,0,0,0-.28,0,2.66,2.66,0,0,0-.58.2Z"/><path class="cls-2" d="M7.69,8.16a.23.23,0,1,1-.45,0c0-.12.1-.36.22-.36S7.69,8,7.69,8.16Z"/><path class="cls-2" d="M8.36,8.16a.23.23,0,1,1-.45,0c0-.12.1-.36.22-.36S8.36,8,8.36,8.16Z"/></g></svg>