<svg xmlns="http://www.w3.org/2000/svg" viewBox="0 0 648 144"><defs><style>.cls-1{fill:#e6c242;}.cls-2{fill:#92187b;}.cls-3{fill:#17192e;}.cls-4,.cls-5{fill:#fff;}.cls-5{stroke:#000;stroke-miterlimit:10;}.cls-6{fill:#4c4c4e;}</style></defs><title>LawfulEvilSticker_PY_9x2</title><g id="Main"><rect class="cls-1" width="648" height="144"/><path class="cls-2" d="M68,37.4c.13,0,.51.28,1.14.85h.35a4,4,0,0,1,2.39-.65c0,.1.32.45,1,1v.6H70.47q-2,0-2,.6h2.79c.69.83,1.12,1.24,1.29,1.24.3-.66.53-1,.7-1h.4a3.15,3.15,0,0,1,1.09,1.84h.55l1.69-1.19a1.32,1.32,0,0,0,.55.2,6.83,6.83,0,0,1,2.94-.65l.2.45-1.1,1.59v2.89c0,.3-1.72,1-5.18,2.24l.35-.2a9.18,9.18,0,0,0,1.7.2h.69c.27,0,.4.17.4.4l-.2,1H79c.16,0,.34.22.54.65v.2l-.39.6q.19.6.39.6a16.86,16.86,0,0,0-.39,3.48c.26,0,.39.17.39.4s-.06.4-.2.4l.2,1.44v1.85l-.39.59v1.65c0,.26.16.4.39.4l-.2,1.39v.45l.2,1.19c0,.14-.06.2-.2.2l.2,1.45v.6l-.2,1.24a1.51,1.51,0,0,1,.2.8l-.2.79.2,1a1.61,1.61,0,0,0-.2.8c.27,0,.45.35.55,1A24.54,24.54,0,0,1,79,74.9l.15.4v1.25c.63,0,.94.61.94,1.84-.63.73-.94,1.19-.94,1.39s-.12.4-.35.4v.45a1.83,1.83,0,0,0,.35.6l-.75.6.2,1.44-.2,1.39a28,28,0,0,1,.75,3.89v.6c0,.3-.12.44-.35.44l-.4-.19v2.24l1.14,1.19v1.84a9.18,9.18,0,0,0,.35,1.85c-.1,1.49-.28,2.24-.55,2.24H78.24l-.55-.4h-.4a1.62,1.62,0,0,0-1.09,1.39h-.4c-.1,0-.58-.06-1.45-.19l-.39.59v.25c0,.27.16.4.39.4l.75-.65H76v.45c0,1-.93,1.63-2.79,1.79h-1.1l-.35-.19.15-.4v-.2H69.17a1.24,1.24,0,0,1-.74,1.24h-2c-1.23,0-1.85.14-1.85.4l-.94-.2H60.46a.18.18,0,0,1-.2-.2,2.65,2.65,0,0,1-1.44.4H55.28a14.36,14.36,0,0,0-1.49.4h-.9v-.4c.6-.36.9-.65.9-.85v-.59H54c.27,0,.4.2.4.59h1.85a4.7,4.7,0,0,1,1.29-1c0,.13,0,.2.15.2l-.15.4v.2a1.77,1.77,0,0,1,1.3.44H59a4.51,4.51,0,0,1,3-1.44c0-.27.15-.4.35-.4a1,1,0,0,0-.75-.85c-1.59.14-2.88.2-3.88.2a1.83,1.83,0,0,1-1.3.65h-.14a4.43,4.43,0,0,0-.55-.4h-1.5a3.16,3.16,0,0,0-1.29,2h-.2c-.2,0-.5-.74-.9-2.24-1.29-.13-2-.2-2.24-.2l-.4.2c-.73-.13-1.09-.26-1.09-.4l-1.5,1h-.35l-.74-.65H44a1.08,1.08,0,0,0-.69.25c-.14,0-.2-.08-.2-.25a67.5,67.5,0,0,0-8.52.85,5.28,5.28,0,0,0-1.29-.2c-.1,0-.6.07-1.5.2v-.2a2,2,0,0,1-1.09.4,12.26,12.26,0,0,1-1.5-.4q-1.79,0-5.73.4a1.61,1.61,0,0,1-.2-.8h-2c-.26,0-.4-.15-.4-.45,0-.66.17-1,.4-1l-.2-1c0-.36.07-1.71.2-4-.26,0-.4-.15-.4-.45s.07-.4.2-.4l-.2-2V89l.4-.6V86.71c0-.67-.13-1-.4-1l.2-1.25c0-1.36-.06-3-.2-5.08a9.28,9.28,0,0,0,.2-1.64l-.2-.4.2-1-.2-1.45a1.5,1.5,0,0,0,.2-.79.36.36,0,0,1-.4-.4v-2a5.17,5.17,0,0,0,.75-2.25L21.26,69v-1.4c-.63,0-.94-.81-.94-2.44,0-.43.31-.65.94-.65v-1l.35-.6v-.2a2.43,2.43,0,0,1-.35-.65v-.2a5.13,5.13,0,0,0,.7-1v-.2a2.6,2.6,0,0,1-.35-.65A15,15,0,0,1,22,58a38.15,38.15,0,0,1-.7-5.08v-.6l.15-.4.4.2H22V49.45a2.58,2.58,0,0,1-1.1-1.84V46.17a5.88,5.88,0,0,0-.34-2.25c.06-1.89.24-2.84.54-2.84h.55a2.08,2.08,0,0,1,1.3.6c.13-.4.49-.6,1.09-.6h4.83c.13,0,.82.14,2,.4a26.78,26.78,0,0,0,3.34-.4c0,.2.18.4.55.6h.15a20.62,20.62,0,0,1,6.67-.79l.4.19.9-.39.94.2a18.35,18.35,0,0,0,6.48-1,6.17,6.17,0,0,1,.75.2l2.39-.2.2.4a1.43,1.43,0,0,0-.2.65,1.53,1.53,0,0,1,1.09,1.39c.73-.73,2.09-1.2,4.09-1.39,0-.57.54-1,1.64-1.25a.18.18,0,0,1,.2-.2h1.29l.55.4a9.82,9.82,0,0,0,1.5-.4c1.22.4,1.84.88,1.84,1.45a2,2,0,0,1,1.09.39l.2-.39a2.88,2.88,0,0,1-.2-1.45h.6v-.2l-.94-.79A1.68,1.68,0,0,1,68,37.4ZM22.56,42.48a6.47,6.47,0,0,0,.15.85,2,2,0,0,1-.15.79c.1,3,.33,4.49.69,4.49v-3c0-.73,0-1.9-.14-3.49h-.2C22.67,42.15,22.56,42.28,22.56,42.48Zm.15,9v1.2h.2c.23,0,.34-.2.34-.6a2,2,0,0,1-.14-.6Zm.2,2.84-.2.4c0,.27.16.4.4.4h.14v-.4C23.25,54.47,23.14,54.33,22.91,54.33Zm0-4.68v.4h.34v-.8A.36.36,0,0,0,22.91,49.65ZM36.65,88.3c.53,1.46,1.33,2.19,2.39,2.19H60.16q2.79,0,2.79-5.58c0-1.09-.8-1.82-2.39-2.19H45.82l-.4-.2q4.38-24.3,5.38-30.88c-.57-1.32-1.37-2-2.39-2h-3c-1.56,0-2.49,1.4-2.79,4.18ZM43.43,37h.19a.37.37,0,0,1,.35.4l-.35.2h-.19Zm2,4.48-.2.4q0,.15.6.6a1.24,1.24,0,0,1,.54-.2v-.6Zm15-3.68c.73.1,1.09.31,1.09.65s-.11.39-.34.39H59.16v-.59h.4l.35.2C59.91,38.25,60.09,38,60.46,37.8Zm-.55,2.89v.39h.55c0-.26-.12-.39-.35-.39Zm1.1.39c0,.27.16.4.4.4H62c.23,0,.35-.13.35-.4v-.59h-.75C61.39,40.49,61.21,40.69,61,41.08ZM62.3,37.8h.2c.86.4,1.3.68,1.3.84a4.13,4.13,0,0,1-1.5.4L62,38.45v-.2C62,38,62.1,37.8,62.3,37.8ZM67.68,100H66c-2.23.2-3.34.49-3.34.85.1,0,.15.07.15.2s.48-.07,1.15-.2a1.49,1.49,0,0,1,.74.2,28.31,28.31,0,0,0,4.43-.6l.9.2v-.2q0-.34-1.29-.84A2.07,2.07,0,0,1,67.68,100Zm3.69.65v.2h1.14V100h-.6C71.75,100,71.57,100.17,71.37,100.6Zm5.38-14.29v.84c0,.27.14.4.34.4h.2a.35.35,0,0,0,.4-.4c-.4,0-.6-.41-.6-1.24A.36.36,0,0,0,76.75,86.31Zm0,3.09.74.59h.2V89h-.6A.42.42,0,0,0,76.75,89.4Zm.19,1.79c0,.43-.06.65-.19.65l.19,2v1.79a9.63,9.63,0,0,1,.35,2h.55l-.15-1a1.84,1.84,0,0,1,.15-.6A20.17,20.17,0,0,0,77.29,92l.2-.85Z"/><path class="cls-2" d="M64.74,77.54h.4v.6a.35.35,0,0,1-.4.4h-.4v-.6C64.38,77.68,64.51,77.54,64.74,77.54Zm.6,5.78h.6l.2.8h-.4a.35.35,0,0,1-.4-.4Zm.4-6.57h.6c0,.53.39,1.06,1.19,1.59h.2v-.6c0-.26-.2-.4-.6-.4v-.2c0-.26.17-.39.4-.39s.47.33,1,1c0,.93-.33,1.4-1,1.4a3.57,3.57,0,0,1-1.79-1.6Zm1.59-26.7.2.4v.4h-.6v-.4C67,50.18,67.1,50.05,67.33,50.05ZM101.4,39.29a5.48,5.48,0,0,1,1.39,1,1.63,1.63,0,0,1,.6-.2,1.43,1.43,0,0,1,.4.8h.4c0-.53.13-.8.4-.8l1,1.19a.38.38,0,0,1,.4-.39,2.35,2.35,0,0,0,1.2.39,3.94,3.94,0,0,1,1.19-.79.88.88,0,0,1,1,1h.2c.1,0,.3-.2.59-.59l1.4.19c0-.26.16-.39.4-.39l4,.59c.3,0,1-.46,2-1.39.93.17,1.4.37,1.4.6l1-.2h.8l.8.6h.4c0-.53.13-.8.39-.8h.8a2.68,2.68,0,0,0,.6,1.19c0,.74,1.13,1.33,3.39,1.8,1.06.5,1.59,1.16,1.59,2v1a11.47,11.47,0,0,1-.4,1.59,2.27,2.27,0,0,1,.4,1.19v5c0,.07.2,1.07.6,3l-.2.4a6.08,6.08,0,0,1,1.59,3.39V92.08q-1,.15-1,.6v4.58c0,.84-.8,1.83-2.39,3l-1.2-.2-.4.2a8.11,8.11,0,0,0-2.79-.4.35.35,0,0,1-.4.4c-.39,0-.59-.06-.59-.2l-1,.2h-1.79a2.24,2.24,0,0,0-.6-.4h-1.2c-.26,0-.39.17-.39.4l-1.4-.2h-.4a1.57,1.57,0,0,0-.79.2c-.14,0-.2-.06-.2-.2l-1.4.2h-.4l-1.19-.2a1.46,1.46,0,0,1-.6.2l-.8-.2-1,.2a1.63,1.63,0,0,0-.6-.2c0,.14-.27.34-.8.6l-2.39-.8H104a2.49,2.49,0,0,1-2.19,1,1.73,1.73,0,0,0-1.4-1.19v-.2h-.2l-.59.39h-.4a1.54,1.54,0,0,0-.2-.59,10.72,10.72,0,0,0-1.2.2l-1-.2a26.7,26.7,0,0,1-4.19.59h-.2c-.26,0-.39-.26-.39-.79h-1.6c-.46.93-1.53,1.39-3.19,1.39a2,2,0,0,0-1,.2l-4.19-.4v-.59a3.09,3.09,0,0,1,1.2-.6c.8-.13,1.19-.47,1.19-1a2.27,2.27,0,0,0-.59-.4,6.09,6.09,0,0,0-3.59.8,1,1,0,0,0-1,.8,1.64,1.64,0,0,1-.8.2v.2l1,.19a3.92,3.92,0,0,0,1.2-.79h.2l-.2.4v.2c.53,0,.8.13.8.39l-.4.2h-.8l-1.39-.2v.2c-.93-.13-1.4-.46-1.4-1h-.2a1.54,1.54,0,0,0-.2.59H76.5a1.82,1.82,0,0,0-1.4-1.79,3.42,3.42,0,0,0-1.79.6h-.2a.18.18,0,0,1-.2-.2l-.4.2h-.2a1.44,1.44,0,0,0-.79-.4v-.8l.59.4h.4v-.2a5,5,0,0,1-1.39-3v-.19c1.06-.87,1.59-1.46,1.59-1.8a1.87,1.87,0,0,0,1.59-1,7.57,7.57,0,0,0-2-1,1.6,1.6,0,0,1-.79.2l-.8-.4-1,.2a10.36,10.36,0,0,1-1.19-.2,1.46,1.46,0,0,1-.6.2l-.4-.6v-1l1.4.2a8.5,8.5,0,0,1,2.59-2,13,13,0,0,0,.79-3l.4-.2,1.2.2.2-.4v-.2h-1l-.6-.4a1.43,1.43,0,0,1-.8.4,1.24,1.24,0,0,1-1.39-1.4l1.2-.79a5,5,0,0,1-.2-.8c.13-.8.33-1.2.59-1.2a4.16,4.16,0,0,0-.59-1.59v-.2l1.59-1.19v-.2c-.27,0-.66-.27-1.2-.8h-.19c0,.53-.14.8-.4.8h-.4c-.27,0-.4-.2-.4-.6s.73-.9,2.19-1.4a5.15,5.15,0,0,0,.8-1c0-.33-.53-.53-1.6-.6a1.54,1.54,0,0,1-.59.2,4.4,4.4,0,0,0-.6-1.39v-1.4a22.35,22.35,0,0,0,.8-2.19h.2c0,.2.19.4.59.6a1.22,1.22,0,0,0,1.4-1.2,10.28,10.28,0,0,1,3.19-1.59v-.2l-1.8-2-3,1.59c-.59-.26-.93-.53-1-.8.66-.43,1-.83,1-1.19a3.42,3.42,0,0,1,1.2-1.6c-.53-.26-.8-.59-.8-1s.27-.6.4-.6a2.63,2.63,0,0,0-1.19-2.39c0-.33-.27-.53-.8-.6a5,5,0,0,1-.8.2,1.53,1.53,0,0,0-.6-.2v-.4c0-.26.17-.39.4-.39l.4.19a15,15,0,0,0,3.39-1.79q.6,0,1-1c.54-.24,1.07-1,1.6-2.39,1.72-.5,2.59-1,2.59-1.4a10.22,10.22,0,0,1-3.19-.8,2.74,2.74,0,0,0-1.59.8l-.2-.4c.53-.13.79-.53.79-1.19l-.39-.2a1.86,1.86,0,0,1-1,.6l-.8-.4-1,.2a7.92,7.92,0,0,1-2-.4,4.21,4.21,0,0,1,.8-1.2l1.4.2h.39a3.09,3.09,0,0,0,1.8-3l.59-.4h.2l.6.4h.2l1-.79h.4l1.39.39c.26-.79.6-1.19,1-1.19a1.54,1.54,0,0,0,.59.2c0-.27.17-.4.4-.4h.2c0,.4.13.6.4.6h.2l2.19-1.8,1.2.2h.39v-.2l-.39-.59v-.6h.59a3,3,0,0,1,1.8,2,2.14,2.14,0,0,0,1.59,1v-.4l-.4-.6v-.2c0-.26.2-.4.6-.4v-.39h-.6v-1a1.43,1.43,0,0,0,.8-.4h.6c.39,0,.59.27.59.8H90c.53-.27.8-.47.8-.6l.4.2a2.12,2.12,0,0,0,.6-.4H92l1.39.8.4-.2a10.77,10.77,0,0,0,1.79.2v.6a10.59,10.59,0,0,0-1.79.19c-.14,0-.2-.06-.2-.19-2.79.19-4.18.46-4.18.79h2.19l1,1c.27,0,.4-.27.4-.8h.4c.2,0,.66.6,1.39,1.79q1.35-1.59,4.59-1.59c0-.13.2-.2.59-.2v-.6a1.6,1.6,0,0,1-1-.39l-.8.19c-1.19-.09-1.79-.23-1.79-.39a.18.18,0,0,0-.2-.2,1.63,1.63,0,0,0,.2-.6h1.19l1,.8c.2-.53.4-.8.6-.8H100a.18.18,0,0,1,.2.2C101,39.76,101.4,39.49,101.4,39.29ZM68.13,56.42h.2v.8h-.2a.35.35,0,0,1-.4-.4C67.76,56.56,67.9,56.42,68.13,56.42Zm.6-7h.39v.6h-.39Zm1.19,12v.79a.35.35,0,0,1-.4.4h-.4l-.39-.2A1.24,1.24,0,0,1,69.92,61.41Zm.6,1.19h.4v.6h-.8V63C70.15,62.73,70.29,62.6,70.52,62.6Zm-.4,26.5v.59h.4c.2,0,.46-.26.8-.79v-.2h-.8C70.25,88.73,70.12,88.87,70.12,89.1Zm2-.8v.6h.2a.35.35,0,0,0,.4-.4v-.2Zm.2-18.53V70c0,.17.33.43,1,.8h.8a.35.35,0,0,0,.39-.4v-.6a5.2,5.2,0,0,1-1.39-.6C72.58,69.37,72.31,69.57,72.31,69.77Zm0,2c0,.27.17.4.4.4h.2v-.4Zm.4-8.36v.4h.6v-.4Zm.4-6.18V58c0,.27.17.4.4.4h.4q-.21-1.2-.6-1.2Zm1,29.29a1.64,1.64,0,0,0-.8-.2l-.2,1a2.24,2.24,0,0,1,.6.4c.93-.36,1.39-.63,1.39-.79v-.4l-.2-.4Zm-1,8.36v.8q.15,1.2.6,1.2l.4-.2-.2-.4v-.6l.2-1.39h-.4C73.51,94.28,73.31,94.48,73.11,94.87ZM75.1,58l.2.4v.4a4.21,4.21,0,0,0-1.79.59v.8a2.51,2.51,0,0,0,2-1.2c.7,0,1.1-.19,1.2-.59v-.2l-1,.2v-.6h-.2Zm-1,4.58v.2c0,.27.16.4.39.4l.2-.4v-.2ZM75.3,47.06v.6c0,.27.17.4.4.4l.4-.2a1.51,1.51,0,0,1-.2-.8Zm1.79,7.57-.2,1h.2a1.29,1.29,0,0,0,1.2-.8l-.2-.4-.4.2Zm1.6-8.17v.6h.6v-.6Zm1.59,43.23v.2c.33,1.6,1.13,2.39,2.39,2.39h3.39q1.74,0,5-5.77a74.24,74.24,0,0,1,4.58-6.38h13.75q.34,0,4,11.36a3.19,3.19,0,0,0,1.79.79h3.59q2.19-.34,2.19-2.19V89.5q-1.4-5.43-12-37.06a3.35,3.35,0,0,0-2-1q-1.91,0-5.38,6.38-.6.41-21.12,31.08A1.6,1.6,0,0,0,80.28,89.69Zm2.39-49.8h1.2v.6c0,.26-.2.4-.6.4l-.4-.2a1.61,1.61,0,0,1-.8.2l-.2-.4v-.2C82.41,40.29,82.67,40.16,82.67,39.89Zm2.19,58.17v.4h.2c.4,0,.6-.07.6-.2l1,.2h1.39a15.66,15.66,0,0,1,2.79-.4c0-.13-.33-.4-1-.8A34.41,34.41,0,0,1,84.86,98.06Zm2-64.94.39.59v.2l-1,.2h-.4a.35.35,0,0,1-.4-.4C85.46,33.42,85.92,33.22,86.86,33.12Zm-1.2,14.94v.2c0,.26.17.4.4.4l.2-.4v-.2Zm5.18-.2-.4-.2a2.27,2.27,0,0,1-1.19.4h-.8v.4a2.25,2.25,0,0,1,1,.39q0-.39.39-.39H90c.27,0,.4.16.4.39l2-.19h6a10.87,10.87,0,0,1,3.39-.8h1.39a.35.35,0,0,0,.4-.4,3.44,3.44,0,0,0-1.59-.6h-1A72.78,72.78,0,0,0,90.84,47.86Zm-2-14.54h.6c0,.19-.2.39-.6.59Zm3,64.54v.2c0,.27.16.4.39.4h.2a.35.35,0,0,0,.4-.4.35.35,0,0,0-.4-.4A1.38,1.38,0,0,1,91.84,97.86Zm.79-65.14h.2c.27,0,.4.16.4.4l-.6.39a2.27,2.27,0,0,1-.4-.59Zm1.2,65.34.4.2a2.27,2.27,0,0,1,1.39-.6v-.2l-1-.2A1.09,1.09,0,0,0,93.83,98.06ZM105.18,66a53,53,0,0,0,2,6.57H100.6C103.32,68.35,104.85,66.15,105.18,66Zm-1.39-18.53.6.4H105v-.4a.35.35,0,0,0-.39-.4h-.4C103.92,47.1,103.79,47.23,103.79,47.46Zm7,49.41v.79h.2a.35.35,0,0,0,.4-.4v-.39Zm1.4.2h2v-.4h-1.6C112.29,96.7,112.16,96.83,112.16,97.07Z"/><path class="cls-2" d="M153.69,39.34h1v.4c-.67.33-1,.6-1,.8v.59h-.2c-.26,0-.39-.19-.39-.59h-2a5.29,5.29,0,0,1-1.39,1,.18.18,0,0,0-.2-.2l.2-.39v-.2a2.11,2.11,0,0,1-1.4-.4h-.19a4.89,4.89,0,0,1-3.19,1.39.35.35,0,0,1-.4.4,1.08,1.08,0,0,0,.8.8c1.72-.14,3.12-.2,4.18-.2a2.29,2.29,0,0,1,1.39-.6h.2l.6.4h1.59a3.23,3.23,0,0,0,1.4-2h.2q.35,0,1,2.19c1.4.13,2.2.2,2.4.2l.39-.2a1.64,1.64,0,0,0,.8.2h.8l1.19-.8h.4l.8.6h1.39l1.2-.2a.18.18,0,0,1,.2.2,72.47,72.47,0,0,0,9-.8,6,6,0,0,0,1.4.2c1-.13,1.49-.2,1.59-.2v.2a2.37,2.37,0,0,1,1.2-.4,13.43,13.43,0,0,1,1.59.4q1.94,0,6.18-.4a1.6,1.6,0,0,1,.19.8h2.2a.38.38,0,0,1,.39.4q0,1-.39,1l.2,1c-.14,2.29-.2,3.62-.2,4,.26,0,.39.17.39.4s-.06.4-.19.4l.19,2v2l-.39.59v1.6q0,1,.39,1l-.19,1.2c0,1.33.06,3,.19,5a10.1,10.1,0,0,0-.19,1.59l.19.4L189,66l.19,1.39a1.6,1.6,0,0,0-.19.8c.26,0,.39.16.39.4v2a5.24,5.24,0,0,0-.79,2.19l.2.4V74.6q1,0,1,2.19c0,.54-.33.8-1,.8v1l-.4.6v.19l.4.6v.2a5.37,5.37,0,0,1-.8,1v.2l.4.59a12.83,12.83,0,0,1-.4,2,32.9,32.9,0,0,1,.8,5v.59l-.2.4-.4-.2H188v2.59a2.4,2.4,0,0,1,1.19,1.8v1.39a5,5,0,0,0,.4,2.19c-.1,1.86-.3,2.79-.59,2.79h-.6a2.29,2.29,0,0,1-1.4-.6q-.09.6-1.59.6h-4.78a21.83,21.83,0,0,1-2.19-.4,34,34,0,0,0-3.59.4q0-.3-.6-.6H174a23.25,23.25,0,0,1-7.17.8l-.4-.2-1,.4-1-.2a21.86,21.86,0,0,0-7,1,5,5,0,0,0-.8-.2c-.07,0-.93.06-2.59.2l-.2-.4a1.63,1.63,0,0,0,.2-.6c-.8-.33-1.19-.8-1.19-1.39-.77.73-2.23,1.19-4.39,1.39,0,.53-.59.93-1.79,1.2a.18.18,0,0,1-.2.2h-1.39a2.12,2.12,0,0,0-.6-.4,14.32,14.32,0,0,0-1.59.4c-1.33-.4-2-.87-2-1.4a2.27,2.27,0,0,1-1.19-.4l-.2.4a2.69,2.69,0,0,1,.2,1.4h-.6v.19l1,.8a1.9,1.9,0,0,1-1.8,1,4.09,4.09,0,0,1-1.19-.8h-.4a4.87,4.87,0,0,1-2.59.6c0-.1-.33-.43-1-1v-.6h2.59c1.46,0,2.2-.19,2.2-.59h-3c-.77-.8-1.23-1.2-1.4-1.2-.33.67-.6,1-.79,1h-.4c-.8-.73-1.2-1.33-1.2-1.79h-.6l-1.79,1.19a1.53,1.53,0,0,0-.6-.2q-.45.4-3.18.6l-.2-.4L126,99.31V96.52q0-.55,8.37-1c0-.13.46-.26,1.39-.4a1.58,1.58,0,0,1,.6.2,16.14,16.14,0,0,1,2.19-.2h.8v-.2c0-.16-.47-.43-1.39-.79l-.6.4h-.2l-.6-.4a32.59,32.59,0,0,1-4.18.4,5,5,0,0,0-.8-.2l-.4.2a9.79,9.79,0,0,0-1.79-.2h-.8a.36.36,0,0,1-.4-.4l.2-1H126.6q-.3,0-.6-.6v-.2a2,2,0,0,0,.4-.59c-.13-.4-.27-.6-.4-.6a15.39,15.39,0,0,0,.4-3.39.35.35,0,0,1-.4-.4c0-.39.07-.59.2-.59l-.2-1v-2l.4-.6V81.38a.35.35,0,0,0-.4-.4l.2-1.4v-.39L126,78a.18.18,0,0,1,.2-.2L126,76.4v-.6l.2-1.2a1.57,1.57,0,0,1-.2-.79,6.66,6.66,0,0,0,.2-.8l-.2-1a1.57,1.57,0,0,0,.2-.79c-.3,0-.5-.34-.6-1a23,23,0,0,1,1-2.79l-.2-.4V65.84c-.66,0-1-.6-1-1.8.67-.73,1-1.19,1-1.39a.35.35,0,0,1,.4-.4v-.4a2,2,0,0,1-.4-.59c0-.2.27-.4.8-.6l-.2-1.4.2-1.39a27.11,27.11,0,0,1-.8-3.79v-.59c0-.27.17-.4.4-.4l.4.2V51.1L126,49.9V48.71a13.17,13.17,0,0,0-.4-2.59c.1-1.33.3-2,.6-2h1.2a1.41,1.41,0,0,0,.79.4,2.5,2.5,0,0,0,1.6-1.39h.2c.13,0,.66.06,1.59.2l.4-.6v-.2a.35.35,0,0,0-.4-.4l-.8.6h-1v-.4c0-1,1-1.63,3-1.79H134l.4.2-.2.39v.2h3a1.15,1.15,0,0,1,.8-1.19h2.19c1.32,0,2-.13,2-.4l1,.2h3.39a.18.18,0,0,1,.2.2,3.29,3.29,0,0,1,1.59-.4h3.79A11.47,11.47,0,0,0,153.69,39.34Zm-25.9,5.78.2,1a1.38,1.38,0,0,1-.2.59,23.52,23.52,0,0,0,.6,4,5,5,0,0,1-.2.79h.6c0-.39.07-.59.2-.59l-.2-2V47.11a8.75,8.75,0,0,1-.4-2Zm.2,7.57v1h.6a.35.35,0,0,0,.4-.4l-.8-.6Zm0,2.79c.4,0,.6.4.6,1.19a.35.35,0,0,0,.4-.39v-.8a.35.35,0,0,0-.4-.4h-.2C128.13,55.11,128,55.25,128,55.48Zm5.58-13.35v.8h.6q.3,0,.6-.6v-.2Zm3.59.4-1-.2v.2c0,.2.47.46,1.4.8a2.27,2.27,0,0,1,1.19-.4h1.79c2.4-.17,3.59-.43,3.59-.8a.18.18,0,0,1-.2-.2c-.7.13-1.09.2-1.19.2a1.61,1.61,0,0,1-.8-.2A30.79,30.79,0,0,0,137.16,42.53Zm-.8,11.35q2.59,36,3,37.66a2.53,2.53,0,0,0,2,1.19h.2q2,0,4.78-6.17,3.5-5.28,10.56-17.73h.4q5,20.86,5.78,23.11a3.14,3.14,0,0,0,1.79.79h.2q2.19,0,4.18-6.57,13.35-30.48,13.35-31.68v-.2q-.35-2.19-2.19-2.19H177.2c-1.39,0-2.59,1.79-3.58,5.38q-.51.64-6.78,15.74h-.4q-4.38-19.62-5.18-20.32a3.16,3.16,0,0,0-1.79-.8c-1.29,0-2.89,2.06-4.78,6.18q-2.3,3.28-8.77,14.74h-.39q-1.2-15.95-1.6-19.72a2.51,2.51,0,0,0-2-1.2h-3.19C137.86,52.09,137.06,52.69,136.36,53.88Zm6,40.65v.19c0,.27.16.4.4.4h.39v-.59Zm2.19,8,.4.6v.2a.35.35,0,0,1-.4.4h-.2c-.93-.37-1.39-.63-1.39-.8A5,5,0,0,1,144.53,102.49Zm0-2v.6h.8c.2,0,.39-.2.59-.6a.35.35,0,0,0-.39-.4h-.6C144.66,100.14,144.53,100.27,144.53,100.5Zm1.19,2.19h2.2v.6h-.4l-.4-.2q0,.3-.6.6c-.7,0-1.09-.2-1.19-.6S145.49,102.69,145.72,102.69Zm.8-2.19c0,.27.17.4.4.4h.2v-.4Zm15.14-1.19v.59l1,.2.2-.39q0-.15-.6-.6A1.63,1.63,0,0,1,161.66,99.31Zm3,4.58h.2v.6h-.2a.35.35,0,0,1-.4-.4Zm21.91-17.13v.39c0,.27.17.4.4.4l.2-.4a.35.35,0,0,0-.4-.39Zm0,3a1.46,1.46,0,0,1,.2.6h.4V89.15H187C186.7,89.15,186.56,89.35,186.56,89.74Zm0,2v.79a.35.35,0,0,0,.4-.4v-.39Zm0,1.39v3c0,.7.07,1.83.2,3.39h.2a.35.35,0,0,0,.4-.4,6.66,6.66,0,0,1-.2-.8,1.64,1.64,0,0,1,.2-.8C187.23,94.59,187,93.13,186.56,93.13Z"/><path class="cls-2" d="M174.76,77.64h.4v.6a.35.35,0,0,1-.4.4h-.4V78C174.4,77.78,174.53,77.64,174.76,77.64Zm.6,5.78h.4c.2,0,.4.2.59.6l-.39.2q-.3,0-.6-.6Zm.8-6.58c.83,1.07,1.36,1.6,1.59,1.6a.35.35,0,0,0,.4-.4l-.8-1,.4-.2,1.19,1.2c-.26.83-.59,1.29-1,1.39a4.83,4.83,0,0,1-2.19-2v-.2C175.79,77,175.92,76.84,176.16,76.84Zm1.19-26.29h.2c.27,0,.4.16.4.4a1.94,1.94,0,0,1-.6.39Zm20.12-11.36a43.78,43.78,0,0,0,4.58.4V40l-.59.8.2,1h.79c2.13,0,3.39-.2,3.79-.6H209l.39-.19-.19-1v-.2h1.39a10.28,10.28,0,0,0,2.19,2,10.39,10.39,0,0,1,1.6-.2,3.54,3.54,0,0,1,1.19.4,1.58,1.58,0,0,1,.6-.2v-.6c0-.13-.07-.19-.2-.19a1.63,1.63,0,0,0,.2-.6h1.59v.4l-.4.59v.2h.6a.18.18,0,0,0,.2-.2,2.28,2.28,0,0,0,1.2.4h1v-.2L220,41l.4-.2h.4l1.2,1h.39a.74.74,0,0,1,.4-.6,2.28,2.28,0,0,0,1.2.4h.4v-.4h-.6l.6-.79a7.48,7.48,0,0,0,2.79.6.17.17,0,0,0,.19.19h1.8a15.6,15.6,0,0,1,1.59-.39h2.39a3.51,3.51,0,0,1,1.6.59,15.49,15.49,0,0,0,2.39-.39c.89.36,1.36.63,1.39.79l.4-.2a1.38,1.38,0,0,0,.6.2c.06-.26.4-.53,1-.79,1.6.49,2.39,1.09,2.39,1.79.17,0,.5-.66,1-2h.4V41a10.77,10.77,0,0,1-.2,1.79,1.61,1.61,0,0,1,.2.8c-.14.39-.27.59-.4.59l.2.4v.6a3.72,3.72,0,0,0-.8,2.19l.2.4-.4.8h.2a2.37,2.37,0,0,0-.4,1.19l.4.2h.6a5.37,5.37,0,0,1,1-.8h.39l.4.2c0,.53-.6,1.13-1.79,1.8a1.59,1.59,0,0,1-.6,1.19v.2h.4a.18.18,0,0,0,.2-.2l.4.2,1-.2.2.4v.4l-.79,1.19a8.29,8.29,0,0,0,1.19,1.8v.2a.35.35,0,0,1-.4.39,1.57,1.57,0,0,0-.79-.2,2.83,2.83,0,0,0-.6,1.6c1.19.3,1.79.56,1.79.8v.59a1.75,1.75,0,0,0-1.19.4,2.35,2.35,0,0,1,.39,1.2v.2a2.4,2.4,0,0,0-.79,1.59c.26,0,.4.17.4.4a1.26,1.26,0,0,0-1.2,1,6.19,6.19,0,0,0-2,3v.6l.8-.6h.39v.6l-1.19,1.39v.8a3,3,0,0,0,1.19.4v.2c0,.93-.26,1.39-.79,1.39a4.22,4.22,0,0,0,1.19,2.19v.2a.35.35,0,0,1-.4.4,1.57,1.57,0,0,0-.79-.2l-.4.6v1.2c1,0,1.53.2,1.59.59v.6a2.37,2.37,0,0,0-1.19.4,2.37,2.37,0,0,1,.4,1.2v.19l-.8,1V81h.4v.2c0,.2-.34.4-1,.6,0,.53-.2.79-.6.79v.6h1.4c.26,0,.4.17.4.4s-.6.43-1.8.6a19.52,19.52,0,0,0-.79,2.39c0,.2.2.39.59.59l1-.2.2.4-.4.6v.2h.2l1-.6a.18.18,0,0,1,.2.2l.39-.2c.17,0,.5.4,1,1.2h.2c0-.67.13-1,.4-1h.79q.3,0,.6.6v.2h-.4l-.59-.4-.2,1.79h.2c0,.17-.34.5-1,1a2.29,2.29,0,0,1,.6,1.39v.8a.35.35,0,0,1-.4.4q-.6-.15-.6-1.59v-.8h-.4a.38.38,0,0,0-.39.4c0,.1.06.49.19,1.19a1.56,1.56,0,0,0-.19.6c.36,1.2.69,1.79,1,1.79s.73.4,1,1.2a1.63,1.63,0,0,1-.2.6l.2,1.19v.2q0,1.44-.6,1.59l.2.8c-.23,1.06-.5,1.59-.8,1.59h-.4a12.1,12.1,0,0,0-3-1.59.18.18,0,0,0-.2.2l-1-.2h-2.59l-.6.4a1.57,1.57,0,0,1-.79-.2,5.29,5.29,0,0,1-3.39,1.2c0,.13-.07.19-.2.19h-1.39a2.37,2.37,0,0,0-1.2.4l-1.2-.59-.39.19a10.32,10.32,0,0,0-1.6-.19l-.79.39c-.54-.1-.8-.23-.8-.39l-1,.19a12.31,12.31,0,0,0-1.59-.39c0,.33-.67.53-2,.59a1.38,1.38,0,0,1-.2-.59H214.8a2.35,2.35,0,0,0-1.19.39c-1.07-.16-1.6-.43-1.6-.79l-.39.2h-1.4a.18.18,0,0,1-.2-.2l-.4.2-1-.2a10.8,10.8,0,0,1-3.79.79h-.2c-.26,0-.39-.26-.39-.79h-1.2c-.67,0-1-.13-1-.4l-1,.2h-1.2l-1.79-.4a9.55,9.55,0,0,0-2,.4.35.35,0,0,0-.4-.4,2.75,2.75,0,0,0-1.4,1l-.79-.6h-.4a.18.18,0,0,0-.2.2,17.61,17.61,0,0,0-3-.8h-.2a2.27,2.27,0,0,0-1.79,1,4.21,4.21,0,0,1-1.2-.8c-.1,0-.43.33-1,1h-.2l-.6-.4h-.2a.88.88,0,0,1-1,1l-.4-.2a1.7,1.7,0,0,0,.2-1c-.67-.17-1-.37-1-.6l1.39-2c-.13,0-.19-.07-.19-.2l-.4.2q-1.2-.49-1.2-1.2l.4-.2q0,.3.6.6l.2-.4v-.2c-.67,0-1.2-.92-1.6-2.78,0-.47.53-.8,1.6-1V91.79c0-.27.16-.4.4-.4a1.46,1.46,0,0,1-.2-.6c-2.93-.13-4.39-.26-4.39-.4a1.48,1.48,0,0,1-.79.2c-.4-.13-.6-.53-.6-1.19a2.24,2.24,0,0,0,.6-.4l.59.4h.2a10.1,10.1,0,0,1,3-2l1.2-3,.4-.2,1.19.2.2-.4v-.2h-1l-.59-.4h-.2a1.43,1.43,0,0,1-.8.4,1.71,1.71,0,0,1-1.59-1v-.4c.79-.43,1.19-.89,1.19-1.39a2.05,2.05,0,0,1,.4-1.4v-.2c0-.13-.07-.19-.2-.19l.2-.4-.4-.6v-.6c0-.33.53-.53,1.6-.6v-.2c-.54-.39-.8-.72-.8-1h-.8a5,5,0,0,1-.2.8h-.6a.35.35,0,0,1-.39-.4v-.4c0-.5.79-.9,2.39-1.2l.79-1v-.4l-2-.2h-.6a2,2,0,0,0-.59-1.59v-.8a6,6,0,0,0,1-2.39h.2c.27,0,.4.2.4.6,1.06,0,1.59-.27,1.59-.8a4,4,0,0,1,3-1.59h.6a6.66,6.66,0,0,0,.2-.8l-2.19-1.79a6.85,6.85,0,0,1-2.59,1.19.35.35,0,0,1-.4.4h-.2a1.43,1.43,0,0,0-.8-.4v-.8c.73,0,1.2-.59,1.4-1.79.53,0,.79-.13.79-.4v-.4c-.53,0-.79-.2-.79-.59a2.37,2.37,0,0,0,.4-1.2c0-.73-.6-1.53-1.8-2.39h-1.79c0-.26-.07-.4-.2-.4a1.53,1.53,0,0,0,.2-.6,1.64,1.64,0,0,1,.8.2q2.83-.88,3.18-1.59a1.63,1.63,0,0,1,.6-.2v.2a12.29,12.29,0,0,0,3-3.59c.53,0,.8-.2.8-.59,0-.8-.47-1.2-1.4-1.2a.35.35,0,0,0-.4-.4,5.87,5.87,0,0,0-1.59,1l-.2-.4v-.2c.53,0,.8-.33.8-1l-.4-.19a2.24,2.24,0,0,1-1.2.59,2.23,2.23,0,0,0-1-.4l-1,.2c-1.33-.1-2-.29-2-.59v-.2c.07-.27.4-.53,1-.8a10.66,10.66,0,0,0,1.79.2c1.19-.73,1.79-1.39,1.79-2h-.2c.27-.93.67-1.4,1.2-1.4l.8.4a3,3,0,0,1,1.79-.8,1.38,1.38,0,0,1,.2-.59l-.2-1.2a.35.35,0,0,0,.4-.4l2,.2h.2a10.09,10.09,0,0,0,2-.2l1.2.2a10.74,10.74,0,0,0,1.19-.2,6.19,6.19,0,0,0,1.59.2,1.86,1.86,0,0,0,.4-.6c-.2,0-.4-.19-.59-.59C196.77,39.66,197.11,39.19,197.47,39.19ZM178.15,56.72h.2c.26,0,.4.17.4.4v.2a.35.35,0,0,1-.4.4l-.2-.4Zm1-6.77h.2c.27,0,.4.17.4.4l-.4.2h-.2Zm1,11.75h.2v1.2a6.66,6.66,0,0,1-.8.2l-.2-.4v-.2C179.34,62.3,179.61,62,180.14,61.7ZM181.53,102h.2c.27,0,.4.16.4.39-.26,0-.4.17-.4.4v.2c.27,0,.4.07.4.2l.4-.2,1.79.2a7.75,7.75,0,0,1,1.8-.4c.2,0,.39.2.59.6,0,.2-.2.4-.59.6h-4.39q-1.44,0-1.59-.6C181.07,102.91,181.53,102.44,181.53,102Zm-1-12.75c0,.26.16.39.4.39h.39c.2,0,.4-.19.6-.59v-.2h-1C180.67,88.83,180.54,89,180.54,89.2Zm.6-26.3h.39v.6h-.39a.35.35,0,0,1-.4-.4Zm1.79,25.5V89h.2a.35.35,0,0,0,.4-.4v-.2Zm.2-18.33v.4a5.39,5.39,0,0,0,1.59.6h.4a.35.35,0,0,0,.4-.4v-.6a7.19,7.19,0,0,0-1.6-.6C183.39,69.67,183.13,69.87,183.13,70.07Zm.4-6.17v.19h.59a1.54,1.54,0,0,1-.2-.59C183.66,63.53,183.53,63.66,183.53,63.9Zm.39-6.18v.6c0,.26.17.4.4.4h.4l-.2-1Zm.2,28.69a1.38,1.38,0,0,1-.2.59,1.46,1.46,0,0,1,.2.6h.8c.8-.33,1.2-.73,1.2-1.19h-.2c-.14,0-.2.06-.2.2l-.4-.2-.4.2A1.51,1.51,0,0,0,184.12,86.41Zm-.2,8.56v.8c0,.27.17.4.4.4V94.58C184.06,94.61,183.92,94.74,183.92,95Zm2.4-36.85c0,.8-.14,1.19-.4,1.19v-.2a3.43,3.43,0,0,1-1.6.6v.8h.4a.35.35,0,0,0,.4-.4l.4.2c.53-.27.8-.6.8-1h.19a.18.18,0,0,1,.2.2c.8-.26,1.2-.53,1.2-.79a.18.18,0,0,1-.2-.2l-.4.2h-.4c0-.4-.13-.6-.4-.6Zm-1.2,4.78v.2c0,.27.17.4.4.4l.2-.4-.4-.2Zm.6,35.06v.4l1.19.2v-.4A10.36,10.36,0,0,1,185.72,98Zm.6-50c0,.2.19.4.59.6h.2v-1h-.4A.38.38,0,0,0,186.32,48Zm1.39,54.19h.6v.39a.35.35,0,0,1-.4.4h-.2a.35.35,0,0,1-.4-.4A.38.38,0,0,1,187.71,102.15Zm6.77-62.76c.8.14,1.2.33,1.2.6v.4c-.14.4-.53.6-1.2.6H191.3l-1.2-.2a2.05,2.05,0,0,1-1,.2l-.19-.4v-.2c0-.3.72-.5,2.19-.6a2,2,0,0,0,1,.2C192.09,39.59,192.89,39.39,194.48,39.39Zm-3,62.36h.59a1.56,1.56,0,0,0,.4,1,3,3,0,0,0-.4,1.2H190.9c-.47-.8-1-1.2-1.6-1.2h-.2v-.59l1.4.19Zm13.34-5V98h-.79c-.1,0-.64.14-1.6.4h-.2c-.3,0-.5-.33-.59-1a37.87,37.87,0,0,1-7.18,1,3.38,3.38,0,0,0-1.59-.4h-.2q-.3,0-.6.6v.2h1.2c.66,0,1,.17,1,.4,2-.27,3.16-.4,3.59-.4l.8.4,1.39-.2a16.14,16.14,0,0,0,2.19.2l-.2.4V100c0,.2.27.4.8.6,0-.23.6-.56,1.79-1l1.2.59A1.36,1.36,0,0,1,207.23,99h1.4a.35.35,0,0,0,.4-.4l-1.4-.8c-1.33,0-2-.33-2-1ZM197.27,89c.53,1.46,1.33,2.19,2.39,2.19h3.19q2.15,0,2.59-4,.41-3.14,2.19-12.75h16.14c1.86,0,2.79-1.85,2.79-5.57-.57-1.33-1.36-2-2.39-2H209l1.39-9h16.34c1.72,0,2.59-1.59,2.59-4.78.13,0,.2-.27.2-.8-.57-1.33-1.37-2-2.39-2H206q-2.34,0-2.79,4.18Zm1-47.82v.2c0,.27.16.4.4.4h1v-.4l-1-.2Zm3.58,55.19-.39.6.39.2q.3,0,.6-.6A1.63,1.63,0,0,1,201.85,96.37Zm1.4-56.58h.2a1.46,1.46,0,0,0,.2.6,1.53,1.53,0,0,0-.6.2l-.2-.4C202.88,39.92,203,39.79,203.25,39.79ZM207,105.33l1,.2v.2c-.53,0-.8.17-.8.4-.53-.2-.79-.4-.79-.6A1.38,1.38,0,0,0,207,105.33Zm1.8.2h.59q.3,0,.6.6l-.4.2h-.39a.35.35,0,0,1-.4-.4Zm5.58,0c0,.47-.54.8-1.6,1l-1-.2h-1.2v-.6C212.41,105.6,213.67,105.53,214.41,105.53Zm2,0h2a3.27,3.27,0,0,1,2.39,1,2.08,2.08,0,0,1-.6.4H220l-.59-.4h-.6c-.14,0-.2.06-.2.2a2.14,2.14,0,0,0-1-.4l-1.19.6c-.53-.2-.8-.4-.8-.6S215.87,105.87,216.4,105.53Zm7.77.6.2.4v.2a1.38,1.38,0,0,0-.6.2,1.46,1.46,0,0,0-.6-.2.18.18,0,0,0-.2.2c-1.19-.14-1.79-.34-1.79-.6C222.51,106.2,223.5,106.13,224.17,106.13ZM235.32,99v.4h1.2a.36.36,0,0,0,.4-.4l-1-.2A1.58,1.58,0,0,1,235.32,99Zm6-4.38.4.19v-.59C241.43,94.21,241.3,94.34,241.3,94.58Z"/><path class="cls-2" d="M273.57,41.33c.53,0,.8.34.8,1h1.2v.4a14.32,14.32,0,0,1,1.59-.4c0,.2.26.46.8.8h.2l.59-.4h.2a11.44,11.44,0,0,1,2,.4c0-.27,1.93-.53,5.78-.8a1.61,1.61,0,0,1,.2.8h2.59a2.42,2.42,0,0,1,1.79-1.2h1.4a8.79,8.79,0,0,0,2.39-.4q2.79.15,2.79.6v1.2l-.4.59a2.4,2.4,0,0,1,.4,1.2v2a2,2,0,0,0,.2,1,24.17,24.17,0,0,1-.6,4.18v.6a2.27,2.27,0,0,0,.4,1.19l-.2.4.2,1.2v.2l-.4.59v.8a1.86,1.86,0,0,0,.4.6v1.59a4.89,4.89,0,0,0,.4,2.19,1.53,1.53,0,0,0-.2.8,1.46,1.46,0,0,0,.2.6.18.18,0,0,1-.2.2l.4,5.58a1.38,1.38,0,0,0-.2.59l.79,3.59a1.46,1.46,0,0,1-.2.6,9.79,9.79,0,0,1,.2,1.79v.4l-.2.4-.39-.2a4.39,4.39,0,0,1-1.6,1.19c0,.47.33.93,1,1.4V80q0,1.5,1,1.8a9,9,0,0,1,.8,2.59v.19l-.6.8a2.28,2.28,0,0,1,.4,1.2v.2A2.59,2.59,0,0,1,298.08,89a10.36,10.36,0,0,0-.2,1.19l1.39-.4c.2.54.4.8.6.8h.2c.1-.66.3-1,.6-1,.46,0,.79.67,1,2l-1,1a5.22,5.22,0,0,1,.79,2.59c0,.43-.46.9-1.39,1.4l-.2-.4v-.8c0-2.39-.2-3.58-.6-3.58h-.2v3c-.66.54-1,.87-1,1v.2l1,.8v.2c0,.16-.66.76-2,1.79a5.16,5.16,0,0,1,1.4,3.19c.13,0,.19.06.19.2v2a.35.35,0,0,1-.39.4l-1.6-1.2h-2.79q-.45,0-2.19-2.79,0,.3-.6.6h-1v1.79a.35.35,0,0,1-.4.4h-.6a2.08,2.08,0,0,0-.6-.4.35.35,0,0,1-.39.4h-.2c-.2,0-1.27-.13-3.19-.4a.35.35,0,0,1-.4.4h-.6a.18.18,0,0,1-.2-.2l-.39.2h-2.79l-.6-.4h-1.59c-.27,0-.4.17-.4.4l-1.8-.2-1.39.2a.18.18,0,0,1-.2-.2l-1,.2h-1l-1.2-.2a2,2,0,0,1-1,.2,1.53,1.53,0,0,1-.6-.2l-1,.2-1-.2c0,.4-.14.6-.4.6h-.8l-2.19-.8h-2c0,.67-.67,1-2,1-.17,0-.5-.33-1-1-.53,0-.8-.13-.8-.4H258l-.59.4a5,5,0,0,0-1-.79,1.47,1.47,0,0,1-.8.39c-.93,0-1.39-.13-1.39-.39a19,19,0,0,1-5.18.79.18.18,0,0,0-.2-.2l.2-.4v-.19h-2.19c-.37.93-1.76,1.39-4.19,1.39a2.38,2.38,0,0,1-1.19.2c-1.2-.1-1.79-.3-1.79-.6v-1l.39-.6v-.4a2.38,2.38,0,0,0-1.39-1.39v-1.2l.2-.4-.8-.6c-.26,0-.4.17-.4.4v.2l.6.8v.4a.35.35,0,0,1-.4.4c-1.19,0-1.79-1-1.79-3l-.2-1.4h1V92.93a2.67,2.67,0,0,1-1.4-2.19c0-.93-.06-2.39-.2-4.38l.2-1a2,2,0,0,1-.2-1h.2l-.2-.4c0-.4.07-.6.2-.6l-.4-2.19.2-.8a20.79,20.79,0,0,0-.59-4.18v-.4c0-.27.16-.4.39-.4a4.69,4.69,0,0,0,1.6,1.39l-.4.2-.4-.2V77l.2,1a1.63,1.63,0,0,0-.2.6,6.94,6.94,0,0,0,1,1.59v.2h-.2l-.4-.2a5,5,0,0,1-.6,1.6,5.32,5.32,0,0,1,1.6,3.38h.59q.3,0,.6-.6c-.17-3.32-.43-5-.8-5v-.79l.4-.6a6.66,6.66,0,0,1-.2-.8,1.5,1.5,0,0,0,.2-.79,2.82,2.82,0,0,0-1.79-.8l-.4-.8a.18.18,0,0,0,.2-.2l.4.2c1.19-.46,1.79-.79,1.79-1v-.8c0-.7.07-1.83.2-3.39-.2,0-.46-.26-.8-.79v-.6a2.31,2.31,0,0,0,.6-1.4v-.2a9.79,9.79,0,0,0-.2-1.79.18.18,0,0,1,.2-.2l-.2-1V60.46a21.77,21.77,0,0,0-.79-4.18l.39-1a33.39,33.39,0,0,1-.39-3.79c.13-.39.26-.59.39-.59a48.6,48.6,0,0,1-.39-6.18c.53-.2.79-.4.79-.6V42.33c0-.27.17-.4.4-.4a2.31,2.31,0,0,1,1.2.4c.39-.13.59-.27.59-.4a26.82,26.82,0,0,0,4.19.4c0-.27.16-.4.4-.4.39,0,.59.07.59.2l2-.2h1.59a11.47,11.47,0,0,1,1.59.4h1c.66,0,1-.13,1-.4l1.39.2h1l1.19-.2.4.2a16.14,16.14,0,0,1,2.19-.2,10.44,10.44,0,0,1,1.59.2l1-.2.8.2,1.39-.2,1,.2c0-.26.16-.4.4-.4h2a2.29,2.29,0,0,0,1.39.6h2.79C271.18,41.67,272,41.33,273.57,41.33ZM237.32,86.16c0,.26.16.4.39.4l-.2,2a1.63,1.63,0,0,0,.2.6.18.18,0,0,1-.2.2c.14,1.62.34,2.55.6,2.78l-.2,1.2v.2h.4c.17-.93.37-1.4.6-1.4a2.27,2.27,0,0,1-.4-1.19V89.15c-.17-2.26-.43-3.39-.8-3.39A.38.38,0,0,0,237.32,86.16Zm.39,8.56v1.2a1.53,1.53,0,0,1,.6.2l.2-.4v-.2a1.51,1.51,0,0,1-.4-.8Zm3,6.18v.4l.2.4.8-.4a6,6,0,0,0,1.39.2l.4-.2.4.2,1-.2v.2a4.27,4.27,0,0,0,1.39-.6l1.2.2q0-.3-.6-.6h-3C242,100.77,240.9,100.9,240.7,100.9Zm7.77,0v.4l1.2.2v-1h-.4A1.43,1.43,0,0,1,248.47,100.9Zm.6-22.91v.8q0,9.81,10.56,13.74a24.92,24.92,0,0,0,4.58.6q10.91,0,18.13-11.55,2-3.54,5.38-27.3c0-1.06-.73-1.72-2.19-2h-3.19c-1.73,0-2.72,2.26-3,6.77Q276,79.79,274.57,79.78q-4.14,5.58-9.76,5.58h-.4a7,7,0,0,1-7.17-5,4.89,4.89,0,0,1-.4-2.19V78q0-1,3.78-23.51v-.2c0-1.06-.73-1.72-2.19-2h-3.18q-2.59,0-2.59,4.58Q249.06,75.4,249.07,78Zm2,22.51a1.63,1.63,0,0,1-.2.6l.4.2h.2c.8-.37,1.2-.63,1.2-.8Zm32.67-56.58v.6h.4a.35.35,0,0,0,.4-.4v-.2Zm2.39-.2v.6c.27,0,.4.07.4.2a2.08,2.08,0,0,1,1-.2v-.4Zm2.79.2-.2.4.8.2.2-.4Zm1.4.2c0,.27.16.4.4.4l1.19-.2a1.46,1.46,0,0,0,.6.2,1.53,1.53,0,0,1,.6-.2.18.18,0,0,1,.2.2l1-.2h2.19a.35.35,0,0,0,.4-.4v-.2h-.2a1.57,1.57,0,0,0-.79.2,10.87,10.87,0,0,0-1.8-.2,5,5,0,0,1-.79.2,1.63,1.63,0,0,0-.6-.2,1.46,1.46,0,0,1-.6.2l-.4-.2A4.45,4.45,0,0,1,290.31,44.12Zm6.77,23.31-.4.6v.6a1.46,1.46,0,0,1,.6.2l.2-.4v-.6A.35.35,0,0,0,297.08,67.43Zm.4,16.94v.39q0,.3.6.6h.4v-1a.35.35,0,0,0-.4-.4h-.2C297.61,84,297.48,84.13,297.48,84.37Zm.4-1.6v.6h.4v-.6ZM300.47,85h.4c.26,0,.39.17.39.4v.2c-.36.8-.63,1.2-.79,1.2h-.2l-.2-1.4C300.1,85.1,300.23,85,300.47,85Zm.2-3,.2.4-.2.4c.2,0,.4.27.59.8-.16.66-.36,1-.59,1a.35.35,0,0,1-.4-.39v-1.8C300.3,82.11,300.43,82,300.67,82Zm1.19-16.53.2.4-.4.2-.2-.4Z"/><path class="cls-2" d="M338.37,37.4c.13,0,.51.28,1.14.85h.35a4,4,0,0,1,2.39-.65c0,.1.32.45.95,1v.6h-2.39q-2,0-2,.6h2.79c.69.83,1.12,1.24,1.29,1.24.3-.66.53-1,.7-1h.4A3.15,3.15,0,0,1,345,41.88h.55l1.69-1.19a1.32,1.32,0,0,0,.55.2,6.83,6.83,0,0,1,2.94-.65l.2.45-1.1,1.59v2.89c0,.3-1.72,1-5.18,2.24l.35-.2a9.18,9.18,0,0,0,1.7.2h.69c.27,0,.4.17.4.4l-.2,1h1.7c.16,0,.34.22.54.65v.2l-.39.6q.19.6.39.6a16.86,16.86,0,0,0-.39,3.48c.26,0,.39.17.39.4s-.06.4-.2.4l.2,1.44v1.85l-.39.59v1.65c0,.26.16.4.39.4l-.2,1.39v.45l.2,1.19c0,.14-.06.2-.2.2l.2,1.45v.6l-.2,1.24a1.51,1.51,0,0,1,.2.8l-.2.79.2,1a1.61,1.61,0,0,0-.2.8c.27,0,.45.35.55,1a24.54,24.54,0,0,1-.89,2.84l.15.4v1.25c.63,0,.94.61.94,1.84-.63.73-.94,1.19-.94,1.39s-.12.4-.35.4v.45a1.83,1.83,0,0,0,.35.6l-.75.6.2,1.44-.2,1.39a28,28,0,0,1,.75,3.89v.6c0,.3-.12.44-.35.44l-.4-.19v2.24l1.14,1.19v1.84a9.18,9.18,0,0,0,.35,1.85c-.1,1.49-.28,2.24-.55,2.24h-1.09l-.55-.4h-.4a1.62,1.62,0,0,0-1.09,1.39h-.4c-.1,0-.58-.06-1.45-.19l-.39.59v.25c0,.27.16.4.39.4l.75-.65h.9v.45c0,1-.93,1.63-2.79,1.79h-1.1l-.35-.19.15-.4v-.2h-2.74a1.24,1.24,0,0,1-.74,1.24h-2c-1.23,0-1.85.14-1.85.4l-.94-.2H330.8c-.14,0-.2-.06-.2-.2a2.65,2.65,0,0,1-1.44.4h-3.54a14.89,14.89,0,0,0-1.5.4h-.89v-.4c.6-.36.89-.65.89-.85v-.59h.2c.27,0,.4.2.4.59h1.85a4.54,4.54,0,0,1,1.29-1c0,.13.05.2.15.2l-.15.4v.2a1.77,1.77,0,0,1,1.3.44h.14a4.51,4.51,0,0,1,3-1.44c0-.27.15-.4.35-.4a1,1,0,0,0-.75-.85c-1.59.14-2.88.2-3.88.2a1.83,1.83,0,0,1-1.3.65h-.14a4.43,4.43,0,0,0-.55-.4h-1.5a3.16,3.16,0,0,0-1.29,2H323c-.2,0-.5-.74-.9-2.24-1.29-.13-2-.2-2.24-.2l-.4.2c-.73-.13-1.09-.26-1.09-.4l-1.5,1h-.35l-.74-.65h-1.5a1.08,1.08,0,0,0-.69.25c-.14,0-.2-.08-.2-.25a67.5,67.5,0,0,0-8.52.85,5.28,5.28,0,0,0-1.29-.2c-.1,0-.6.07-1.5.2v-.2a2,2,0,0,1-1.09.4,12.26,12.26,0,0,1-1.5-.4q-1.78,0-5.73.4a1.61,1.61,0,0,1-.2-.8h-2c-.26,0-.4-.15-.4-.45,0-.66.17-1,.4-1l-.2-1c0-.36.07-1.71.2-4-.26,0-.4-.15-.4-.45s.07-.4.2-.4l-.2-2V89l.4-.6V86.71c0-.67-.13-1-.4-1l.2-1.25c0-1.36-.06-3-.2-5.08a9.28,9.28,0,0,0,.2-1.64l-.2-.4.2-1-.2-1.45a1.5,1.5,0,0,0,.2-.79.36.36,0,0,1-.4-.4v-2a5.17,5.17,0,0,0,.75-2.25L291.6,69v-1.4c-.63,0-.94-.81-.94-2.44,0-.43.31-.65.94-.65v-1l.35-.6v-.2a2.43,2.43,0,0,1-.35-.65v-.2a5.13,5.13,0,0,0,.7-1v-.2A2.6,2.6,0,0,1,292,60a15,15,0,0,1,.35-2,36.49,36.49,0,0,1-.7-5.08v-.6l.15-.4.4.2h.15V49.45a2.58,2.58,0,0,1-1.1-1.84V46.17a5.88,5.88,0,0,0-.34-2.25c.06-1.89.24-2.84.54-2.84H292a2.08,2.08,0,0,1,1.3.6c.13-.4.49-.6,1.09-.6h4.83c.13,0,.82.14,2,.4a26.78,26.78,0,0,0,3.34-.4c0,.2.18.4.55.6h.15a20.62,20.62,0,0,1,6.67-.79l.4.19.9-.39.94.2a18.35,18.35,0,0,0,6.48-1,6.17,6.17,0,0,1,.75.2l2.39-.2.2.4a1.43,1.43,0,0,0-.2.65,1.53,1.53,0,0,1,1.09,1.39c.73-.73,2.09-1.2,4.09-1.39,0-.57.54-1,1.64-1.25a.18.18,0,0,1,.2-.2h1.29l.55.4a9.82,9.82,0,0,0,1.5-.4c1.22.4,1.84.88,1.84,1.45a2,2,0,0,1,1.09.39l.2-.39a2.88,2.88,0,0,1-.2-1.45h.6v-.2l-.94-.79A1.68,1.68,0,0,1,338.37,37.4ZM292.9,42.48a6.47,6.47,0,0,0,.15.85,2,2,0,0,1-.15.79c.1,3,.33,4.49.69,4.49v-3c0-.73,0-1.9-.14-3.49h-.2C293,42.15,292.9,42.28,292.9,42.48Zm.15,9v1.2h.2c.23,0,.34-.2.34-.6a2,2,0,0,1-.14-.6Zm.2,2.84-.2.4c0,.27.16.4.4.4h.14v-.4C293.59,54.47,293.48,54.33,293.25,54.33Zm0-4.68v.4h.34v-.8A.36.36,0,0,0,293.25,49.65ZM307,88.3c.53,1.46,1.33,2.19,2.39,2.19H330.5q2.79,0,2.79-5.58c0-1.09-.8-1.82-2.39-2.19H316.16l-.4-.2q4.38-24.3,5.38-30.88c-.57-1.32-1.37-2-2.39-2h-3c-1.56,0-2.49,1.4-2.79,4.18ZM313.77,37H314a.37.37,0,0,1,.35.4l-.35.2h-.19Zm2,4.48-.2.4q0,.15.6.6a1.24,1.24,0,0,1,.54-.2v-.6Zm15-3.68c.73.1,1.09.31,1.09.65s-.11.39-.34.39H329.5v-.59h.4l.35.2C330.25,38.25,330.43,38,330.8,37.8Zm-.55,2.89v.39h.55c0-.26-.12-.39-.35-.39Zm1.1.39c0,.27.16.4.4.4h.54c.23,0,.35-.13.35-.4v-.59h-.75C331.73,40.49,331.55,40.69,331.35,41.08Zm1.29-3.28h.2c.86.4,1.3.68,1.3.84a4.13,4.13,0,0,1-1.5.4l-.35-.59v-.2C332.33,38,332.44,37.8,332.64,37.8ZM338,100h-1.64c-2.23.2-3.34.49-3.34.85.1,0,.15.07.15.2s.48-.07,1.14-.2a1.5,1.5,0,0,1,.75.2,28.31,28.31,0,0,0,4.43-.6l.9.2v-.2q0-.34-1.29-.84A2.07,2.07,0,0,1,338,100Zm3.69.65v.2h1.14V100h-.6C342.09,100,341.91,100.17,341.71,100.6Zm5.37-14.29v.84c0,.27.15.4.35.4h.2a.35.35,0,0,0,.4-.4c-.4,0-.6-.41-.6-1.24A.37.37,0,0,0,347.08,86.31Zm0,3.09.75.59h.2V89h-.6A.43.43,0,0,0,347.08,89.4Zm.2,1.79c0,.43-.06.65-.2.65l.2,2v1.79a9.63,9.63,0,0,1,.35,2h.55l-.15-1a1.84,1.84,0,0,1,.15-.6,20.17,20.17,0,0,0-.55-4.08l.2-.85Z"/><path class="cls-2" d="M482.75,38.45c.1,0,.43.28,1,.84h.35c.23-.3.94-.51,2.14-.65a4,4,0,0,0,.85,1v.65h-2.2c-1.19,0-1.79.2-1.79.6h2.49c.63.83,1,1.24,1.15,1.24q.45-1,.69-1h.3a3.26,3.26,0,0,1,1,1.9h.5l1.49-1.25a1.13,1.13,0,0,0,.5.2,6,6,0,0,1,2.69-.65l.15.45-1,1.65v2.88c0,.34-.57.8-1.72,1.4s-1.51.9-1.12.9h.7a.34.34,0,0,1,.3.39l-.15,1h1.49c.17,0,.34.2.5.6v.2l-.35.64c.14.4.25.6.35.6a19.8,19.8,0,0,0-.35,3.54.36.36,0,0,1,.35.4c0,.3-.05.44-.15.44l.15,1.45v1.84l-.35.65v1.64c0,.27.15.4.35.4l-.15,1.45v.39l.15,1.25c0,.13-.05.2-.15.2l.15,1.49v.6l-.15,1.25a2.1,2.1,0,0,1,.15.84l-.15.8.15,1a2.19,2.19,0,0,0-.15.85c.23,0,.4.33.5,1a22,22,0,0,1-.85,2.89l.15.44v1.25c.57,0,.85.61.85,1.84a4.3,4.3,0,0,0-.85,1.45c0,.26-.1.4-.3.4v.44a2.1,2.1,0,0,0,.3.6l-.64.65.15,1.44-.15,1.45a27.87,27.87,0,0,1,.64,3.93V91c0,.27-.1.4-.3.4l-.34-.2v2.29l1,1.24v1.85a9.18,9.18,0,0,0,.35,1.89c-.1,1.49-.27,2.24-.5,2.24h-1l-.5-.4h-.35a1.68,1.68,0,0,0-1,1.45h-.34c-.1,0-.54-.07-1.3-.2l-.35.6v.24c0,.27.15.4.35.4l.65-.64h.84v.44c0,1.07-.83,1.68-2.49,1.85h-1l-.3-.2.15-.4v-.25h-2.49a1.22,1.22,0,0,1-.65,1.24h-1.84c-1.1,0-1.64.19-1.64.45l-.85-.2h-2.84c-.1,0-.15-.08-.15-.25a2.19,2.19,0,0,1-1.34.45H471.3a11.05,11.05,0,0,0-1.35.4h-.84v-.4q.84-.54.84-.84v-.6h.15c.23,0,.35.2.35.6h1.64a5.29,5.29,0,0,1,1.2-1c0,.13,0,.2.15.2l-.15.45v.2a1.55,1.55,0,0,1,1.15.4h.19a3.74,3.74,0,0,1,2.64-1.45c0-.26.15-.4.35-.4a1.09,1.09,0,0,0-.69-.84c-1.43.13-2.59.2-3.49.2a1.64,1.64,0,0,1-1.15.64h-.2c-.26-.26-.43-.4-.49-.4h-1.3a3.5,3.5,0,0,0-1.19,2H469c-.2,0-.49-.77-.85-2.29-1.13-.14-1.79-.2-2-.2l-.3.2c-.67-.14-1-.27-1-.4l-1.34,1h-.35l-.65-.64h-1.34a1,1,0,0,0-.65.24q-.15,0-.15-.24a53.3,53.3,0,0,0-7.67.84,4,4,0,0,0-1.14-.2c-.1,0-.55.07-1.35.2v-.2a1.74,1.74,0,0,1-1,.4,9.37,9.37,0,0,1-1.34-.4c-1.1,0-2.81.14-5.13.4a1.61,1.61,0,0,1-.2-.8h-1.79c-.23,0-.35-.14-.35-.44,0-.7.15-1,.35-1l-.2-1c0-.39.06-1.77.2-4.13-.23,0-.35-.15-.35-.45s.05-.4.15-.4l-.15-2V90.79l.35-.6V88.5c0-.66-.12-1-.35-1l.15-1.24c0-1.4,0-3.12-.15-5.18a14.51,14.51,0,0,0,.15-1.65l-.15-.44.15-1-.15-1.49a2,2,0,0,0,.15-.8c-.2,0-.3-.13-.3-.4V73.21a6.7,6.7,0,0,0,.65-2.29l-.15-.4V69.08c-.57,0-.85-.83-.85-2.5,0-.39.28-.59.85-.59v-1l.3-.65v-.2a2.26,2.26,0,0,1-.3-.59v-.2a5.89,5.89,0,0,0,.65-1v-.2a2.28,2.28,0,0,1-.35-.64,13.47,13.47,0,0,1,.35-2,34.68,34.68,0,0,1-.65-5.18v-.64l.15-.4.35.2h.15V50.65a2.51,2.51,0,0,1-1-1.85V47.36a5.94,5.94,0,0,0-.35-2.29c.1-1.93.27-2.89.5-2.89h.5a1.69,1.69,0,0,1,1.19.65c.1-.43.43-.65,1-.65h4.33c.1,0,.7.13,1.79.4a20.85,20.85,0,0,0,3-.4c0,.2.17.42.5.65h.2a15.46,15.46,0,0,1,6-.85l.29.2.85-.4.85.2a15.17,15.17,0,0,0,5.83-1,6.21,6.21,0,0,1,.64.19l2.14-.19.2.39a1.65,1.65,0,0,0-.2.65,1.64,1.64,0,0,1,1,1.45A5.57,5.57,0,0,1,474.29,42c0-.56.49-1,1.49-1.24,0-.14.05-.2.15-.2h1.19l.5.4a10.12,10.12,0,0,0,1.3-.4c1.13.4,1.69.88,1.69,1.44a1.81,1.81,0,0,1,1,.4l.15-.4a3.59,3.59,0,0,1-.15-1.44h.5v-.2l-.85-.85A1.53,1.53,0,0,1,482.75,38.45Zm-40.89,5.18q0,.09.15.84a2,2,0,0,1-.15.8c.1,3,.32,4.58.65,4.58V46.71c0-.69-.05-1.86-.15-3.48h-.15A.36.36,0,0,0,441.86,43.63Zm.15,9.11V54h.2c.2,0,.3-.21.3-.64a2,2,0,0,1-.15-.6Zm.2,2.89-.2.4c0,.3.15.44.35.44h.15V56C442.51,55.76,442.41,55.63,442.21,55.63Zm0-4.78v.44h.3v-.84C442.31,50.48,442.21,50.62,442.21,50.85Zm10.21,39.39c.43,1.33,1.05,2,1.84,2h19.18q2.24,0,2.34-5.77c-.43-1.33-1-2-1.84-2H461v-.19q1.14-8.77,1.59-8.77h13.6q2,0,2.14-5v-.4c-.13-1.46-.7-2.19-1.69-2.19H463.88l-.3-.2c.86-5.84,1.44-8.77,1.74-8.77h13.4q2.23,0,2.34-5.37c-.13-1.46-.7-2.2-1.69-2.2H460q-2.09,0-2.19,4.59Q452.47,88.25,452.42,90.24Zm8.22-52.19h.2c.2,0,.3.16.3.4l-.3.19h-.2Zm1.84,4.53-.15.45c0,.1.17.3.5.6a.93.93,0,0,1,.5-.2v-.6Zm13.45-3.69c.66.07,1,.27,1,.6s-.1.4-.3.4h-1.85v-.6h.35l.3.2C475.43,39.29,475.6,39.09,475.93,38.89Zm-.5,2.89v.4h.5c0-.26-.1-.4-.3-.4Zm1,.4c0,.27.15.4.35.4h.49c.24,0,.35-.13.35-.4v-.6h-.69C476.76,41.58,476.59,41.78,476.43,42.18Zm1.19-3.29h.15c.77.37,1.15.64,1.15.8a3.15,3.15,0,0,1-1.3.45l-.35-.65v-.2C477.31,39,477.42,38.89,477.62,38.89ZM482.4,102h-1.49c-2,.2-3,.48-3,.84a.18.18,0,0,1,.2.2,8.72,8.72,0,0,0,1-.2,1.13,1.13,0,0,1,.64.2,23.61,23.61,0,0,0,4-.6l.85.2v-.2q0-.35-1.2-.84A1.81,1.81,0,0,1,482.4,102Zm3.34.64v.2h1V102h-.5C486.07,102,485.91,102.16,485.74,102.59Zm4.83-14.49V89c0,.26.15.4.35.4h.15c.23,0,.35-.14.35-.4-.33,0-.5-.42-.5-1.25A.37.37,0,0,0,490.57,88.1Zm0,3.09.65.65h.2v-1h-.5A.37.37,0,0,0,490.57,91.19Zm.15,1.89q0,.6-.15.6l.15,2.09v1.84a10.42,10.42,0,0,1,.35,2.1h.5l-.15-1a2,2,0,0,1,.15-.65,25.6,25.6,0,0,0-.5-4.13l.15-.8Z"/><path class="cls-2" d="M513,39.39h1v.4c-.66.33-1,.6-1,.8v.59h-.2c-.26,0-.39-.19-.39-.59h-2a5.29,5.29,0,0,1-1.39,1,.18.18,0,0,0-.2-.2l.2-.39v-.2a2.06,2.06,0,0,1-1.39-.4h-.2a4.89,4.89,0,0,1-3.19,1.39.35.35,0,0,1-.4.4,1.08,1.08,0,0,0,.8.8c1.72-.13,3.12-.2,4.18-.2a2.29,2.29,0,0,1,1.4-.6h.19l.6.4h1.6a3.26,3.26,0,0,0,1.39-2h.2c.23,0,.56.73,1,2.19,1.39.13,2.19.2,2.39.2l.39-.2a1.64,1.64,0,0,0,.8.2h.8l1.19-.8h.4l.8.6h1.39l1.2-.2a.18.18,0,0,1,.2.2,72.47,72.47,0,0,0,9-.8,5.53,5.53,0,0,0,1.4.2c1-.13,1.49-.2,1.59-.2v.2a2.37,2.37,0,0,1,1.2-.4,13.43,13.43,0,0,1,1.59.4c1.3,0,3.35-.13,6.18-.4a1.64,1.64,0,0,1,.2.8h2.19c.26,0,.4.17.4.4,0,.66-.14,1-.4,1l.2,1c-.14,2.29-.2,3.62-.2,4,.26,0,.4.17.4.4s-.07.4-.2.4l.2,2v2l-.4.59v1.6c0,.66.16,1,.4,1l-.2,1.2c0,1.33.06,3,.2,5a9.28,9.28,0,0,0-.2,1.59l.2.4-.2,1,.2,1.39a1.51,1.51,0,0,0-.2.8.38.38,0,0,1,.39.4v2a5.24,5.24,0,0,0-.79,2.19l.2.4v1.39q1,0,1,2.19c0,.54-.33.8-1,.8v1l-.4.6v.19l.4.6v.2a5.37,5.37,0,0,1-.8,1v.2l.4.59a12.61,12.61,0,0,1-.4,2,32.9,32.9,0,0,1,.8,5v.59l-.2.4-.4-.2h-.2v2.59a2.42,2.42,0,0,1,1.2,1.8v1.39a5.05,5.05,0,0,0,.39,2.19c-.1,1.86-.3,2.79-.59,2.79h-.6a2.31,2.31,0,0,1-1.4-.6q-.09.6-1.59.6h-4.78a21.83,21.83,0,0,1-2.19-.4,34,34,0,0,0-3.59.4q0-.3-.6-.6h-.2a23.21,23.21,0,0,1-7.17.8l-.4-.2-1,.4-1-.2a21.86,21.86,0,0,0-7,1,6.66,6.66,0,0,0-.8-.2l-2.59.2-.2-.4a1.46,1.46,0,0,0,.2-.6c-.79-.33-1.19-.8-1.19-1.39-.77.73-2.23,1.19-4.39,1.39,0,.53-.59.93-1.79,1.2a.18.18,0,0,1-.2.2h-1.39a2,2,0,0,0-.6-.4,14.32,14.32,0,0,0-1.59.4c-1.33-.4-2-.87-2-1.4a2.27,2.27,0,0,1-1.19-.4l-.2.4a2.69,2.69,0,0,1,.2,1.4h-.6v.19l1,.8a1.9,1.9,0,0,1-1.8,1,4.09,4.09,0,0,1-1.19-.8h-.4a4.87,4.87,0,0,1-2.59.6c0-.1-.33-.43-1-1v-.6h2.59c1.46,0,2.2-.19,2.2-.59h-3c-.77-.8-1.23-1.2-1.4-1.2-.33.67-.59,1-.79,1h-.4q-1.2-1.1-1.2-1.8h-.6l-1.79,1.2a1.53,1.53,0,0,0-.6-.2c-.29.27-1.36.47-3.18.6l-.2-.4,1.19-1.59V96.57q0-.55,8.37-1c0-.13.46-.26,1.39-.4a1.53,1.53,0,0,1,.6.2,16.14,16.14,0,0,1,2.19-.2h.8V95c0-.16-.47-.43-1.39-.79l-.6.4h-.2l-.6-.4a32.59,32.59,0,0,1-4.18.4,5,5,0,0,0-.8-.2l-.4.2a9.79,9.79,0,0,0-1.79-.2h-.8a.36.36,0,0,1-.4-.4l.2-1h-1.79q-.3,0-.6-.6v-.2a2,2,0,0,0,.4-.59c-.13-.4-.26-.6-.4-.6a15.39,15.39,0,0,0,.4-3.39.35.35,0,0,1-.4-.4c0-.39.07-.59.2-.59l-.2-1v-2l.4-.6V81.43a.35.35,0,0,0-.4-.4l.2-1.4v-.39l-.2-1.2a.18.18,0,0,1,.2-.2l-.2-1.39v-.6l.2-1.2a1.57,1.57,0,0,1-.2-.79,5,5,0,0,0,.2-.8l-.2-1a1.48,1.48,0,0,0,.2-.79c-.3,0-.5-.33-.6-1a23,23,0,0,1,1-2.79l-.2-.4V65.89q-1,0-1-1.8c.66-.72,1-1.19,1-1.39a.35.35,0,0,1,.4-.4v-.4a2,2,0,0,1-.4-.59c0-.2.27-.4.8-.6l-.2-1.4.2-1.39a27.11,27.11,0,0,1-.8-3.79v-.59c0-.27.17-.4.4-.4l.4.2V51.15l-1.2-1.2v-1.2a13.2,13.2,0,0,0-.4-2.58c.1-1.33.3-2,.6-2h1.2a1.41,1.41,0,0,0,.79.4,2.48,2.48,0,0,0,1.6-1.39h.2c.13,0,.66.06,1.59.2l.4-.6v-.2a.35.35,0,0,0-.4-.4l-.8.6h-1v-.4c0-1,1-1.63,3-1.79h1.19l.4.2-.2.39v.2h3a1.15,1.15,0,0,1,.8-1.19h2.19c1.32,0,2-.13,2-.4l1,.2h3.38a.18.18,0,0,1,.2.2,3.3,3.3,0,0,1,1.6-.4h3.78A11.47,11.47,0,0,0,513,39.39Zm-25.89,5.78.19,1a1.48,1.48,0,0,1-.19.59,22.54,22.54,0,0,0,.59,4,5,5,0,0,1-.2.79h.6c0-.39.07-.59.2-.59l-.2-2V47.16a8.75,8.75,0,0,1-.4-2Zm.19,7.57v1h.6a.35.35,0,0,0,.4-.4l-.8-.6Zm0,2.79c.4,0,.6.4.6,1.19a.35.35,0,0,0,.4-.39v-.8a.35.35,0,0,0-.4-.4h-.2C487.47,55.16,487.33,55.3,487.33,55.53Zm5.58-13.35V43h.6q.3,0,.6-.6v-.2Zm3.59.4-1-.2v.2c0,.2.47.46,1.4.8a2.27,2.27,0,0,1,1.19-.4h1.8c2.39-.17,3.58-.43,3.58-.8a.18.18,0,0,1-.2-.2,10.36,10.36,0,0,1-1.19.2,1.51,1.51,0,0,1-.8-.2A32.07,32.07,0,0,0,496.5,42.58Zm.8,11.75v.2Q507.85,88.4,509.45,92a3.16,3.16,0,0,0,1.79.79h.2q1.7,0,4.78-5.38,18.87-27.63,21.72-32.27v-.8q-.36-2.19-2.19-2.19h-3.59q-1.74,0-5,5.78-10.41,15-13.55,20.12H513q-7.56-24.75-8.56-25.5l-1.4-.4h-3.58Q497.3,52.5,497.3,54.33Zm4.38,40.25v.19c0,.27.16.4.4.4h.4v-.59Zm2.19,8,.4.6v.2a.35.35,0,0,1-.4.4h-.2c-.93-.36-1.39-.63-1.39-.8A5,5,0,0,1,503.87,102.54Zm0-2v.6h.8c.2,0,.4-.2.59-.6a.35.35,0,0,0-.39-.4h-.6C504,100.19,503.87,100.32,503.87,100.55Zm1.2,2.19h2.19v.6h-.4l-.4-.2q0,.3-.6.6c-.7,0-1.09-.2-1.19-.6S504.83,102.74,505.07,102.74Zm.79-2.19c0,.27.17.4.4.4h.2v-.4ZM521,99.36V100l1,.2.2-.4c0-.09-.2-.29-.6-.59A1.63,1.63,0,0,1,521,99.36Zm3,4.58h.2v.6H524a.35.35,0,0,1-.4-.4Zm21.92-17.13v.39c0,.27.16.4.39.4l.2-.4a.35.35,0,0,0-.4-.39Zm0,3a1.56,1.56,0,0,1,.19.6h.4V89.2h-.2C546,89.2,545.91,89.4,545.91,89.79Zm0,2v.79a.35.35,0,0,0,.39-.4v-.39Zm0,1.39v3c0,.7.06,1.83.19,3.39h.2a.35.35,0,0,0,.4-.4,6.66,6.66,0,0,1-.2-.8,1.64,1.64,0,0,1,.2-.8C546.57,94.64,546.3,93.18,545.91,93.18Z"/><path class="cls-2" d="M571.65,40.49c1.37,0,2.05.4,2.05,1.19s.59,1.4,1.79,2.19l-.1,1v1.59q.45,0,.6,1.8-.11,1-.6,1v.4l.1.4c-.13.13-.23.2-.3.2v.2l.2.6v.39c-.23,0-.35.14-.35.4q0,.15.15,1.2c0,.1-.05.5-.15,1.19.23,2.1.35,3.69.35,4.78q0,.3-.45.6l.1.4V61.6c.23,0,.43.27.6.8v2c0,.93.07,1.4.2,1.4l-.1,1.39v2.19c0,.14,0,.2-.1.2a13.29,13.29,0,0,1,.35,3.79l-.15.4a8.49,8.49,0,0,1,.35,1.79V76c0,.26-.07.4-.2.4h-.15c-.2-.53-.38-.8-.55-.8s-.25-.13-.25-.4a.8.8,0,0,1,.35-.2V73.16l-.55-1.2.2-.2v.4h.25a3,3,0,0,1,.2-1.19v-.4L575,70q-.25-2.19-.45-2.19a.56.56,0,0,1-.35.2v3.59l.45,1.39a4.18,4.18,0,0,0-.2,1.2v1.19c.6.43.9.77.9,1v.4c-.73.26-1.11.39-1.15.39v2.19l-.1,1.2a5.25,5.25,0,0,0,.45,1.2,3.2,3.2,0,0,1-.35,1.39v.2l.15,2h-.15l.45,7.57-.1,1,.1,1.19a14.27,14.27,0,0,0-1.14,5,2.93,2.93,0,0,1-1,.6v-.2q-.6.6-.9.6h-.24l-.45-.6c-.07,0-.1.07-.1.2a.8.8,0,0,0-.35-.2.79.79,0,0,0-.5.8h-.2c-.07,0-.1-.07-.1-.2l-.25.2h-.1l-.79-.4a2.93,2.93,0,0,1-.6,1l-.55-.6h-1.59c-.1,0-.15.07-.15.2s-.1-.07-.1-.2a6.19,6.19,0,0,0-2.39.6l-.25-.2-.45.4c-.37,0-.55-.14-.55-.4l-1.39.6c-.37-.27-.55-.47-.55-.6l-.25.2a41.45,41.45,0,0,0-4.43.59l-.25-.19c-.33.39-.55.59-.65.59a21.76,21.76,0,0,0-5.28.6l-.1-.4-.79.2h-.35V103l.35-.79-.1-1.2a3.35,3.35,0,0,1,.54-1,2.25,2.25,0,0,1,.6,1.8h.65c0-.27-.12-.4-.35-.4v-.2c0-.23.27-.43.8-.6,0-.26.11-.4.25-.4,0,.24.49.57,1.49,1l.1.4.6-.6.55.2v-.8a.64.64,0,0,0-.7-.6h-1.6l-.34.4h-.1c0-.53-.3-.79-.9-.79a10,10,0,0,1-2.89-.6v.2l-.2-.2h-.45a3.33,3.33,0,0,0-.59,1h-.45a1.58,1.58,0,0,0-1.5-.79c-.23,0-.73.4-1.49,1.19l-1.34-.79h-1.4l-.3-.4c.07-.4.13-.6.2-.6-.07-.53-.21-.8-.45-.8v-.4a1.61,1.61,0,0,0,.55-1l-.1-.4a14,14,0,0,0,.35-2,2.18,2.18,0,0,1-.25-.6l.15-1.2-.15-.39a16.15,16.15,0,0,0,.35-3.39l-.2-.2-.45.6H539a2.78,2.78,0,0,0-.1-.8c.37,0,.55-.33.55-1l.15-.4a2,2,0,0,1-.15-.6h-.3c0,.53-.08.8-.25.8h-.25a2.09,2.09,0,0,1-.54-1.6c0-.16.23-.5.69-1v-.4a5.08,5.08,0,0,1-.45-1.2,3.37,3.37,0,0,1,.65-1.79l.8.4c0-.13.05-.2.15-.2a2,2,0,0,1-.15-.6l.15-1-.35-.39a5.62,5.62,0,0,0,.2-1.2l-.1-1.19h-.35v.39l-.1,1.2.1.4-.1,1.19v.4h-.35l.1-.4-.55-1c.14-.8.25-1.2.35-1.2a11.14,11.14,0,0,1-.25-2c.17,0,.25-.13.25-.4v-.8l-.25-.59a2.18,2.18,0,0,0,.25-.6l-.25-.6q0-.45.45-3.39h-.2v-.59a2.33,2.33,0,0,0,.2-.6v-.6l-.35-.8a7.53,7.53,0,0,1,.5-2.58Q539,63,539,62.8l.15-1a3.48,3.48,0,0,1-.25-1.19c0-.66.24-1,.7-1v-.4l-.35-.79v-1.2h.35v-.6h-.25V56l.25-.6q-.11,0-.6-1.2a8.25,8.25,0,0,1,.35-2c-.07-1.39-.1-2.19-.1-2.39.1-.53.22-.8.35-.8a10.61,10.61,0,0,0-.25-1.59c.1,0,.3-.33.6-1-.4-.36-.6-.63-.6-.79a3.42,3.42,0,0,0,.35-1.2c-.13,0-.28-.66-.45-2,.07,0,.1-.07.1-.2l3.69.4v-1.4h.3c0,.07,0,.34.14.8h.1c.24,0,.35-.06.35-.2l.55.2h.45l.35-.4h.35c.33.4.59.6.79.6a.8.8,0,0,1,.35-.2c.47.2.7.4.7.6a2.25,2.25,0,0,1,1.24-.6.58.58,0,0,0,.35.2c.07,0,.1-.07.1-.2l.6.2h1.94a.62.62,0,0,1,.45.2c.37-.13.55-.27.55-.4.3.1.45.23.45.4l.25-.2h.1c.39,0,.59.17.59.4a1.24,1.24,0,0,1,.9-.4h.25a.77.77,0,0,1,.55.2c.76-.13,1.14-.27,1.14-.4l.25.2h.9a2.77,2.77,0,0,1,1-1,14,14,0,0,0,1.9.8h.25a.58.58,0,0,0,.44-.2c.1,0,.15.07.15.2l.55-.2h.25c0,.4.07.6.2.6h.1l.35-.4H564l1.4-.2v.2c.07,0,.1-.06.1-.2l.45.2a.58.58,0,0,0,.44-.2,3.56,3.56,0,0,0,1,.2l.55-.2a.67.67,0,0,0,.35.2c1-.16,1.49-.36,1.49-.6l.55.2h.95C571.31,40.89,571.42,40.49,571.65,40.49ZM538.78,97.66h.1v.8h-.1c-.16,0-.25-.13-.25-.4S538.65,97.66,538.78,97.66Zm.1-4.18c.1,0,.22.2.35.6v.2c0,.26-.08.39-.25.39h-.1c-.16,0-.25-.13-.25-.39v-.4C538.67,93.61,538.75,93.48,538.88,93.48Zm1-8.77c.1.54.21.8.35.8s.3-.86.3-2.59A2.11,2.11,0,0,0,539.93,84.71Zm.35-4.58c0,.8.3,1.2.89,1.2l.2-2-.2-.19c-.59.36-.89.63-.89.79Zm.1-1.79.45.6h.09c.27,0,.42-.87.45-2.59a2.81,2.81,0,0,1-.45-1.2h-.09C540.56,75.15,540.41,76.21,540.38,78.34Zm.2-20.32a.82.82,0,0,0,.34.6h.15l-.15-1h-.09C540.66,57.65,540.58,57.79,540.58,58Zm.25,8.76v.4c0,.27.11.4.24.4h.2v-.4c0-.26-.06-.4-.2-.4Zm2.83-28.68.6.2c0-.14,0-.2.1-.2l.1.4v.39a3.36,3.36,0,0,0-1.24.6c-.14,0-.2-.13-.2-.4v-.2C543,38.73,543.23,38.46,543.66,38.1Zm.25-3.19c.37.33.55.6.55.8v.2c0,.26-.07.39-.2.39h-.45l-.15-1C543.7,35,543.78,34.91,543.91,34.91Zm1.5.4.1.4a1.38,1.38,0,0,1-.45.79h-.35v-.79A.89.89,0,0,0,545.41,35.31Zm1.24,3v.2c0,.19-.26.53-.79,1h-.35v-.8A5.08,5.08,0,0,1,546.65,38.3Zm-.25-2.79h.15c.13,0,.2.16.2.4v.19a2.6,2.6,0,0,1-.89.4l-.15-.4A.68.68,0,0,1,546.4,35.51Zm1.4,3.18h.1v.2c-.14.6-.29.93-.45,1h-.25c-.1,0-.22-.2-.35-.6C546.92,38.89,547.23,38.69,547.8,38.69Zm.65-3h1c.17,0,.25.16.25.39-.57,1.07-.91,1.6-1,1.6-1-.53-1.49-.86-1.49-1A1.14,1.14,0,0,1,548.45,35.71Zm.24,54.23c.57,1.33,1.36,2,2.39,2h3q2.59,0,2.59-4.59,6-32.11,6-34.26c0-1.06-.73-1.73-2.19-2h-3.19c-1.73,0-2.59,1.52-2.59,4.58Q548.7,87.95,548.69,89.94Zm.45,16.69h.25q.45.39.45.6a3,3,0,0,0,.9-.4l.34.79v.2h-1.49a1.82,1.82,0,0,0-.45-1Zm1-66.94h.2c.16,0,.25.17.25.4s-.09.4-.25.4h-.2c-.17,0-.25-.13-.25-.4S550,39.69,550.09,39.69Zm.45,62v.6l1.14-.2v-.4ZM551,36.5h.09c.27.27.47.4.6.4v.6h-.6Zm.89,70.53h.1v.2c0,.26-.07.39-.2.39l-.1-.39ZM553,39.29l.1,1a1.38,1.38,0,0,1-.45.79,2,2,0,0,0-.8-.19v-.6C551.88,40,552.26,39.63,553,39.29Zm-.1,66.94h.1c.16,0,.25.16.25.4v.2c0,.26-.09.4-.25.4h-.55V107A1.4,1.4,0,0,1,552.93,106.23Zm1.24-.2h.25v.4c0,.2-.17.46-.5.8h-.3V107A2.55,2.55,0,0,1,554.17,106Zm1.4-.6h.2v.2c0,.27-.07.4-.2.4Zm.55,0h.44v.4h-.44Zm5.82-67.33a.76.76,0,0,0,.55.2v.39h-.9V38.3A.75.75,0,0,0,561.94,38.1Zm4.88.2.15.39v.2h-.15c-.13,0-.2-.13-.2-.39Zm.7,5,.35.39c.17,0,.25-.13.25-.39s-.08-.4-.25-.4h-.1C567.6,42.91,567.52,43,567.52,43.28Zm.6-4.59h.3c0,.27-.07.4-.2.4h-.1Zm6,16.94-.1,1a2.6,2.6,0,0,1,.1.6h.45v-.4a3.44,3.44,0,0,1-.35-1.19Zm.1,5.18c-.13.69-.2,1.09-.2,1.19a3.91,3.91,0,0,1,.2,1.2v1c0,2.13.12,3.19.35,3.19,0-.13,0-.2.1-.2l-.1-1.39V63a3.91,3.91,0,0,0-.2-1.2,2.71,2.71,0,0,0,.1-.79v-.2Zm-.1-2.19v.2c.1.53.22.79.35.79h.1v-1Zm1.7,18.32h.25c.13,0,.2.17.2.4-.14,0-.2.17-.2.4.1,0,.21.27.35.8a20.54,20.54,0,0,0-.15,2.19v.6c0,.26-.07.4-.2.4s-.38-1.33-.45-4c-.1,0-.15-.06-.15-.2C575.72,77.54,575.84,77.34,575.84,76.94Zm-.1,5.18h.1c.2,0,.4.67.6,2l-.25.2h-.1c-.1,0-.3-.47-.6-1.4v-.4C575.52,82.26,575.61,82.12,575.74,82.12Zm-.1,2.2h.2c.53.36.79,1.22.79,2.59,0,.13,0,.19-.09.19l.09,1v.2l-.09,2.39h.34v.4l-.25.6a2.25,2.25,0,0,1,.35,1c0,.14,0,.2-.1.2l.1,1v1c-.76-.16-1.14-.43-1.14-.79v-.8a2,2,0,0,1,.15-.8l-.15-.4.15-2c-.17,0-.25-.13-.25-.4l.25-.79-.15-.4a1.9,1.9,0,0,0,.15-.6,3.26,3.26,0,0,1-.25-1.19c.06,0,.1-.07.1-.2s-.22-.27-.35-.8c.13,0,.25-.2.35-.6-.13,0-.2-.13-.2-.4Zm1.59-4.59a13.64,13.64,0,0,1,.45,2.59c.07,0,.1.07.1.2v.2h-.35a4.13,4.13,0,0,0-.45-1.59c0-.1,0-.5-.1-1.2A.67.67,0,0,0,577.23,79.73Zm.55,12.75h.45l-.1,1c.16,0,.28.73.35,2.19l-.25.2H578v-.6a2.71,2.71,0,0,0-.1-.79,2.83,2.83,0,0,0,.1-.8c-.17,0-.25-.13-.25-.4Z"/><path class="cls-2" d="M615.08,37.4c.14,0,.52.28,1.15.85h.35A3.94,3.94,0,0,1,619,37.6c0,.1.31.45.94,1v.6h-2.39q-2,0-2,.6h2.79c.7.83,1.13,1.24,1.3,1.24.3-.66.53-1,.69-1h.4a3.18,3.18,0,0,1,1.1,1.84h.55L624,40.69a1.23,1.23,0,0,0,.55.2,6.79,6.79,0,0,1,2.94-.65l.19.45-1.09,1.59v2.89c0,.3-1.73,1-5.18,2.24l.35-.2a9.08,9.08,0,0,0,1.69.2h.7c.26,0,.4.17.4.4l-.2,1H626c.17,0,.35.22.55.65v.2l-.4.6c.13.4.27.6.4.6a16.24,16.24,0,0,0-.4,3.48c.27,0,.4.17.4.4s-.07.4-.2.4l.2,1.44v1.85l-.4.59v1.65c0,.26.17.4.4.4l-.2,1.39v.45l.2,1.19a.18.18,0,0,1-.2.2l.2,1.45v.6l-.2,1.24a1.61,1.61,0,0,1,.2.8l-.2.79.2,1a1.61,1.61,0,0,0-.2.8c.27,0,.45.35.55,1a23.58,23.58,0,0,1-.9,2.84l.15.4v1.25c.63,0,.95.61.95,1.84-.63.73-.95,1.19-.95,1.39s-.12.4-.35.4v.45a2.07,2.07,0,0,0,.35.6l-.75.6.2,1.44-.2,1.39a25.28,25.28,0,0,1,.75,3.89v.6c0,.3-.12.44-.35.44l-.4-.19v2.24l1.15,1.19v1.84a9.18,9.18,0,0,0,.35,1.85c-.1,1.49-.28,2.24-.55,2.24h-1.1l-.54-.4h-.4a1.63,1.63,0,0,0-1.1,1.39h-.4c-.1,0-.58-.06-1.44-.19l-.4.59v.25c0,.27.17.4.4.4l.75-.65h.89v.45c0,1-.93,1.63-2.79,1.79h-1.09l-.35-.19.15-.4v-.2h-2.74a1.25,1.25,0,0,1-.75,1.24h-2c-1.23,0-1.84.14-1.84.4l-1-.2h-3.14a.18.18,0,0,1-.2-.2,2.65,2.65,0,0,1-1.44.4h-3.54a15.14,15.14,0,0,0-1.49.4h-.9v-.4c.6-.36.9-.65.9-.85v-.59h.2c.26,0,.4.2.4.59h1.84a4.51,4.51,0,0,1,1.3-1c0,.13,0,.2.14.2l-.14.4v.2a1.74,1.74,0,0,1,1.29.44H606a4.49,4.49,0,0,1,3-1.44c0-.27.15-.4.35-.4a1,1,0,0,0-.75-.85c-1.59.14-2.89.2-3.89.2a1.83,1.83,0,0,1-1.29.65h-.15a3.7,3.7,0,0,0-.55-.4h-1.49a3.17,3.17,0,0,0-1.3,2h-.2c-.2,0-.49-.74-.89-2.24-1.3-.13-2-.2-2.24-.2l-.4.2c-.73-.13-1.1-.26-1.1-.4l-1.49,1h-.35l-.75-.65H591a1.09,1.09,0,0,0-.7.25c-.13,0-.2-.08-.2-.25a67.51,67.51,0,0,0-8.51.85,5.29,5.29,0,0,0-1.3-.2c-.1,0-.6.07-1.49.2v-.2a2,2,0,0,1-1.1.4,11.87,11.87,0,0,1-1.49-.4q-1.8,0-5.73.4a1.61,1.61,0,0,1-.2-.8h-2c-.27,0-.4-.15-.4-.45,0-.66.17-1,.4-1l-.2-1c0-.36.07-1.71.2-4-.27,0-.4-.15-.4-.45s.07-.4.2-.4l-.2-2V89l.4-.6V86.71c0-.67-.13-1-.4-1l.2-1.25c0-1.36-.07-3-.2-5.08a10.36,10.36,0,0,0,.2-1.64l-.2-.4.2-1-.2-1.45a1.6,1.6,0,0,0,.2-.79.35.35,0,0,1-.4-.4v-2a5.3,5.3,0,0,0,.75-2.25l-.15-.44v-1.4c-.63,0-1-.81-1-2.44,0-.43.32-.65,1-.65v-1l.35-.6v-.2a2.13,2.13,0,0,1-.35-.65v-.2a5.32,5.32,0,0,0,.69-1v-.2a2.38,2.38,0,0,1-.34-.65,14.27,14.27,0,0,1,.34-2,37,37,0,0,1-.69-5.08v-.6l.15-.4.4.2H569V49.45a2.59,2.59,0,0,1-1.09-1.84V46.17a5.85,5.85,0,0,0-.35-2.25c.07-1.89.25-2.84.55-2.84h.55a2.06,2.06,0,0,1,1.29.6c.13-.4.5-.6,1.1-.6h4.83c.13,0,.81.14,2,.4a27.2,27.2,0,0,0,3.34-.4q0,.3.54.6H582a20.69,20.69,0,0,1,6.68-.79l.4.19.89-.39,1,.2a18.29,18.29,0,0,0,6.47-1,5.29,5.29,0,0,1,.75.2l2.39-.2.2.4a1.57,1.57,0,0,0-.2.65,1.54,1.54,0,0,1,1.1,1.39c.73-.73,2.09-1.2,4.08-1.39,0-.57.55-1,1.64-1.25a.18.18,0,0,1,.2-.2h1.3l.55.4a9.54,9.54,0,0,0,1.49-.4c1.23.4,1.84.88,1.84,1.45a2.07,2.07,0,0,1,1.1.39l.2-.39a2.88,2.88,0,0,1-.2-1.45h.6v-.2l-.95-.79A1.69,1.69,0,0,1,615.08,37.4Zm-45.47,5.08a6.47,6.47,0,0,0,.15.85,2,2,0,0,1-.15.79c.1,3,.33,4.49.7,4.49v-3c0-.73,0-1.9-.15-3.49H570C569.73,42.15,569.61,42.28,569.61,42.48Zm.15,9v1.2h.2c.23,0,.35-.2.35-.6a1.84,1.84,0,0,1-.15-.6Zm.2,2.84-.2.4c0,.27.17.4.4.4h.15v-.4C570.31,54.47,570.19,54.33,570,54.33Zm0-4.68v.4h.35v-.8A.37.37,0,0,0,570,49.65ZM583.71,88.3c.53,1.46,1.32,2.19,2.39,2.19h21.11q2.79,0,2.79-5.58c0-1.09-.79-1.82-2.39-2.19H592.87l-.4-.2q4.38-24.3,5.38-30.88c-.56-1.32-1.36-2-2.39-2h-3c-1.56,0-2.49,1.4-2.79,4.18ZM590.48,37h.2a.37.37,0,0,1,.35.4l-.35.2h-.2Zm2,4.48-.2.4q0,.15.6.6a1.27,1.27,0,0,1,.55-.2v-.6Zm15-3.68c.73.1,1.1.31,1.1.65s-.12.39-.35.39h-2v-.59h.4l.35.2C607,38.25,607.15,38,607.51,37.8ZM607,40.69v.39h.54c0-.26-.11-.39-.35-.39Zm1.09.39c0,.27.17.4.4.4H609c.23,0,.35-.13.35-.4v-.59h-.75C608.44,40.49,608.26,40.69,608.06,41.08Zm1.3-3.28h.2q1.29.6,1.29.84a4.09,4.09,0,0,1-1.49.4l-.35-.59v-.2C609,38,609.16,37.8,609.36,37.8ZM614.74,100h-1.65c-2.22.2-3.34.49-3.34.85.1,0,.15.07.15.2s.48-.07,1.15-.2a1.53,1.53,0,0,1,.75.2,28.48,28.48,0,0,0,4.43-.6l.9.2v-.2c0-.23-.44-.51-1.3-.84A2,2,0,0,1,614.74,100Zm3.68.65v.2h1.15V100H619C618.8,100,618.62,100.17,618.42,100.6Zm5.38-14.29v.84c0,.27.15.4.35.4h.2a.35.35,0,0,0,.4-.4c-.4,0-.6-.41-.6-1.24A.37.37,0,0,0,623.8,86.31Zm0,3.09.75.59h.2V89h-.6A.43.43,0,0,0,623.8,89.4Zm.2,1.79c0,.43-.07.65-.2.65l.2,2v1.79a10.35,10.35,0,0,1,.35,2h.55l-.15-1a1.84,1.84,0,0,1,.15-.6,20.92,20.92,0,0,0-.55-4.08l.2-.85Z"/><circle class="cls-3" cx="398.01" cy="70.34" r="32.57"/><polygon class="cls-4" points="402.38 90.23 402.38 74.43 417.37 74.43 417.37 99.85 402.38 90.23"/><path d="M415.87,75.93V97.1l-12-7.69V75.93h12m3-3h-18V91.05l1.38.88,12,7.7,4.62,3V72.93Z"/><polygon class="cls-4" points="377.43 74.43 392.43 74.43 392.43 90.53 377.43 99.8 377.43 74.43"/><path d="M390.93,75.93V89.69l-12,7.41V75.93h12m3-3h-18v29.56l4.58-2.83,12-7.42,1.43-.87V72.93Z"/><polygon class="cls-4" points="391.91 76.06 402.9 76.06 402.9 88.96 391.91 89.16 391.91 76.06"/><path d="M402.4,76.56V88.47l-10,.18V76.56h10m1-1h-12V89.67l12-.22V75.56Z"/><path class="cls-5" d="M401.71,65.89s2.42,1.53,7.17-2.45,7.13-8.67,9.61-6.95c5.12,3.54,3.58,11.64,1.09,13.07s-12.66,2-16.14-.39C400.29,67,401.71,65.89,401.71,65.89Z"/><path class="cls-5" d="M393.1,65.89s-2.42,1.53-7.17-2.45-7.13-8.67-9.61-6.95c-5.12,3.54-3.58,11.64-1.09,13.07s12.65,2,16.13-.39C394.52,67,393.1,65.89,393.1,65.89Z"/><path class="cls-4" d="M412.49,54.51a8,8,0,0,1,1.69-2.29A5.92,5.92,0,0,1,417,50.68c1.14-.29,2.73-.45,3.72.6a3.19,3.19,0,0,1,.91,1.77,2.75,2.75,0,0,1,0,1,3.22,3.22,0,0,1-.16.5l-.13.25-.09.13-.05.07s-.08.18-.15.19l-.22-.33c-.06,0-.12.1-.13.12l0,0a.2.2,0,0,1-.11,0l-.21-.06-.38-.11a5,5,0,0,0-.64-.14,6.6,6.6,0,0,0-.87-.06.75.75,0,0,1-.53-.26,1.22,1.22,0,0,0-.64-.43,2.84,2.84,0,0,0-.94-.07,5.57,5.57,0,0,0-1.11.15,13.08,13.08,0,0,0-2.39.83Z"/><path class="cls-4" d="M396.53,70.8a.92.92,0,0,1-1.83,0c0-.51.41-1.46.91-1.46S396.53,70.29,396.53,70.8Z"/><path class="cls-4" d="M399.26,70.8a.92.92,0,0,1-1.83,0c0-.51.41-1.46.92-1.46S399.26,70.29,399.26,70.8Z"/><path class="cls-6" d="M30,116.57H29.8v.08l.07.07H30l-.44,1.52.08.07-.15.15h.07l-.14.31h.07l-.36,1.13.08.08c-.1,0-.29.55-.58,1.66l-.07-.07-.07.07h-.79l-.28.08-.22-.08-.08.08H27c-.24,0-.36-.1-.36-.23l-.29-.53h.07l-.65-1.66.08-.08v-.08c-.11,0-.3-.55-.57-1.66v-.15h-.15c0-.15-.05-.23-.14-.23l.07-.07V117l-.14-.16.07-.07v-.15l-.29-.76.22-.15h.28l.08.08h.07v-.23c-.16,0-.35-.23-.58-.68l.07-.08v-.15h-.14l.07-.08v-.07a1,1,0,0,1-.14-.61q-.15,0-.21-.45h-.15l.07-.23.08.08.35-.08h.36l.07.08h.08v-.08l.07.08h.07l.64-.08c.32,0,.52.3.58.91l.28.76h-.14V115h.14v.07l-.07.08v.08c.19.07.29.15.29.22l-.08.23.15.15q0,.15-.21.15l-.08.08v.07l.22.46h-.08l.15.38-.07.08.07.07.36.76.29-.76h-.08l.22-.76h.14l.93.16v-.16l-.72-.3.36-1.59-.06-.08c.1,0,.22-.35.35-1.06l.43-.15h.36l.36.08.43-.08h.35v.08l-.06.23h0l.09-.31.65,2-.16.17.24.09-.08.08.24.51h-.08l.16.34-.24.09v.08h.16l.08-.08.25.77v.08l-.09.09v.08l.24.26.25-.09-.08-.08c.17-.74.31-1.11.4-1.11l-.08-.26.24-.59H33l.32-1.45V114l-.08-.08c.11,0,.16-.2.16-.6h1.94l.16.17v.09L35,115.9h.09l-.32,1,.07.34h-.16a15.63,15.63,0,0,1-.72,2.47h.08a6.51,6.51,0,0,1-.65,1.87h-.08l-.08-.08-.4.17h-.08l-.08-.09-.41.09h-.07l-.09-.09h-.08l-.08.09v-.09l-.4.09h-.08a28.73,28.73,0,0,1-1.13-3.75Zm-4.47-1.13v.23c.48.09.72.21.72.38h.14l.07-.08.07.08h.22V116l-.22-.3-.07.08h-.07c0-.12-.12-.19-.36-.23l-.36.07v-.15Zm4.3,1.14v-.15h-.5v.15l.29.08Z"/><path class="cls-6" d="M41.06,116.57h-.17v.08l.08.07H41l-.43,1.52.07.07-.15.15h.08l-.15.31h.07l-.36,1.13.08.08c-.1,0-.29.55-.57,1.66l-.08-.07-.07.07h-.78l-.29.08-.22-.08-.07.08H38.1c-.24,0-.36-.1-.36-.23l-.28-.53h.06l-.64-1.66.07-.08v-.08c-.11,0-.3-.55-.57-1.66v-.15h-.15c0-.15,0-.23-.14-.23l.07-.07V117L36,116.8l.07-.07v-.15l-.28-.76.21-.15h.28l.08.08h.07v-.23c-.16,0-.35-.23-.58-.68l.08-.08v-.15h-.14l.06-.08v-.07a1,1,0,0,1-.14-.61c-.09,0-.17-.16-.21-.45h-.15l.08-.23.07.08.35-.08h.36l.07.08h.08v-.08l.07.08h.07l.64-.08c.33,0,.52.3.58.91l.29.76h-.15V115H38v.07l-.08.08v.08c.19.07.29.15.29.22l-.07.23.14.15q0,.15-.21.15l-.07.08v.07l.21.46h-.07l.14.38-.07.08.07.07.36.76.29-.76h-.08l.22-.76h.14l.93.16v-.16l-.71-.3.36-1.59-.07-.08c.1,0,.22-.35.35-1.06l.43-.15h.36l.36.08.43-.08H42v.08l-.07.23h0l.09-.31.64,2-.16.17.24.09-.08.08L43,116H42.9l.16.34-.24.09v.08H43l.07-.08.25.77v.08l-.09.09v.08l.25.26.24-.09-.08-.08c.17-.74.31-1.11.4-1.11l-.08-.26.24-.59h-.08l.32-1.45V114l-.08-.08c.11,0,.16-.2.16-.6h1.94l.16.17v.09l-.49,2.3h.09l-.32,1,.08.34H45.8a15.63,15.63,0,0,1-.72,2.47h.08a6.51,6.51,0,0,1-.65,1.87h-.08l-.08-.08-.4.17h-.08l-.08-.09-.4.09h-.08l-.09-.09h-.08l-.08.09v-.09l-.4.09h-.08a28.73,28.73,0,0,1-1.13-3.75Zm-4.47-1.13v.23c.48.09.72.21.72.38h.15l.06-.08.07.08h.22V116l-.22-.3-.07.08h-.06c0-.12-.13-.19-.36-.23l-.36.07v-.15Zm4.3,1.14v-.15h-.5v.15l.29.08Z"/><path class="cls-6" d="M52.15,116.57s0,0,0,0H52v.08l.08.07h.07l-.43,1.52.07.07-.15.15h.08l-.15.31h.07l-.35,1.13.07.08c-.1,0-.29.55-.57,1.66l-.08-.07-.07.07h-.78l-.29.08-.22-.08-.07.08h-.07c-.24,0-.36-.1-.36-.23l-.28-.53h.06L48,119.31l.07-.08v-.08c-.1,0-.29-.55-.57-1.66v-.15h-.15c0-.15,0-.23-.14-.23l.08-.07V117l-.15-.16.07-.07v-.15l-.28-.76.21-.15h.29l.07.08h.07v-.23c-.16,0-.35-.23-.58-.68l.08-.08v-.15H46.9l.06-.08v-.07a1,1,0,0,1-.14-.61q-.14,0-.21-.45h-.14l.07-.23.07.08.35-.08h.36l.08.08h.07v-.08l.07.08h.07l.64-.08c.33,0,.52.3.58.91l.29.76H49V115h.15v.07l-.07.08v.08c.19.07.28.15.28.22l-.07.23.14.15q0,.15-.21.15l-.07.08v.07l.21.46h-.07l.14.38-.07.08.07.07.36.76.29-.76H50l.22-.76h.13l.94.16v-.16l-.72-.3.36-1.59-.07-.08c.11,0,.22-.35.35-1.06l.43-.15H52l.36.08.44-.08h.35v.08l-.07.23h0l.09-.31.64,2-.16.17.24.09-.08.08.25.51H54l.17.34-.25.09v.08h.17l.08-.08.24.77v.08l-.09.09v.08l.25.26.24-.09-.08-.08c.18-.74.31-1.11.4-1.11l-.08-.26.24-.59H55.2l.33-1.45V114l-.08-.08q.15,0,.15-.6h1.94l.16.17v.09l-.48,2.3h.08l-.32,1,.08.34h-.17a15.63,15.63,0,0,1-.72,2.47h.08a6.15,6.15,0,0,1-.65,1.87h-.07l-.08-.08-.41.17H55l-.08-.09-.4.09H54.4l-.09-.09h-.07l-.08.09v-.09l-.41.09h-.08a30.55,30.55,0,0,1-1.13-3.75Zm-4.47-1.13v.23c.48.09.72.21.72.38h.15l.06-.08.08.08h.21V116l-.21-.3-.08.08h-.06c0-.12-.12-.19-.36-.23l-.36.07v-.15Zm4.3,1.14v-.15h-.49v.15l.28.08Z"/><path class="cls-6" d="M59,118.79c.93.08,1.4.47,1.4,1.19v.15a1.23,1.23,0,0,1-.87,1.18c-.84,0-1.36-.24-1.57-.74h.18l-.18-.14v-.75A1.6,1.6,0,0,1,59,118.79Z"/><path class="cls-6" d="M63.13,122.27a7.63,7.63,0,0,1-1.68-.06l-.1.1v-.1l-.1.1-1.6,0v-.09l1.2-.07.09.1h.1c.42,0,.68-.1.77-.34h-.06c0-.13-.21-.24-.65-.32l.1-.29a8.49,8.49,0,0,1-.07-2.21v-.7l-.09-.09.1-.1-.08-.71,0-1.29L61,116l.1-.09v-1.31l-.1-.1.1-.1v-.2l-.1-.1V114h.1l-.1-.1v-.43q0-.32,1.14-.27v-.1l1.59.08h.3l.4.11.1-.1h.11l.29,0v-.1l.1.1,1,0,.1-.1.1.1h0l.1-.1.4.11v2.2l-.4.09-.1-.1h-.1l-.11.1-.29-.11-.5.09v-.1l-.1.09h-.3l-1-.11c-.14,0-.17.2-.1.64l.1.1h.2l.1-.1.1.1,1.93.06c.14,0,.23.37.27,1.1h-.1l.1.1v.11l-.11.09v.1h.1l-.1.1v.1l.09.1-.11.5-1.74,0-.7.08v-.1l-.3.09v.6l.79,0,.1.11.11-.1h0l.1.11h.1l.6-.09h.1l.1.1.1-.1.5.11.49,0v.2l-.1.09.1.11,0,.5-.12.59.1.11v.1l-.1.1v.1l.09.3-.1.09h-.61l-.09-.11-.51.19-.1-.11-1.2,0-.69.07.06.37,2.52.06.4-.08.4.11.9,0,.1-.09H68v.1l.1-.1h.11l.09.11.1-.1.6,0v.2l-1.5,0-.4.1-.4-.11-.5,0-.1.1-.1-.11h-.1l-.4.09-.1-.1-.7.08-1,0-.11.1h-.09l-.1-.11h-.09a.27.27,0,0,0-.12.22Z"/><path class="cls-6" d="M66.56,112.91h.09l.87.09v-.09l.1.09H68l.09-.09.61.18.09-.09h.09l.26.09v.34l.44,1.67h-.17v.09c.2,0,.32.23.34.7l-.26.09v.17a.47.47,0,0,1,.53.53l.26.26c.47-.06.7-.44.7-1.14.1,0,.22-.23.35-.7a6.74,6.74,0,0,1,.79-2h.09l1.75.08v-.08l.35.08v.09c-.32,1.34-.59,2-.79,2H73.4l.08.27-.18.7h-.08v-.18l-.35.35H73l.08-.09.09.09v-.17h.09v.26l-.09.61,1.05.09c0,.12-.14.18-.44.18l-1,3.23.09.09-.53,1-.43-.08-.09.08-.09-.08h-.17l-.09.08-.09-.08H70.07c-.16,0-.49-.82-1-2.45a8.32,8.32,0,0,1-.7-1.84l-.61-.09-.09.09c-.35-.08-.52-.19-.52-.35.22,0,.36-.21.44-.62h-.1l-.08.09-.88-3h.09l-.09-.08Zm1.32,3.59-.09.26.09.09h.17v-.09h-.17l.08-.08v-.18Zm.08-.26v.08l.09.09h.17v-.09Zm.18-.26v.08l.18.18h.17v-.09c0-.12-.09-.17-.27-.17Zm1-.53v.17l.09-.08h.09l.09.08h.17v-.08Zm.09,1.14v.17h.09l.09-.08.08.08h.35l-.09-.08v-.09l.09-.09v-.09Zm1.84,0-.09-.09v.09l.35.17c0-.17.15-.26.44-.26l.09.09v-.27h-.09Zm0,.79v.43h.18l.08-.43Zm1-1.76c0,.24-.06.36-.17.36h-.09v-.18c-.47.16-.71.36-.71.61a1.07,1.07,0,0,0,.62-.43l.26.08-.08.09v.09H72l.26-.53v-.09Zm-.61-.17.17.17h.09l-.18-.17Zm.44-.26v.17l.08.09h.09l-.09-.26Zm.26.87h.08l.18-.17h-.09Zm.79-1c0,.17-.18.26-.53.26v.09h.17l.53-.17V115Zm-.53,1,.26.35h.09l-.09-.09v-.17h.18V116Z"/><path class="cls-6" d="M77.16,113.18v0l0,0c.14,0,.21,0,.21.07s0,.22,0,.22l0,.12,0,0v0l0,.15,0,.12v.41h0v0l0,.07v0l0,.13,0,.26,0,0v.24l0,0,0,0v.1l0,0,0,0v0l0,.07,0,0h0l0,0v0l0,0,0,.27,0,0v0l0,.15,0,0v0l0,0v0l0,.08h0l0,.07,0,0h0l0,0v0l0,.05v0h0v0l.07.1v.17l0,.1,0,.14h0l0,.1,0,.07,0,.22v.1l0,0,0,.13,0,.12,0,0v0l0,.07-.09,0,0,0v0l0,0h0s0-.08-.09-.12l-.09,0-.08,0v0h0v0h0v0a.11.11,0,0,0,.12.1v-.08h.06l.14.08.07,0,0,0v0h0l.07.12h0v0l0,0v0h0l0,0v0l-.09.1,0,0h0l0,0v.07h0v0h0l.11-.05a.27.27,0,0,0,0,.19l0,0h0l0,.12,0,0v0l0,.1,0,0v0l0,.12-.07,0v0l0,.07,0,.07h0l0,0v0l0,0s0,.07-.09.07v0h0l0,0v0l0,.07,0,.12,0,0h0a.21.21,0,0,1-.16.21v0l0,0h0l0-.07,0,0h0l0,0,0,.15h0l0,0v0l0,0,0,.12v0l0,0h0v0l0,0h0v0h0l0,0h0l0,.17v.1l0,0,0,0v0l0,.1,0,.09,0,0v0l0,0,0,.12v0l0,0v0h0l0,.08,0,.07,0,.17,0,0v0l0,.07,0,0v0l0,.1,0,.05h-.09l-.2,0-.1,0-.09,0-.16,0-.07,0-.12,0-.42,0,0,0v0l-.08,0,0,0-.12,0-.06,0-.12,0h-.14l0,0h0l0,0v0l0,0h-.28c-.17,0-.25,0-.25-.07l0,0,0,0v0c0-.11,0-.17,0-.17l0,0v0l0,0v0l0,0h0l0-.07,0,0h0v0h0l0,0h0v-.08h0v0l-.06-.12,0-.07,0-.1,0-.08,0,0v0l0-.15h0l0,0v0h0l0,0c-.08,0-.11,0-.11-.07l0,0v0l0-.08h0l0,0v-.1l0-.07,0-.12v-.39l0-.1.05-.19-.05-.27,0,0h0l0,0v0l0,0,0,0v-.37l0-.1,0-.09v0l0-.07,0-.12v-.59l0-.09-.05-.17,0,0v-.85l0,0L75,116l-.07-.32.05-.12h0l0,0v0l0,0v0l0,0v0h0l0-.07h0l0-.07,0-.1h0l0,0v-.2l0-.17,0,0h0l0,0v0l0,0-.05-.15,0,0V114l0-.14,0-.13v0l.06-.2h0v.05h0l0-.05,0,0,0-.08h0l0,0v0l0,0h-.07l0-.07h0l0,0h0s.06-.08.16-.1l0,0h0l.09,0,0,0v0h0l.09,0,0,0,.12,0h.28l0,0h0v0h0l0,0,0,0h0l.1,0,.09,0,.07,0,.11,0h.07l.14,0,0,0h0l0,0Zm-2.16,5,.08.09h0v-.09Zm.15-2.71v0l.13,0,0,0v-.08h0Zm.28,3.18v.08l.2,0v-.08l-.07-.09Zm.09-2.89v.09h0l.07-.09Zm0-2.5v0l0,.07h.05v-.05l-.05,0Zm.05.12,0,0,0,0h0v0h.05l-.05-.1Zm.21,1.3v0l0,0v0l-.08.09,0,.12,0,.17c0,.19.07.29.12.29h0v-.09l0,0h0v-.08c.11,0,.16,0,.16-.09v0l-.12,0,0-.12-.09-.17,0,0,0,0,.12,0v-.08l0,0,0,0Zm0,.83v.17l.08.08H76A.22.22,0,0,0,75.79,115.53Zm.29-2.13h0l0,0,0,0v-.05h0Zm.08,4.51,0,0v.13h.11l0-.17h0l0,0Zm0-1.37.07.08c.11,0,.17-.09.17-.13s-.09,0-.09-.12Zm.07-1.3v.16l.08-.07Zm.2,0,0,0v0l0,0h.08v0Zm0,1.8,0,.13,0,0h0v-.17Zm.18-3.78v0h.07l0,0Zm.06,1v0l.08.09v0Zm.12,3.88v.13l.08.09,0-.17,0,0Zm.12-1.41-.09.12,0,.13L77,117v-.12Zm-.09.83v.13l.17,0-.08-.09Zm.09-2.09v0l.08.08h.08v-.13Zm0,3v.09H77l.08-.09L77,118.5Zm.16,1,0,.13.26.12v-.2Zm.12-5,0,.17h.08l0-.17Zm.07,4v0l.09.09,0,0v0l0,0Zm0,1.67v.09l.09.08h0v-.08Zm.13-4.88v0l.09.21h.07l-.07-.25Zm.31,1.75h.17l-.08-.09Z"/><path class="cls-6" d="M80.31,113.18l.28.52h.1v-.21l-.19-.2.1-.1h.11l.17.61,0,.4-.09-.1h-.11v.31h.2l-.11.1v.1h.1l-.1.09v.1l.27.63-.1.09v.1l.08.61v.1l-.1.1L81,117l-.11.3c-.07,1.34,0,2,.21,2l.29.11.11-.09v.1l1-.16.41.18v-.09l.09.1h.11l.3-.09-.1.09v.11h.1c0-.13.13-.2.36-.19l.09.1v.1l-.11,0,.1.1,0,.31-.11.39.2.42-.12.29.09.31v.1h-.1v-.2a.8.8,0,0,1-.58.29l-.09-.11v-.1l-.92.16-.09-.11-.52.08-.4,0v-.2h-.1v.2l.1.11-.5-.12-.31.08v-.2l-.11.1h-.1l-.1-.1H80v.2l-.61,0-.1-.1-.1.1-.81,0-.12-1.62.1-.1-.07-.71.06-1.11-.1-.11.1-.09v-.1l-.06-1,.11-.1h-.1l.1-.09-.16-.72.12-.3-.08-.51h.1l-.17-.72c0-.68.28-1,.75-1Zm-1.23.34v.1l.21-.19v-.1Zm.39.82,0,0v.06l.16-.06v0Zm1.64,5.56,0,.29.22-.18v-.11Zm0-5.23.11.27-.06.06h.06l.05-.06v0l-.05-.22Zm1,6.28.08.31h.11V121Zm.17-1.4.09.3h.09l0-.3Zm.12,1.62.2.22h.09l0-.21Zm.06-1.11,0,.5.22-.18-.1-.31Zm.81-.16-.22.39.42-.28-.09-.11Z"/><path class="cls-6" d="M85.46,118.79c.92.08,1.39.47,1.39,1.19v.15a1.23,1.23,0,0,1-.87,1.18c-.84,0-1.36-.24-1.57-.74h.18l-.18-.14v-.75A1.59,1.59,0,0,1,85.46,118.79Z"/><path class="cls-6" d="M87.31,117.43v-.16l.17-.17h-.17l.21-1.66a3.55,3.55,0,0,1,3-2.34h.17l.16.17.17-.17,1.24.05.17-.16.16.16-.16.17v.33h.16v-.33h.34l0,1.28v.17l-.16.16.16.17-.12.43-.94-.26h-.16l-.17.17v-.17a1.88,1.88,0,0,0-1.82,1.33v.83l.22,1.16-.16.17H90v-.17l.51.61h.77L92,119l.49.22v-.16l-.15-.17.49-.17H93v.17l-.17.17.11,1.49v.33c0,.2-.53.43-1.6.67C88.72,121.51,87.38,120.12,87.31,117.43Zm.71-1.67-.17-.16.17-.16v-.17l-.33.33v.16Z"/><path class="cls-6" d="M95.59,112.92l.08.09h2l.08.26H97.7l1,3.25V117l1,.17.26-.09v.09l.1.27-.27.08a13,13,0,0,0,1.14,3.17l.35,1.14-.09.09h-.43l-.09-.09h-.09l-.09.09v-.09l-.09.09H99.19c-.38,0-.71-.38-1-1.14l-.35-.09H95.76l-.44,1.06-.09.08v.09l-.09-.09-.08.09H93.12v-.53a7.5,7.5,0,0,1,.71-1.93h-.09a4.21,4.21,0,0,0,.53-1.76l-.36-.09-.44.09-.35-.09v-.44h.18l.08.09h.09l1.5-3.61-.09-.08c.1,0,.22-.18.35-.53Zm.43,3.52-.17.61h.09l.44-.08-.09-.53Zm.36,2,.08.09h.36l.35-.09.44.18c-.15-.71-.3-1.06-.44-1.06h-.35C96.73,117.58,96.58,117.88,96.38,118.46Z"/><path class="cls-6" d="M101.26,113l.87,0,1.22.15.52-.1.17.17h.09V113h.08l.36.07.25-.09V113l.09.26h.18l.16-.18V113c.47.14.7.25.71.33v.44h.25v.17l-.69,0v.18H106l.44-.1v-.18l-.08-.08v-.09h.09q.53.28.54.51l.86,0v.18l-2.35,0h-.7l-.09-.08-.08.09-1.31-.14-.09.09h-.08a16.3,16.3,0,0,0-2.78-.1v-.09h.53l.07-.27-.09-.51Zm.22,1.65.09.08H102a6.93,6.93,0,0,1,2.35.11l.43-.1,1,0,.09.08.08-.09,1,0,.09.08H107l.08-.27c.27,0,.51.49.74,1.46v.53a2.84,2.84,0,0,1-1.33,2.47l1.37,2.48v.09l-2.26.06q-.52,0-.9-1c-.27-.81-.6-1.2-1-1.19-.12,0-.2.18-.25.53h.08l-.14.88.08.08v.26l-.09.09v.09l.08.08h-.08l.09.08v.17l-2.44.07,0-.79.08-.43-.1-.08.09-.1H101l.16-.61h-.08l.16-.44-.09-.09V119l.09-.09v-.09l-.09-.08.14-1.4-.09-.08.07-.61,0-1.39A.82.82,0,0,1,101.48,114.6Zm-.46-.86v.08h.35v-.08Zm.16-.27h.27v-.17h-.09Zm2.35,3.24.09.09h-.09l.09.08v.18l-.09.08v.1l.61.06h.53l.09.09h.08c0-.12.17-.21.52-.28l.24-.7c0-.58-.49-.86-1.41-.84l-.44,0C103.63,115.58,103.56,116,103.53,116.71Zm.66,5.11h.35v.08h-.35Zm.52,0,.7,0v.09l-.7,0Zm.4-8-.08.26.08.08h.1l.25-.1-.27-.25Zm1-.38.18.17v.08l-.18-.17Zm1.18,8.31.69,0v.18l-.7-.07Z"/><path class="cls-6" d="M115,119.29c0,.58-.1.64-.26.18l.19-.38v-.18l-.44.21.11.09c.15,1-.62,1.79-2.32,2.27v-.09h-.1l-.1.1-2.37.05-.59-.18-.2.19h-.39l.15-.09-.09.09h.22l-.1-.09v.09l-.3-.09h-.1l.09-.28v-.09l-.09-.1.07-.83-.11-.66.24-.38h-.17l.1.09c0-.08.11-.14.33-.19v-.28l.08-.38-.11-.37,0-2.7.1-.1-.11-.09v-.19l.09-.56v-.09l-.11-.09.09-.38v-.28h.11l.1-.1v-.09l.3.09.59-.11h.1l.2.19.2-.2.49.09h.1l.09-.1.21.16h-.06l1,0v-.19h.3l.1.09v-.09l1,.43v.09h-.29v.09h.29l.1-.1q1.75,1.14,1.6,4.62C115.1,118.43,115,118.71,115,119.29Zm-4.85.19.5.08c.79,0,1.18-.15,1.18-.39l-1.68.12H110v.28Zm2-.51.23-.19h.2l.1.09.09-.09h0v.09l0,.09h0l.38-.19h-.38v-2.39c0-.4-.27-.69-.78-.88l0,.09h-.1l-.39-.08c-.31.08-.47.21-.49.38V116l.1.09v2.55c0,.12.35.17,1,.16v.09l-.09.1Zm-.78-4.45-.1-.28h-.1v.28Zm1.11-.67v-.09l-.1-.09-.2.18Z"/><path class="cls-6" d="M118.57,113.1a4.57,4.57,0,0,1,2.91.79V116h-.11a6.36,6.36,0,0,0-2.35-.8c-.53.11-.79.22-.79.35s.67.51,2,.79a3.18,3.18,0,0,1,2,2.82l-.11.27h.11c0,.83-.75,1.56-2.24,2.2v.09h.23l-.11.08.11.09v.18h-2.58l-.11-.09-.11.09-.56-.09h-.34v-.18h.34l.89-.17v-.17c-1.19-.29-1.79-.61-1.79-1l.11-.09v-.53l-.11-.36.11-.35-.11-.08.11-.09v-.09l-.11-.35h.11a6.75,6.75,0,0,0,2.47.79H119a.94.94,0,0,0,.67-.26c0-.26-.82-.62-2.47-1.06a2.64,2.64,0,0,1-1.45-2.29V115A2.91,2.91,0,0,1,118.57,113.1Zm1,8.45.22.18.22-.26Z"/></g></svg>