<svg xmlns="http://www.w3.org/2000/svg" viewBox="0 0 250.12 250.33"><defs><style>.cls-1,.cls-3,.cls-4{fill:none;}.cls-1,.cls-2{stroke:#231f20;}.cls-2,.cls-5{fill:#231f20;}.cls-3{stroke:#ec1c24;stroke-width:0.67px;stroke-dasharray:10.65 10.65;}.cls-3,.cls-4{fill-rule:evenodd;}.cls-4{stroke:#0071bb;stroke-width:0.74px;}.cls-5{font-size:6px;font-family:Arial-BoldMT, Arial;font-weight:700;}.cls-6{fill:#92187b;}.cls-7{fill:#17192e;}.cls-8{fill:#fff;}</style></defs><title>LawfulEvilFace_3</title><g id="ButtonTemplate"><circle class="cls-1" cx="125.06" cy="125.27" r="124.56" transform="translate(-26.66 216.44) rotate(-76.05)"/><rect class="cls-2" x="123.58" y="0.5" width="2.95" height="9.13"/><path class="cls-3" d="M125,228.66c57,0,103.54-46.44,103.54-103.46A103.74,103.74,0,0,0,125,21.66C68,21.66,21.56,68.18,21.56,125.2A103.61,103.61,0,0,0,125,228.66Z"/><path class="cls-4" d="M125,240.66c63.64,0,115.54-51.82,115.54-115.46S188.66,9.66,125,9.66,9.56,61.57,9.56,125.2A115.62,115.62,0,0,0,125,240.66Z"/><text class="cls-5" transform="translate(95.84 234.79) rotate(13.78) scale(1.01 1)">C</text><text class="cls-5" transform="translate(100.06 235.82) rotate(11.74) scale(1.01 1)">u</text><text class="cls-5" transform="matrix(0.99, 0.17, -0.17, 0.98, 103.64, 236.56)">s</text><text class="cls-5" transform="matrix(0.99, 0.15, -0.15, 0.99, 106.93, 237.13)">t</text><text class="cls-5" transform="translate(108.88 237.44) rotate(7.2) scale(1.01 1)">o</text><text class="cls-5" transform="translate(112.5 237.91) rotate(4.94) scale(1.01 1)">m</text><text class="cls-5" transform="matrix(1.01, 0.04, -0.04, 1, 117.82, 238.36)">B</text><text class="cls-5" transform="matrix(1.01, 0.02, -0.02, 1, 122.15, 238.53)">u</text><text class="cls-5" transform="translate(125.92 238.57) rotate(-0.93) scale(1.01 1)">t</text><text class="cls-5" transform="translate(127.9 238.54) rotate(-1.9) scale(1.01 1)">t</text><text class="cls-5" transform="translate(129.9 238.48) rotate(-3.32) scale(1.01 1)">o</text><text class="cls-5" transform="matrix(1, -0.09, 0.09, 1, 133.55, 238.27)">n</text><text class="cls-5" transform="translate(137.2 237.94) rotate(-6.92) scale(1.01 1)">s</text><text class="cls-5" transform="translate(140.5 237.53) rotate(-8.17) scale(1.01 1)">.</text><text class="cls-5" transform="translate(142.16 237.3) rotate(-9.44) scale(1.01 1)">c</text><text class="cls-5" transform="translate(145.42 236.76) rotate(-11.21) scale(1.01 1)">o</text><text class="cls-5" transform="translate(149.01 236.07) rotate(-13.49) scale(1.01 1)">m</text><text class="cls-5" transform="translate(154.3 15.54) rotate(-166.22) scale(1.01 1)">C</text><text class="cls-5" transform="translate(150.08 14.51) rotate(-168.26) scale(1.01 1)">u</text><text class="cls-5" transform="translate(146.49 13.76) rotate(-170.03) scale(1.01 1)">s</text><text class="cls-5" transform="translate(143.2 13.2) rotate(-171.38) scale(1.01 1)">t</text><text class="cls-5" transform="translate(141.26 12.89) rotate(-172.8) scale(1.01 1)">o</text><text class="cls-5" transform="translate(137.62 12.41) rotate(-175.07) scale(1.01 1)">m</text><text class="cls-5" transform="translate(132.31 11.96) rotate(-177.48) scale(1.01 1)">B</text><text class="cls-5" transform="translate(127.97 11.79) rotate(-179.07) scale(1.01 1)">u</text><text class="cls-5" transform="matrix(-1.01, 0.02, -0.02, -1, 124.2, 11.76)">t</text><text class="cls-5" transform="matrix(-1.01, 0.03, -0.03, -1, 122.21, 11.79)">t</text><text class="cls-5" transform="matrix(-1, 0.06, -0.06, -1, 120.21, 11.84)">o</text><text class="cls-5" transform="matrix(-1, 0.09, -0.09, -1, 116.56, 12.06)">n</text><text class="cls-5" transform="translate(112.91 12.39) rotate(173.07) scale(1.01 1)">s</text><text class="cls-5" transform="translate(109.59 12.8) rotate(171.81) scale(1.01 1)">.</text><text class="cls-5" transform="translate(107.96 13.03) rotate(170.55) scale(1.01 1)">c</text><text class="cls-5" transform="translate(104.66 13.57) rotate(168.77) scale(1.01 1)">o</text><text class="cls-5" transform="translate(101.1 14.26) rotate(166.5) scale(1.01 1)">m</text><path class="cls-1" d="M125.06,246.88A121.72,121.72,0,1,0,3.35,125.16,121.72,121.72,0,0,0,125.06,246.88Z"/></g><g id="Main"><circle class="cls-6" cx="125.06" cy="125.16" r="115.81"/><circle class="cls-7" cx="125.06" cy="125.16" r="102.66"/><polygon class="cls-8" points="142.06 186.08 142.06 141.27 182.85 141.27 182.85 212.26 142.06 186.08"/><path d="M181.35,142.77v66.74l-37.79-24.25V142.77h37.79m3-3H140.56V186.9l1.38.88L179.73,212l4.62,3V139.77Z"/><polygon class="cls-8" points="63.43 141.27 104.23 141.27 104.23 186.99 63.43 212.2 63.43 141.27"/><path d="M102.73,142.77v43.38l-37.8,23.36V142.77h37.8m3-3H61.93v75.12l4.58-2.83,37.8-23.36,1.42-.88v-48Z"/><polygon class="cls-8" points="104.74 142.12 141.54 142.12 141.54 184.89 104.74 185.57 104.74 142.12"/><path d="M141,142.62V184.4l-35.8.66V142.62H141m1-1h-37.8v44.46l37.8-.7V141.62Z"/><path class="cls-8" d="M136.72,111.14s7.61,4.83,22.59-7.72S181.78,76.1,189.6,81.51c16.12,11.15,11.29,36.7,3.42,41.19s-39.87,6.43-50.84-1.23C132.23,114.53,136.72,111.14,136.72,111.14Z"/><path d="M167.8,127.15c-10.12,0-20.47-1.47-25.9-5.27-4.39-3.06-6.64-5.87-6.69-8.36a3.5,3.5,0,0,1,1.21-2.78l.27-.21.29.19c.11.06,7.58,4.4,22-7.69a144.81,144.81,0,0,0,12.68-12.36c7.34-7.8,12.64-13.43,18.21-9.58,7.37,5.1,11.35,14,10.9,24.29-.35,8.13-3.44,15.43-7.51,17.76S178.62,127.15,167.8,127.15Zm-31-15.4a2.62,2.62,0,0,0-.6,1.78c0,1.47,1.16,4,6.26,7.53,10.75,7.5,42.76,5.52,50.3,1.21,3.73-2.13,6.68-9.25,7-16.93.43-10-3.38-18.52-10.47-23.42-4.87-3.37-9.66,1.73-16.91,9.44a146.71,146.71,0,0,1-12.76,12.44C146.15,115.09,138.51,112.56,136.81,111.75Z"/><path class="cls-8" d="M109.57,111.14S102,116,87,103.42,64.5,76.1,56.69,81.51c-16.13,11.15-11.29,36.7-3.42,41.19s39.87,6.43,50.83-1.23C114.06,114.53,109.57,111.14,109.57,111.14Z"/><path d="M78.48,127.15c-10.81,0-21.38-1.68-25.46-4s-7.16-9.63-7.51-17.76C45.06,95,49,86.19,56.41,81.09c5.57-3.85,10.87,1.78,18.21,9.58A146,146,0,0,0,87.29,103c14.53,12.18,21.94,7.74,22,7.69l.29-.19.28.21a3.5,3.5,0,0,1,1.21,2.78c0,2.49-2.3,5.3-6.69,8.36C99,125.68,88.61,127.15,78.48,127.15ZM60.13,80.86A5.42,5.42,0,0,0,57,81.92c-7.08,4.9-10.89,13.43-10.47,23.42.33,7.68,3.28,14.8,7,16.93,7.55,4.31,39.56,6.29,50.31-1.21,5.12-3.57,6.23-6.08,6.26-7.56a2.6,2.6,0,0,0-.6-1.75c-1.7.82-9.34,3.35-22.83-8A146.71,146.71,0,0,1,73.89,91.36C68.19,85.3,64,80.86,60.13,80.86Z"/><path class="cls-8" d="M171,75.56a29.73,29.73,0,0,1,6.08-5.65,18.65,18.65,0,0,1,8-3.29c3-.47,6.46-.11,9,2a9.74,9.74,0,0,1,2.84,3.74,7.63,7.63,0,0,1,.72,3.35c0,.2,0,.39,0,.59s0,.2-.07.3l-.05.16a.4.4,0,0,1-.17.27l-.22-.33c-.11.08-.08.06-.11,0l-.06-.09-.13-.2a3.81,3.81,0,0,0-.29-.41c-.2-.26-.39-.52-.61-.76a16.76,16.76,0,0,0-1.3-1.35,15.06,15.06,0,0,0-2.81-2,25.54,25.54,0,0,0-3-1.42c-.53-.21-1.08-.32-1.64-.5a12.51,12.51,0,0,0-1.75-.16,11.12,11.12,0,0,0-1.81.14,14.88,14.88,0,0,0-1.83.38c-.62.13-1.21.37-1.83.56s-1.21.46-1.79.76a32.39,32.39,0,0,0-6.79,4.19Z"/><path class="cls-8" d="M120.39,126.6a2.89,2.89,0,0,1-5.78,0c0-1.59,1.29-4.59,2.89-4.59S120.39,125,120.39,126.6Z"/><path class="cls-8" d="M129,126.6a2.89,2.89,0,0,1-5.78,0c0-1.59,1.3-4.59,2.89-4.59S129,125,129,126.6Z"/></g></svg>